<svg width="65" height="65" viewBox="0 0 65 65" fill="none" xmlns="http://www.w3.org/2000/svg">
<path d="M53.2023 54.8645L44.6503 10.2695H20.3609L11.7656 54.8645H53.2023Z" stroke="#1E2633"/>
<path d="M27.3587 10.7266L22.1214 54.8136" stroke="#1E2633" stroke-dasharray="4 2"/>
<path d="M22.5824 10.0938L14.1572 54.7613" stroke="#1E2633"/>
<path d="M42.6005 10.2344L51.1067 54.7615" stroke="#1E2633"/>
<path d="M32.256 10.6816L32.256 54.8642" stroke="#1E2633"/>
<path d="M37.6136 10.6562L42.5303 54.9068" stroke="#1E2633" stroke-dasharray="4 2"/>
<path fill-rule="evenodd" clip-rule="evenodd" d="M2.53052 25.7363H61.9814V32.3353H2.53052V25.7363ZM4.04066 33.8679H12.8192L10.1241 37.1674V40.4669H6.60304V37.1674L4.04066 33.8679ZM60.3359 33.8679H51.763L54.3254 37.1674V40.4669H57.8465V37.1674L60.3359 33.8679Z" fill="#619EC3"/>
<rect x="2.53052" y="27.8633" width="59.4509" height="0.70239" fill="white"/>
</svg>
