<svg width="46" height="45" viewBox="0 0 46 45" fill="none" xmlns="http://www.w3.org/2000/svg">
<path d="M29.6123 36.0352C25.6133 36.0352 23.6138 33.5913 23.6138 28.7036C23.6138 23.8843 25.9038 19.2529 30.4839 14.8096C34.4829 10.9131 38.0376 8.96484 41.1479 8.96484C42.5835 8.96484 43.3354 9.35791 43.4038 10.144C43.438 10.5884 43.0791 11.1865 42.3271 11.9385L39.9175 14.1943C35.4741 18.2959 33.8335 22.0898 34.9956 25.5762C35.3374 26.5674 35.6792 27.4219 36.021 28.1396C36.397 28.8574 36.6875 29.5068 36.8926 30.0879C37.1318 30.6689 36.9951 31.4551 36.4824 32.4463C35.9697 33.4033 35.064 34.2407 33.7651 34.9585C32.5005 35.6763 31.1162 36.0352 29.6123 36.0352ZM9.10449 36.0352C5.10547 36.0352 3.10596 33.5913 3.10596 28.7036C3.10596 23.8843 5.396 19.2529 9.97607 14.8096C13.9751 10.9131 17.5298 8.96484 20.6401 8.96484C22.0757 8.96484 22.8276 9.35791 22.896 10.144C22.9302 10.5884 22.5713 11.1865 21.8193 11.9385L19.4097 14.1943C14.9663 18.2959 13.3257 22.0898 14.4878 25.5762C14.8296 26.5674 15.1714 27.4219 15.5132 28.1396C15.8892 28.8574 16.1797 29.5068 16.3848 30.0879C16.624 30.6689 16.4873 31.4551 15.9746 32.4463C15.4619 33.4033 14.5562 34.2407 13.2573 34.9585C11.9927 35.6763 10.6084 36.0352 9.10449 36.0352Z" fill="#DF7142"/>
</svg>
