<svg width="46" height="45" viewBox="0 0 46 45" fill="none" xmlns="http://www.w3.org/2000/svg">
<path d="M29.1123 36.0352C25.1133 36.0352 23.1138 33.5913 23.1138 28.7036C23.1138 23.8843 25.4038 19.2529 29.9839 14.8096C33.9829 10.9131 37.5376 8.96484 40.6479 8.96484C42.0835 8.96484 42.8354 9.35791 42.9038 10.144C42.938 10.5884 42.5791 11.1865 41.8271 11.9385L39.4175 14.1943C34.9741 18.2959 33.3335 22.0898 34.4956 25.5762C34.8374 26.5674 35.1792 27.4219 35.521 28.1396C35.897 28.8574 36.1875 29.5068 36.3926 30.0879C36.6318 30.6689 36.4951 31.4551 35.9824 32.4463C35.4697 33.4033 34.564 34.2407 33.2651 34.9585C32.0005 35.6763 30.6162 36.0352 29.1123 36.0352ZM8.60449 36.0352C4.60547 36.0352 2.60596 33.5913 2.60596 28.7036C2.60596 23.8843 4.896 19.2529 9.47607 14.8096C13.4751 10.9131 17.0298 8.96484 20.1401 8.96484C21.5757 8.96484 22.3276 9.35791 22.396 10.144C22.4302 10.5884 22.0713 11.1865 21.3193 11.9385L18.9097 14.1943C14.4663 18.2959 12.8257 22.0898 13.9878 25.5762C14.3296 26.5674 14.6714 27.4219 15.0132 28.1396C15.3892 28.8574 15.6797 29.5068 15.8848 30.0879C16.124 30.6689 15.9873 31.4551 15.4746 32.4463C14.9619 33.4033 14.0562 34.2407 12.7573 34.9585C11.4927 35.6763 10.1084 36.0352 8.60449 36.0352Z" fill="white"/>
</svg>
