<svg width="31" height="31" viewBox="0 0 31 31" fill="none" xmlns="http://www.w3.org/2000/svg">
<path d="M6.69666 12.2805L7.10436 12.756C7.90255 13.6869 8.30957 14.8906 8.24016 16.1149L7.58192 27.7259C7.52257 28.7728 8.35551 29.6543 9.40409 29.6543C10.4379 29.6543 11.2653 28.7965 11.228 27.7634L10.8027 15.9751C10.7616 14.8343 11.1312 13.7166 11.8445 12.8253L12.3209 12.2299C12.7392 11.7072 12.967 11.0578 12.967 10.3884C12.967 8.97531 12.6284 7.58282 11.9794 6.32759L11.5921 5.57839C10.6556 3.76706 8.04919 3.81413 7.17874 5.6581L6.83788 6.38017C6.26042 7.60346 5.96094 8.93943 5.96094 10.2922C5.96094 11.0215 6.22191 11.7268 6.69666 12.2805Z" fill="#8A8A8A"/>
<path fill-rule="evenodd" clip-rule="evenodd" d="M22.2422 4.29688V9.98943H23.3568V4.29688H24.9251V9.75011C24.9251 10.8326 24.5566 11.8828 23.8802 12.728L23.8025 12.8252C23.0892 13.7165 22.7196 14.8342 22.7607 15.975L23.186 27.7633C23.2233 28.7964 22.3959 29.6542 21.3621 29.6542C20.3135 29.6542 19.4806 28.7727 19.5399 27.7258L20.1982 16.1148C20.2676 14.8905 19.8606 13.6868 19.0624 12.7559C18.3245 11.8954 17.9189 10.7993 17.9189 9.66574V4.29688H19.4955V9.98945H20.6101V4.29688H22.2422Z" fill="#8A8A8A"/>
</svg>
