<svg width="31" height="31" viewBox="0 0 31 31" fill="none" xmlns="http://www.w3.org/2000/svg">
<g clip-path="url(#clip0_1540_8181)">
<path d="M5.74999 20.3415L6.52919 23.9588V26.1024C6.52919 26.6547 6.97691 27.1024 7.52919 27.1024H9.07357C9.62586 27.1024 10.0736 26.6547 10.0736 26.1024V25.096H21.778V26.1024C21.778 26.6547 22.2257 27.1024 22.778 27.1024H23.9215C24.4738 27.1024 24.9215 26.6547 24.9215 26.1024V23.9588L25.6097 20.3803C25.7047 19.8861 25.6099 19.3742 25.3443 18.9468L23.4501 15.8994C23.4501 15.8994 18.6387 15.2979 15.5412 15.2979C12.4437 15.2979 7.63236 15.8994 7.63236 15.8994L5.9523 18.9572C5.72043 19.3793 5.6486 19.8708 5.74999 20.3415Z" fill="#1E2633"/>
<circle cx="9.07763" cy="22.5312" r="0.811033" fill="white"/>
<circle cx="22.7241" cy="22.5312" r="0.811033" fill="white"/>
<path d="M5.47153 15.1104H6.77054C7.32283 15.1104 7.77054 15.5581 7.77054 16.1104V17.1466L6.06518 16.6294C5.54793 16.4725 5.24895 15.933 5.39012 15.4113L5.47153 15.1104Z" fill="#1E2633"/>
<path d="M25.5324 15.1104H24.2334C23.6811 15.1104 23.2334 15.5581 23.2334 16.1104V17.1466L24.9387 16.6294C25.456 16.4725 25.755 15.933 25.6138 15.4113L25.5324 15.1104Z" fill="#1E2633"/>
<path d="M8.02344 16.1286L9.19866 12.7014C9.47584 11.893 10.236 11.3501 11.0905 11.3501L19.8128 11.3501C20.6676 11.3501 21.4278 11.8933 21.7049 12.7019L22.8788 16.1286" stroke="#1E2633"/>
<path d="M2.375 27.1026V3.50488H28.625V27.1026" stroke="#1E2633" stroke-width="2.5"/>
<path d="M3.36621 6.29395H27.4189" stroke="#1E2633"/>
<path d="M3.36621 8.19043H27.4189" stroke="#1E2633"/>
<path d="M0.564453 27.2129H30.4365" stroke="#1E2633"/>
</g>
<defs>
<clipPath id="clip0_1540_8181">
<rect width="30" height="30" fill="white" transform="translate(0.5 0.358887)"/>
</clipPath>
</defs>
</svg>
