<svg width="47" height="46" viewBox="0 0 47 46" fill="none" xmlns="http://www.w3.org/2000/svg">
<circle cx="23.4824" cy="22.832" r="22.5" fill="#DF7142"/>
<path d="M25.2088 12.4307L24.8333 26.2381H21.3092L20.9241 12.4307H25.2088ZM23.0713 32.4004C22.4358 32.4004 21.8901 32.1757 21.4344 31.7264C20.9786 31.2706 20.754 30.725 20.7604 30.0895C20.754 29.4605 20.9786 28.9213 21.4344 28.4719C21.8901 28.0226 22.4358 27.7979 23.0713 27.7979C23.6811 27.7979 24.2171 28.0226 24.6792 28.4719C25.1414 28.9213 25.3757 29.4605 25.3821 30.0895C25.3757 30.5132 25.2634 30.9015 25.0451 31.2546C24.8333 31.6012 24.5541 31.8804 24.2074 32.0923C23.8608 32.2977 23.4821 32.4004 23.0713 32.4004Z" fill="white"/>
</svg>
