<svg width="536" height="352" viewBox="0 0 536 352" fill="none" xmlns="http://www.w3.org/2000/svg">
<mask id="mask0_1186_43354" style="mask-type:alpha" maskUnits="userSpaceOnUse" x="0" y="0" width="551" height="352">
<rect x="0.755981" y="0.822266" width="549.824" height="351.178" fill="#D9D9D9"/>
</mask>
<g mask="url(#mask0_1186_43354)">
<path d="M2.5474 2.6684L2.54745 555.74L20.922 555.74L20.9219 13.2776L2.5474 2.6684Z" fill="white" fill-opacity="0.06"/>
<path d="M52.5314 31.5414L52.5315 584.613L70.906 584.613L70.906 42.1506L52.5314 31.5414Z" fill="white" fill-opacity="0.06"/>
<path d="M102.515 60.4164L102.515 613.488L120.89 613.488L120.89 71.0256L102.515 60.4164Z" fill="white" fill-opacity="0.06"/>
<path d="M152.499 89.2895L152.499 642.361L170.874 642.361L170.874 99.8987L152.499 89.2895Z" fill="white" fill-opacity="0.06"/>
<path d="M202.483 118.164L202.483 671.236L220.858 671.236L220.858 128.774L202.483 118.164Z" fill="white" fill-opacity="0.06"/>
<path d="M252.467 147.038L252.467 700.109L270.842 700.109L270.842 157.647L252.467 147.038Z" fill="white" fill-opacity="0.06"/>
<path d="M302.451 175.913L302.451 728.984L320.826 728.984L320.826 186.522L302.451 175.913Z" fill="white" fill-opacity="0.06"/>
<path d="M352.435 204.786L352.435 757.857L370.81 757.857L370.81 215.395L352.435 204.786Z" fill="white" fill-opacity="0.06"/>
<path d="M402.419 233.661L402.419 786.732L420.794 786.732L420.794 244.27L402.419 233.661Z" fill="white" fill-opacity="0.06"/>
<path d="M452.403 262.534L452.403 815.605L470.778 815.605L470.778 273.143L452.403 262.534Z" fill="white" fill-opacity="0.06"/>
<path d="M502.387 291.409L502.387 844.48L520.761 844.48L520.761 302.018L502.387 291.409Z" fill="white" fill-opacity="0.06"/>
</g>
</svg>
