<svg width="377" height="554" viewBox="0 0 377 554" fill="none" xmlns="http://www.w3.org/2000/svg">
<mask id="mask0_1329_15973" style="mask-type:alpha" maskUnits="userSpaceOnUse" x="0" y="0" width="1228" height="554">
<rect x="0.980469" y="0.786621" width="1226.96" height="553.072" fill="#D9D9D9"/>
</mask>
<g mask="url(#mask0_1329_15973)">
<path d="M0.980869 0.786562L0.980917 553.858L19.3555 553.858L19.3554 11.3958L0.980869 0.786562Z" fill="#E8E8E8"/>
<path d="M50.9652 29.6606L50.9653 582.732L69.3398 582.732L69.3398 40.2698L50.9652 29.6606Z" fill="#E8E8E8"/>
<path d="M100.95 58.5346L100.95 611.606L119.324 611.606L119.324 69.1438L100.95 58.5346Z" fill="#E8E8E8"/>
<path d="M150.934 87.4086L150.934 640.48L169.309 640.48L169.309 98.0178L150.934 87.4086Z" fill="#E8E8E8"/>
<path d="M200.914 116.283L200.915 669.354L219.289 669.354L219.289 126.892L200.914 116.283Z" fill="#E8E8E8"/>
<path d="M250.899 145.157L250.899 698.229L269.273 698.229L269.273 155.766L250.899 145.157Z" fill="#E8E8E8"/>
<path d="M300.883 174.031L300.883 727.103L319.258 727.103L319.258 184.64L300.883 174.031Z" fill="#E8E8E8"/>
<path d="M350.868 202.905L350.868 755.977L369.242 755.977L369.242 213.514L350.868 202.905Z" fill="#E8E8E8"/>
</g>
</svg>
