<svg width="448" height="287" viewBox="0 0 448 287" fill="none" xmlns="http://www.w3.org/2000/svg">
<mask id="mask0_1329_16027" style="mask-type:alpha" maskUnits="userSpaceOnUse" x="0" y="0" width="481" height="287">
<rect y="0.858887" width="480.33" height="286" fill="#D9D9D9"/>
</mask>
<g mask="url(#mask0_1329_16027)">
<path d="M1.45989 2.36212L1.45993 452.785L16.4316 452.785L16.4316 11.0023L1.45989 2.36212Z" fill="white" fill-opacity="0.44"/>
<path d="M42.1865 25.8773L42.1865 476.3L57.1582 476.3L57.1582 34.5174L42.1865 25.8773Z" fill="white" fill-opacity="0.44"/>
<path d="M82.913 49.3921L82.9131 499.815L97.8848 499.815L97.8847 58.0323L82.913 49.3921Z" fill="white" fill-opacity="0.44"/>
<path d="M123.642 72.9073L123.642 523.33L138.613 523.33L138.613 81.5474L123.642 72.9073Z" fill="white" fill-opacity="0.44"/>
<path d="M164.368 96.4224L164.368 546.845L179.34 546.845L179.34 105.063L164.368 96.4224Z" fill="white" fill-opacity="0.44"/>
<path d="M205.095 119.938L205.095 570.361L220.066 570.361L220.066 128.578L205.095 119.938Z" fill="white" fill-opacity="0.44"/>
<path d="M245.823 143.452L245.823 593.875L260.795 593.875L260.795 152.093L245.823 143.452Z" fill="white" fill-opacity="0.44"/>
<path d="M286.55 166.968L286.55 617.391L301.521 617.391L301.521 175.608L286.55 166.968Z" fill="white" fill-opacity="0.44"/>
<path d="M327.276 190.483L327.276 640.906L342.248 640.906L342.248 199.123L327.276 190.483Z" fill="white" fill-opacity="0.44"/>
<path d="M368.005 213.998L368.005 664.421L382.977 664.421L382.977 222.638L368.005 213.998Z" fill="white" fill-opacity="0.44"/>
<path d="M408.731 237.513L408.731 687.936L423.703 687.936L423.703 246.153L408.731 237.513Z" fill="white" fill-opacity="0.44"/>
</g>
</svg>
