<svg width="104" height="104" viewBox="0 0 104 104" fill="none" xmlns="http://www.w3.org/2000/svg">
<g filter="url(#filter0_d_1186_42378)">
<rect x="24.0107" y="24.1152" width="55" height="55" rx="27.5" fill="#91A256" shape-rendering="crispEdges"/>
<path d="M42.7643 48.4915L43.172 48.9669C43.9702 49.8979 44.3772 51.1015 44.3078 52.3258L43.6495 63.9368C43.5902 64.9837 44.4231 65.8652 45.4717 65.8652C46.5055 65.8652 47.3329 65.0074 47.2956 63.9743L46.8703 52.186C46.8292 51.0452 47.1988 49.9276 47.9121 49.0363L48.3886 48.4408C48.8068 47.9182 49.0347 47.2687 49.0347 46.5993C49.0347 45.1862 48.696 43.7938 48.047 42.5385L47.6597 41.7893C46.7232 39.978 44.1168 40.0251 43.2464 41.869L42.9055 42.5911C42.328 43.8144 42.0286 45.1504 42.0286 46.5031C42.0286 47.2325 42.2895 47.9378 42.7643 48.4915Z" fill="white"/>
<path fill-rule="evenodd" clip-rule="evenodd" d="M58.3099 40.5078V46.2004H59.4245V40.5078H60.9927V45.961C60.9927 47.0435 60.6242 48.0938 59.9479 48.939L59.8701 49.0362C59.1569 49.9275 58.7872 51.0451 58.8284 52.1859L59.2537 63.9742C59.291 65.0073 58.4635 65.8651 57.4298 65.8651C56.3812 65.8651 55.5482 64.9836 55.6076 63.9367L56.2658 52.3257C56.3352 51.1014 55.9282 49.8978 55.13 48.9669C54.3922 48.1063 53.9866 47.0102 53.9866 45.8767V40.5078H55.5632V46.2004H56.6777V40.5078H58.3099Z" fill="white"/>
</g>
<defs>
<filter id="filter0_d_1186_42378" x="0.0107422" y="0.115234" width="103" height="103" filterUnits="userSpaceOnUse" color-interpolation-filters="sRGB">
<feFlood flood-opacity="0" result="BackgroundImageFix"/>
<feColorMatrix in="SourceAlpha" type="matrix" values="0 0 0 0 0 0 0 0 0 0 0 0 0 0 0 0 0 0 127 0" result="hardAlpha"/>
<feOffset/>
<feGaussianBlur stdDeviation="12"/>
<feComposite in2="hardAlpha" operator="out"/>
<feColorMatrix type="matrix" values="0 0 0 0 0 0 0 0 0 0 0 0 0 0 0 0 0 0 0.15 0"/>
<feBlend mode="normal" in2="BackgroundImageFix" result="effect1_dropShadow_1186_42378"/>
<feBlend mode="normal" in="SourceGraphic" in2="effect1_dropShadow_1186_42378" result="shape"/>
</filter>
</defs>
</svg>
