<svg width="56" height="56" viewBox="0 0 56 56" fill="none" xmlns="http://www.w3.org/2000/svg">
<rect x="0.206543" y="0.435547" width="55" height="55" rx="27.5" fill="#91A256"/>
<path fill-rule="evenodd" clip-rule="evenodd" d="M36.1095 28.5113C35.5984 26.989 34.3992 25.1477 32.7004 23.4489C31.002 21.7505 29.1611 20.5515 27.6391 20.0401C26.3486 19.7092 25.522 19.9247 25.1149 20.3319C24.6649 20.7819 24.449 21.7441 24.9461 23.2786C25.4245 24.7554 26.4948 26.4848 28.0797 28.0697C29.6646 29.6546 31.394 30.7249 32.8708 31.2034C34.4053 31.7004 35.3676 31.4845 35.8175 31.0345C36.2246 30.6275 36.4401 29.8012 36.1095 28.5113ZM32.3845 33.1471C32.3411 33.1337 32.2977 33.12 32.2545 33.106C30.4189 32.5114 28.4265 31.245 26.6655 29.4839C24.9044 27.7229 23.638 25.7305 23.0434 23.895C23.0294 23.8516 23.0157 23.8082 23.0023 23.7647C22.3297 25.2621 21.5532 27.0865 20.7752 28.9589C23.4906 31.052 26.3392 32.4283 28.8505 32.9984C30.0612 33.2732 31.1693 33.3569 32.14 33.2565C32.2224 33.2198 32.3039 33.1833 32.3845 33.1471ZM19.0369 33.2062C19.4645 32.1477 19.9193 31.031 20.3797 29.9145C23.126 31.9889 26.0199 33.3792 28.6269 33.971C29.0784 34.0735 29.5243 34.1525 29.9617 34.2067C29.0939 34.5782 28.1797 34.9628 27.253 35.3481C24.8031 35.868 21.9495 35.1873 19.0369 33.2062ZM18.6556 34.1522C18.4743 34.603 18.2997 35.039 18.1335 35.4549C17.4872 37.0724 19.0769 38.6621 20.6944 38.0158C21.8631 37.5489 23.1893 37.0151 24.5606 36.456C22.6471 36.2426 20.6412 35.4662 18.6556 34.1522Z" fill="white"/>
<circle cx="31.8172" cy="18.3841" r="1.77472" fill="white"/>
<circle cx="38.0516" cy="24.4915" r="1.77472" fill="white"/>
<circle cx="38.0516" cy="18.3841" r="1.77472" fill="white"/>
</svg>
