<svg width="60" height="61" viewBox="0 0 60 61" fill="none" xmlns="http://www.w3.org/2000/svg">
<rect x="-0.00500488" y="0.243164" width="60" height="60" rx="30" fill="#91A256"/>
<rect x="19.4863" y="23.1201" width="5.55751" height="14.2474" rx="1.21255" fill="white"/>
<rect x="40.5038" y="37.3672" width="5.55751" height="14.2474" rx="1.21255" transform="rotate(-180 40.5038 37.3672)" fill="white"/>
<path d="M16.556 27.2632C16.556 26.3703 17.2799 25.6465 18.1728 25.6465H18.678V34.8416H18.1728C17.2799 34.8416 16.556 34.1178 16.556 33.2249V27.2632Z" fill="white"/>
<path d="M43.4342 33.2251C43.4342 34.118 42.7104 34.8418 41.8175 34.8418L41.3122 34.8418L41.3122 25.6466L41.8175 25.6466C42.7104 25.6466 43.4342 26.3705 43.4342 27.2634L43.4342 33.2251Z" fill="white"/>
<rect x="20.2947" y="28.6777" width="19.1987" height="3.13241" fill="white"/>
</svg>
