<svg width="104" height="104" viewBox="0 0 104 104" fill="none" xmlns="http://www.w3.org/2000/svg">
<g filter="url(#filter0_d_1186_42382)">
<rect x="24.1735" y="24.5537" width="55" height="55" rx="27.5" fill="#91A256" shape-rendering="crispEdges"/>
<path fill-rule="evenodd" clip-rule="evenodd" d="M60.0764 52.6295C59.5653 51.1072 58.366 49.2659 56.6673 47.5671C54.9689 45.8687 53.128 44.6697 51.606 44.1583C50.3155 43.8274 49.4889 44.0429 49.0818 44.4501C48.6318 44.9 48.4159 45.8623 48.9129 47.3968C49.3914 48.8736 50.4617 50.603 52.0466 52.1879C53.6315 53.7728 55.3609 54.8431 56.8377 55.3215C58.3722 55.8186 59.3344 55.6027 59.7844 55.1527C60.1915 54.7456 60.407 53.9194 60.0764 52.6295ZM56.3514 57.2652C56.308 57.2519 56.2646 57.2382 56.2213 57.2242C54.3858 56.6295 52.3934 55.3631 50.6324 53.6021C48.8713 51.841 47.6049 49.8487 47.0103 48.0131C46.9963 47.9698 46.9825 47.9264 46.9692 47.8828C46.2966 49.3802 45.5201 51.2046 44.7421 53.077C47.4574 55.1701 50.3061 56.5465 52.8174 57.1166C54.0281 57.3914 55.1362 57.4751 56.1069 57.3747C56.1893 57.3379 56.2708 57.3014 56.3514 57.2652ZM43.0038 57.3243C43.4314 56.2658 43.8862 55.1491 44.3465 54.0327C47.0929 56.107 49.9868 57.4974 52.5938 58.0892C53.0453 58.1916 53.4912 58.2706 53.9286 58.3248C53.0608 58.6964 52.1466 59.081 51.2199 59.4663C48.77 59.9862 45.9164 59.3055 43.0038 57.3243ZM42.6225 58.2704C42.4412 58.7212 42.2666 59.1571 42.1003 59.5731C41.4541 61.1905 43.0438 62.7803 44.6613 62.134C45.8299 61.667 47.1562 61.1333 48.5275 60.5742C46.614 60.3607 44.6081 59.5844 42.6225 58.2704Z" fill="white"/>
<circle cx="55.784" cy="42.5013" r="1.77472" fill="white"/>
<circle cx="62.0186" cy="48.6097" r="1.77472" fill="white"/>
<circle cx="62.0187" cy="42.5013" r="1.77472" fill="white"/>
</g>
<defs>
<filter id="filter0_d_1186_42382" x="0.173462" y="0.553711" width="103" height="103" filterUnits="userSpaceOnUse" color-interpolation-filters="sRGB">
<feFlood flood-opacity="0" result="BackgroundImageFix"/>
<feColorMatrix in="SourceAlpha" type="matrix" values="0 0 0 0 0 0 0 0 0 0 0 0 0 0 0 0 0 0 127 0" result="hardAlpha"/>
<feOffset/>
<feGaussianBlur stdDeviation="12"/>
<feComposite in2="hardAlpha" operator="out"/>
<feColorMatrix type="matrix" values="0 0 0 0 0 0 0 0 0 0 0 0 0 0 0 0 0 0 0.15 0"/>
<feBlend mode="normal" in2="BackgroundImageFix" result="effect1_dropShadow_1186_42382"/>
<feBlend mode="normal" in="SourceGraphic" in2="effect1_dropShadow_1186_42382" result="shape"/>
</filter>
</defs>
</svg>
