<svg width="57" height="81" viewBox="0 0 57 81" fill="none" xmlns="http://www.w3.org/2000/svg">
<path d="M28.1736 0.678711L56.3473 16.945V49.4775L28.1746 80.6787L0 49.4775V16.945L28.1736 0.678711Z" fill="#1E2633"/>
<path d="M28.3822 8.34644L7.08008 20.6429V34.4963H28.3822V8.34644Z" fill="#91A256"/>
<path d="M31.0781 9.90356V34.4965H32.6443V10.8079L31.0781 9.90356Z" fill="white"/>
<path d="M35.3379 12.3645V34.4963H36.9041V13.2688L35.3379 12.3645Z" fill="white"/>
<path d="M39.5996 14.8257V34.4963H41.1658V15.7207L39.5996 14.8257Z" fill="white"/>
<path d="M43.8594 17.2783V34.4971H45.4162V18.1826L43.8594 17.2783Z" fill="white"/>
<path d="M48.1191 34.4974H49.676V20.644L48.1191 19.7397V34.4974Z" fill="white"/>
<path d="M28.3828 62.4169L49.6756 50.1205V36.2671H28.3828V62.4169Z" fill="#91A256"/>
<path d="M25.6873 60.8694V36.2671H24.1211V59.9651L25.6873 60.8694Z" fill="white"/>
<path d="M21.4275 58.4082V36.2671H19.8613V57.5039L21.4275 58.4082Z" fill="white"/>
<path d="M17.1678 55.9471V36.2671H15.6016V55.0428L17.1678 55.9471Z" fill="white"/>
<path d="M12.906 53.4859V36.2671H11.3398V52.5816L12.906 53.4859Z" fill="white"/>
<path d="M8.64627 36.2673H7.08008V50.1207L8.64627 51.025V36.2673Z" fill="white"/>
<path d="M20.095 22.7411H19.0696V21.958H16.8321V23.7479H18.2678C18.6314 23.7479 18.967 23.7945 19.2747 23.8784C19.5823 23.9623 19.8527 24.0929 20.0764 24.2607C20.3001 24.4378 20.4679 24.6522 20.5985 24.9039C20.7197 25.165 20.7849 25.4633 20.7849 25.8175C20.7849 26.1718 20.729 26.4888 20.6171 26.7591C20.5052 27.0295 20.3468 27.2532 20.151 27.4397C19.9552 27.6261 19.7128 27.7566 19.4331 27.8499C19.1535 27.9431 18.8365 27.9897 18.4916 27.9897H14.6973V27.0201H15.3871V21.9487H14.6973V21.0071H20.1044V22.7318L20.095 22.7411ZM16.8321 24.6895V27.0295H18.1653C18.4822 27.0295 18.7526 26.9176 18.9577 26.7032C19.1628 26.4888 19.2747 26.1904 19.2747 25.8269C19.2747 25.4353 19.1628 25.1463 18.939 24.9692C18.7153 24.7921 18.4263 24.6988 18.0814 24.6988H16.8321V24.6895Z" fill="white"/>
<path d="M41.8729 44.7325C41.8729 44.9842 41.8357 45.2359 41.7518 45.497C41.6679 45.758 41.5373 45.9911 41.3509 46.1962C41.1644 46.4013 40.9314 46.5691 40.6517 46.6996C40.3627 46.8301 40.0178 46.8954 39.6169 46.8954H38.2931V48.6294H39.1974V49.5989H36.1582V48.6294H36.8388V43.5672H36.1582V42.5977H39.477C40.2695 42.5977 40.8661 42.7934 41.267 43.1757C41.6679 43.5579 41.8636 44.0799 41.8636 44.7232L41.8729 44.7325ZM38.2931 43.5765V45.9538H39.244C39.3931 45.9538 39.533 45.9351 39.6728 45.8885C39.8127 45.8419 39.9245 45.7767 40.0271 45.6834C40.1296 45.5902 40.2042 45.469 40.2601 45.3198C40.3161 45.1707 40.344 44.9936 40.344 44.7791C40.344 44.3689 40.2415 44.0613 40.0457 43.8655C39.8499 43.6698 39.5703 43.5765 39.2067 43.5765H38.2931Z" fill="white"/>
</svg>
