<svg width="56" height="56" viewBox="0 0 56 56" fill="none" xmlns="http://www.w3.org/2000/svg">
<rect x="0.206543" y="0.435547" width="55" height="55" rx="27.5" fill="#91A256"/>
<path d="M22.8457 22.0561V22.941H31.1487C32.6409 22.941 33.8506 21.7313 33.8506 20.2391C33.8506 18.7468 32.6409 17.5371 31.1487 17.5371H30.5424C30.5424 18.2471 29.9669 18.8226 29.2569 18.8226H26.0792C24.2934 18.8226 22.8457 20.2703 22.8457 22.0561Z" fill="white"/>
<path d="M20.0776 25.2361V23.6716C20.0776 23.2252 20.4396 22.8633 20.886 22.8633H34.5276C34.9741 22.8633 35.336 23.2252 35.336 23.6716V25.2361H20.0776Z" fill="white"/>
<path fill-rule="evenodd" clip-rule="evenodd" d="M18.187 26.7205V35.9098C18.187 37.2491 19.2728 38.3348 20.6121 38.3348H34.8011C36.1404 38.3348 37.2262 37.2491 37.2262 35.9098V26.7205C37.2262 26.274 36.8643 25.9121 36.4178 25.9121H18.9954C18.5489 25.9121 18.187 26.274 18.187 26.7205ZM26.0113 28.4423C26.0113 27.9959 26.3732 27.634 26.8197 27.634H28.5936C29.0401 27.634 29.402 27.9959 29.402 28.4423V29.9878H30.9475C31.3939 29.9878 31.7558 30.3497 31.7558 30.7962V32.5701C31.7558 33.0166 31.3939 33.3785 30.9475 33.3785H29.402V34.9239C29.402 35.3704 29.0401 35.7323 28.5936 35.7323H26.8197C26.3732 35.7323 26.0113 35.3704 26.0113 34.9239V33.3785H24.4659C24.0195 33.3785 23.6575 33.0166 23.6575 32.5701V30.7962C23.6575 30.3497 24.0195 29.9878 24.4659 29.9878H26.0113V28.4423Z" fill="white"/>
</svg>
