<svg width="104" height="104" viewBox="0 0 104 104" fill="none" xmlns="http://www.w3.org/2000/svg">
<g filter="url(#filter0_d_1186_42377)">
<rect x="24.3718" y="24.7432" width="55" height="55" rx="27.5" fill="#91A256" shape-rendering="crispEdges"/>
<path d="M47.0108 46.3627V47.2476H55.3138C56.806 47.2476 58.0157 46.0379 58.0157 44.5457C58.0157 43.0535 56.806 41.8438 55.3138 41.8438H54.7075C54.7075 42.5537 54.1319 43.1292 53.422 43.1292H50.2442C48.4584 43.1292 47.0108 44.5769 47.0108 46.3627Z" fill="white"/>
<path d="M44.2427 49.5427V47.9783C44.2427 47.5318 44.6046 47.1699 45.0511 47.1699H58.6927C59.1392 47.1699 59.5011 47.5318 59.5011 47.9783V49.5427H44.2427Z" fill="white"/>
<path fill-rule="evenodd" clip-rule="evenodd" d="M42.3523 51.0271V60.2164C42.3523 61.5557 43.438 62.6415 44.7774 62.6415H58.9664C60.3057 62.6415 61.3915 61.5557 61.3915 60.2164V51.0271C61.3915 50.5807 61.0295 50.2188 60.5831 50.2188H43.1606C42.7142 50.2188 42.3523 50.5807 42.3523 51.0271ZM50.1766 52.749C50.1766 52.3025 50.5385 51.9406 50.9849 51.9406H52.7589C53.2053 51.9406 53.5672 52.3025 53.5672 52.749V54.2945H55.1127C55.5592 54.2945 55.9211 54.6564 55.9211 55.1028V56.8768C55.9211 57.3232 55.5592 57.6851 55.1127 57.6851H53.5672V59.2305C53.5672 59.677 53.2053 60.0389 52.7589 60.0389H50.9849C50.5385 60.0389 50.1766 59.677 50.1766 59.2305V57.6851H48.6312C48.1847 57.6851 47.8228 57.3232 47.8228 56.8768V55.1028C47.8228 54.6564 48.1847 54.2945 48.6312 54.2945H50.1766V52.749Z" fill="white"/>
</g>
<defs>
<filter id="filter0_d_1186_42377" x="0.371826" y="0.743164" width="103" height="103" filterUnits="userSpaceOnUse" color-interpolation-filters="sRGB">
<feFlood flood-opacity="0" result="BackgroundImageFix"/>
<feColorMatrix in="SourceAlpha" type="matrix" values="0 0 0 0 0 0 0 0 0 0 0 0 0 0 0 0 0 0 127 0" result="hardAlpha"/>
<feOffset/>
<feGaussianBlur stdDeviation="12"/>
<feComposite in2="hardAlpha" operator="out"/>
<feColorMatrix type="matrix" values="0 0 0 0 0 0 0 0 0 0 0 0 0 0 0 0 0 0 0.15 0"/>
<feBlend mode="normal" in2="BackgroundImageFix" result="effect1_dropShadow_1186_42377"/>
<feBlend mode="normal" in="SourceGraphic" in2="effect1_dropShadow_1186_42377" result="shape"/>
</filter>
</defs>
</svg>
