<svg width="65" height="65" viewBox="0 0 65 65" fill="none" xmlns="http://www.w3.org/2000/svg">
<path d="M4.76098 41.2294C4.11555 38.8381 3.77328 36.3227 3.7779 33.7268C3.80594 17.9728 16.5998 5.2244 32.3538 5.25243C48.1078 5.28047 60.8563 18.0743 60.8282 33.8284C60.8002 49.5824 48.0063 62.3308 32.2523 62.3028C25.3966 62.2906 19.1101 59.8608 14.1979 55.8217" stroke="#1E2633"/>
<path d="M12.1647 50.8841L9.45425 53.2785" stroke="#1E2633"/>
<path d="M13.5728 52.3685L10.8649 54.7659" stroke="#1E2633"/>
<path d="M5.32877 52.9263L12.6864 46.4481L14.6838 48.7087L14.6844 48.7094C16.5543 50.8184 16.6001 53.5193 15.1618 54.7817L15.1614 54.7821L13.3107 56.4107C13.3106 56.4108 13.3105 56.4109 13.3104 56.411C11.8696 57.6752 9.19273 57.2918 7.32268 55.183C7.32254 55.1829 7.3224 55.1827 7.32226 55.1826L5.32877 52.9263Z" stroke="#1E2633"/>
<path d="M11.1581 47.5895L11.1625 47.5856C11.5214 47.2697 11.5553 46.7232 11.2383 46.365L10.0556 45.0281C9.73863 44.6698 9.19079 44.6354 8.83195 44.9513L8.82756 44.9552C8.46872 45.271 8.43478 45.8175 8.75174 46.1758L9.93448 47.5127C10.2514 47.871 10.7993 47.9053 11.1581 47.5895Z" fill="#1E2633"/>
<path d="M6.70745 51.5094L6.71184 51.5055C7.07068 51.1897 7.10462 50.6432 6.78765 50.2849L5.60492 48.948C5.28795 48.5897 4.7401 48.5554 4.38126 48.8712L4.37687 48.8751C4.01804 49.191 3.98409 49.7375 4.30106 50.0957L5.4838 51.4326C5.80076 51.7909 6.34861 51.8253 6.70745 51.5094Z" fill="#1E2633"/>
<path d="M47.4128 37.5314C47.4128 45.9809 40.5631 52.8305 32.1137 52.8305C23.6643 52.8305 16.8146 45.9809 16.8146 37.5314C16.8146 34.8058 17.7646 31.8364 19.2431 28.8793C20.7179 25.9299 22.6923 23.0441 24.6802 20.4997C26.6663 17.9574 28.6544 15.7703 30.1467 14.2184C30.8924 13.4428 31.5132 12.827 31.9467 12.4059C32.0072 12.3471 32.0641 12.2921 32.1172 12.241C32.1692 12.2905 32.225 12.3437 32.2842 12.4005C32.7175 12.816 33.3381 13.4242 34.0835 14.1912C35.5753 15.7261 37.5628 17.8926 39.5484 20.4209C41.5356 22.9514 43.5095 25.8297 44.9838 28.7882C46.4615 31.7534 47.4128 34.7504 47.4128 37.5314Z" stroke="#619EC3" stroke-width="1.5" stroke-linejoin="round"/>
<path d="M29.2003 22.7457L28.2404 23.5909C27.3452 24.379 27.3459 25.7741 28.2419 26.5613V26.5613C29.0916 27.308 29.1433 28.6139 28.3551 29.4253L27.5394 30.2652" stroke="#1E2633"/>
<path d="M32.5019 22.5328L31.5419 23.3781C30.6468 24.1661 30.6475 25.5613 31.5434 26.3484V26.3484C32.3932 27.0951 32.4448 28.401 31.6567 29.2124L30.8409 30.0523" stroke="#1E2633"/>
<path d="M35.8036 22.32L34.8436 23.1652C33.9485 23.9533 33.9492 25.3484 34.8451 26.1355V26.1355C35.6949 26.8822 35.7465 28.1881 34.9584 28.9995L34.1426 29.8394" stroke="#1E2633"/>
<rect x="23.549" y="33.1504" width="2.52159" height="11.7228" rx="0.5" stroke="#1E2633"/>
<rect x="28.2709" y="33.1504" width="2.52159" height="11.7228" rx="0.5" stroke="#1E2633"/>
<rect x="32.9927" y="33.1504" width="2.52159" height="11.7228" rx="0.5" stroke="#1E2633"/>
<rect x="37.7146" y="33.1504" width="2.52159" height="11.7228" rx="0.5" stroke="#1E2633"/>
<rect x="22.1215" y="35.1431" width="0.618317" height="1.196" stroke="#1E2633" stroke-width="0.618317"/>
<rect x="41.023" y="42.0388" width="0.573612" height="1.2407" stroke="#1E2633" stroke-width="0.573612"/>
<path d="M48.9686 24.3273C48.9686 27.0868 46.7316 29.3239 43.972 29.3239C41.2125 29.3239 38.9754 27.0868 38.9754 24.3273C38.9754 20.7297 43.972 16.1328 43.972 16.1328C43.972 16.1328 48.9686 20.6631 48.9686 24.3273Z" fill="#619EC3"/>
</svg>
