<svg width="64" height="65" viewBox="0 0 64 65" fill="none" xmlns="http://www.w3.org/2000/svg">
<rect x="5.87305" y="16.2129" width="52.2533" height="44.2019" stroke="#1E2633" stroke-linejoin="bevel"/>
<path d="M0.738281 5.04565H63.3097L58.2821 16.213H5.76556L0.738281 5.04565Z" stroke="#1E2633" stroke-linejoin="bevel"/>
<path d="M0.6875 5.16126L5.87286 16.2131V60.4149H0.6875V5.16126Z" stroke="#1E2633" stroke-linejoin="bevel"/>
<path d="M63.3105 4.92993L58.1252 16.2132V60.415H63.3105V4.92993Z" stroke="#1E2633" stroke-linejoin="bevel"/>
<rect x="19.2227" y="19.533" width="27.3813" height="37.4489" stroke="#6EA9CE" stroke-linejoin="bevel"/>
<path d="M45.2809 20.8594H45.7809L45.2809 20.3594V20.8594ZM34.2432 20.8594V20.3594L33.7432 20.8594H34.2432ZM45.2809 27.2892V27.7892L45.7809 27.2892H45.2809ZM34.2432 27.2892H33.7432L34.2432 27.7892V27.2892ZM31.5841 20.8594H32.0841L31.5841 20.3594V20.8594ZM20.5469 20.8594V20.3594L20.0469 20.8594H20.5469ZM20.5469 27.2892H20.0469L20.5469 27.7892V27.2892ZM31.5841 27.2892V27.7892L32.0841 27.2892H31.5841ZM31.5841 30.1702H32.0841L31.5841 29.6702V30.1702ZM20.5469 30.1702V29.6702L20.0469 30.1702H20.5469ZM20.5469 55.6552H20.0469L20.5469 56.1552V55.6552ZM31.5841 55.6552V56.1552L32.0841 55.6552H31.5841ZM34.2432 55.6552H33.7432L34.2432 56.1552V55.6552ZM45.2809 55.6552V56.1552L45.7809 55.6552H45.2809ZM45.2809 30.1702H45.7809L45.2809 29.6702V30.1702ZM34.2432 30.1702V29.6702L33.7432 30.1702H34.2432ZM45.2809 20.3594H34.2432V21.3594H45.2809V20.3594ZM45.7809 27.2892V20.8594H44.7809V27.2892H45.7809ZM34.2432 27.7892H45.2809V26.7892H34.2432V27.7892ZM33.7432 20.8594V27.2892H34.7432V20.8594H33.7432ZM31.5841 20.3594H20.5469V21.3594H31.5841V20.3594ZM20.0469 20.8594V27.2892H21.0469V20.8594H20.0469ZM20.5469 27.7892H31.5841V26.7892H20.5469V27.7892ZM32.0841 27.2892V20.8594H31.0841V27.2892H32.0841ZM31.5841 29.6702H20.5469V30.6702H31.5841V29.6702ZM20.0469 30.1702V55.6552H21.0469V30.1702H20.0469ZM20.5469 56.1552H31.5841V55.1552H20.5469V56.1552ZM32.0841 55.6552L32.0841 30.1702H31.0841L31.0841 55.6552H32.0841ZM34.2432 56.1552H45.2809V55.1552H34.2432V56.1552ZM45.7809 55.6552V30.1702H44.7809V55.6552H45.7809ZM45.2809 29.6702H34.2432V30.6702H45.2809V29.6702ZM33.7432 30.1702L33.7432 55.6552H34.7432L34.7432 30.1702H33.7432Z" fill="#6EA9CE"/>
<rect x="18.2422" y="56.9819" width="29.3415" height="1.32634" stroke="#6EA9CE" stroke-linejoin="bevel"/>
<path d="M26.0918 30.0542V55.6553" stroke="#6EA9CE" stroke-linejoin="bevel"/>
<path d="M26.0918 20.8594V27.1599" stroke="#6EA9CE" stroke-linejoin="bevel"/>
<path d="M39.8008 30.0542V55.6553" stroke="#6EA9CE" stroke-linejoin="bevel"/>
<path d="M39.8008 20.8594V27.1599" stroke="#6EA9CE" stroke-linejoin="bevel"/>
<path d="M31.6367 42.8728H20.5446" stroke="#6EA9CE" stroke-linejoin="bevel"/>
<path d="M45.3594 42.8728L34.2412 42.8728" stroke="#6EA9CE" stroke-linejoin="bevel"/>
<path d="M18.2418 16.3906L12.9727 42.3854L17.0126 60.1249" stroke="#1E2633" stroke-linejoin="bevel"/>
<path d="M12.7093 42.3413C12.4285 42.3413 9.78216 42.3413 8.49414 42.3413" stroke="#1E2633" stroke-linejoin="bevel"/>
<path d="M14.906 18.2349L11.3052 36.8527M11.3052 19.8156L9.54883 30.7931" stroke="#1E2633" stroke-linejoin="bevel"/>
<path d="M47.5844 16.3906L52.8535 42.3854L48.8135 60.1249" stroke="#1E2633" stroke-linejoin="bevel"/>
<path d="M53.1169 42.3413C53.3976 42.3413 56.044 42.3413 57.332 42.3413" stroke="#1E2633" stroke-linejoin="bevel"/>
<path d="M50.9201 18.2349L54.521 36.8527M54.521 19.8156L56.2773 30.7931" stroke="#1E2633" stroke-linejoin="bevel"/>
</svg>
