<svg width="75" height="99" viewBox="0 0 75 99" fill="none" xmlns="http://www.w3.org/2000/svg">
<path d="M37.4182 5.14648L2.27148 25.4347V48.2915H37.4182V5.14648Z" fill="#91A256"/>
<path d="M41.8633 7.71484V48.2912H44.4474V9.20685L41.8633 7.71484Z" fill="#79716A"/>
<path d="M48.8926 11.7754V48.291H51.4767V13.2674L48.8926 11.7754Z" fill="#79716A"/>
<path d="M55.9219 15.8359V48.2909H58.506V17.3126L55.9219 15.8359Z" fill="#79716A"/>
<path d="M62.9512 19.8828V48.2924H65.5199V21.3748L62.9512 19.8828Z" fill="#79716A"/>
<path d="M69.9805 48.2922H72.5492V25.4354L69.9805 23.9434V48.2922Z" fill="#79716A"/>
<path d="M37.418 94.358L72.5493 74.0698V51.2129H37.418V94.358Z" fill="#91A256"/>
<path d="M32.9728 91.8046V51.2129H30.3887V90.3126L32.9728 91.8046Z" fill="#79716A"/>
<path d="M25.9435 87.7439V51.2129H23.3594V86.2519L25.9435 87.7439Z" fill="#79716A"/>
<path d="M18.9142 83.6832V51.2129H16.3301V82.1912L18.9142 83.6832Z" fill="#79716A"/>
<path d="M11.8849 79.6225V51.2129H9.30078V78.1305L11.8849 79.6225Z" fill="#79716A"/>
<path d="M4.85557 51.2129H2.27148V74.0698L4.85557 75.5618V51.2129Z" fill="#79716A"/>
<path d="M23.7443 28.8961H22.0523V27.6041H18.3607V30.5573H20.7295C21.3294 30.5573 21.8831 30.6342 22.3907 30.7727C22.8983 30.9111 23.3443 31.1264 23.7135 31.4033C24.0827 31.6955 24.3595 32.0493 24.5749 32.4646C24.7748 32.8953 24.8825 33.3875 24.8825 33.972C24.8825 34.5565 24.7902 35.0795 24.6056 35.5255C24.421 35.9716 24.1596 36.3408 23.8365 36.6484C23.5135 36.956 23.1136 37.1714 22.6522 37.3252C22.1907 37.479 21.6678 37.5559 21.0986 37.5559H14.8384V35.9562H15.9766V27.5887H14.8384V26.0352H23.7596V28.8807L23.7443 28.8961ZM18.3607 32.1108V35.9716H20.5603C21.0833 35.9716 21.5293 35.787 21.8677 35.4332C22.2061 35.0795 22.3907 34.5873 22.3907 33.9874C22.3907 33.3414 22.2061 32.8645 21.837 32.5723C21.4678 32.28 20.991 32.1262 20.4219 32.1262H18.3607V32.1108Z" fill="white"/>
<path d="M59.6754 65.1806C59.6754 65.5959 59.6139 66.0112 59.4755 66.4418C59.337 66.8725 59.1217 67.2571 58.8141 67.5955C58.5064 67.9338 58.1219 68.2107 57.6605 68.4261C57.1836 68.6414 56.6145 68.7491 55.9531 68.7491H53.7689V71.61H55.2609V73.2097H50.2466V71.61H51.3694V63.2579H50.2466V61.6582H55.7224C57.0298 61.6582 58.0142 61.9812 58.6756 62.6119C59.337 63.2425 59.6601 64.1039 59.6601 65.1652L59.6754 65.1806ZM53.7689 63.2733V67.1955H55.3379C55.584 67.1955 55.8147 67.1648 56.0454 67.0879C56.2761 67.011 56.4607 66.9033 56.6299 66.7495C56.7991 66.5957 56.9221 66.3957 57.0144 66.1496C57.1067 65.9035 57.1529 65.6112 57.1529 65.2575C57.1529 64.5807 56.9837 64.0731 56.6607 63.7501C56.3377 63.4271 55.8762 63.2733 55.2763 63.2733H53.7689Z" fill="white"/>
<rect x="39.6216" y="0.527344" width="35.1904" height="48.5332" fill="white"/>
<rect x="0.0268555" y="51.2129" width="35.1904" height="47.7637" fill="white"/>
</svg>
