<svg width="370" height="371" viewBox="0 0 370 371" fill="none" xmlns="http://www.w3.org/2000/svg">
<path d="M58.9041 272.459C56.3441 272.459 54.3441 271.699 52.9041 270.179C51.4641 268.659 50.7441 266.499 50.7441 263.699C50.7441 261.859 51.0561 260.283 51.6801 258.971C52.3201 257.643 53.2081 256.643 54.3441 255.971C55.4961 255.283 56.8241 254.939 58.3281 254.939C59.2401 254.939 60.1601 255.203 61.0881 255.731C61.4401 255.923 61.7921 256.179 62.1441 256.499C62.4161 256.083 62.6961 255.755 62.9841 255.515C63.2721 255.307 63.4321 255.195 63.4641 255.179H64.0641V259.739H63.1041C62.8961 258.971 62.5841 258.275 62.1681 257.651C61.7841 257.043 61.3041 256.539 60.7281 256.139C60.1681 255.739 59.5201 255.539 58.7841 255.539C57.6801 255.539 56.7601 256.179 56.0241 257.459C55.3041 258.739 54.9441 260.819 54.9441 263.699C54.9441 266.627 55.3361 268.723 56.1201 269.987C56.9201 271.235 58.0081 271.859 59.3841 271.859C60.1361 271.859 60.8481 271.651 61.5201 271.235C62.2081 270.803 62.7601 270.235 63.1761 269.531C63.6081 268.827 63.8241 268.083 63.8241 267.299H64.4241C64.4241 268.211 64.1761 269.067 63.6801 269.867C63.2001 270.651 62.5361 271.283 61.6881 271.763C60.8561 272.227 59.9281 272.459 58.9041 272.459ZM68.0447 271.739L69.4847 271.379V260.699H67.6847C67.6847 261.579 67.4207 262.467 66.8927 263.363C66.6847 263.699 66.4287 264.011 66.1247 264.299H65.4047V260.099H77.4047V264.299H76.6847C76.3807 264.027 76.1167 263.715 75.8927 263.363C75.3807 262.499 75.1247 261.611 75.1247 260.699H73.3247V271.379L74.7647 271.739V272.099H68.0447V271.739ZM78.72 276.539L80.16 276.179V260.819L78.72 260.459V260.099H80.88C81.824 260.099 82.568 260.403 83.112 261.011C83.32 261.251 83.496 261.547 83.64 261.899C83.848 261.483 84.112 261.123 84.432 260.819C85.152 260.099 86.048 259.739 87.12 259.739C88.064 259.739 88.904 259.987 89.64 260.483C90.376 260.963 90.96 261.683 91.392 262.643C91.824 263.587 92.04 264.739 92.04 266.099C92.04 268.147 91.56 269.723 90.6 270.827C89.656 271.915 88.376 272.459 86.76 272.459C85.992 272.459 85.32 272.299 84.744 271.979C84.504 271.867 84.256 271.707 84 271.499V276.179L85.44 276.539V276.899H78.72V276.539ZM85.8 271.739C86.488 271.739 87.016 271.339 87.384 270.539C87.768 269.739 87.96 268.259 87.96 266.099C87.96 264.035 87.784 262.603 87.432 261.803C87.096 260.987 86.672 260.579 86.16 260.579C85.552 260.579 85.008 260.899 84.528 261.539C84.32 261.811 84.144 262.131 84 262.499V270.779C84.224 271.003 84.4 271.163 84.528 271.259C84.96 271.579 85.384 271.739 85.8 271.739ZM98.64 272.459C97.216 272.459 96.12 272.155 95.352 271.547C94.584 270.939 94.2 270.163 94.2 269.219C94.2 268.595 94.336 267.979 94.608 267.371C94.72 267.083 94.864 266.819 95.04 266.579C95.696 266.419 96.408 266.275 97.176 266.147C98.904 265.859 100.432 265.683 101.76 265.619V264.899C101.76 263.123 101.544 261.899 101.112 261.227C100.68 260.555 100.016 260.219 99.12 260.219C98.784 260.219 98.496 260.259 98.256 260.339L97.92 260.459V264.059L97.608 264.131C97.352 264.163 97.136 264.179 96.96 264.179C96.416 264.179 95.976 264.019 95.64 263.699C95.32 263.363 95.16 262.923 95.16 262.379C95.16 261.643 95.528 261.019 96.264 260.507C97.016 259.995 98.128 259.739 99.6 259.739C100.848 259.739 101.92 259.963 102.816 260.411C103.728 260.843 104.416 261.451 104.88 262.235C105.36 263.003 105.6 263.891 105.6 264.899V271.379L107.04 271.739V272.099H104.88C103.92 272.099 103.176 271.803 102.648 271.211C102.424 270.971 102.248 270.667 102.12 270.299C101.896 270.699 101.632 271.059 101.328 271.379C100.608 272.099 99.712 272.459 98.64 272.459ZM99.6 271.619C100.192 271.619 100.728 271.299 101.208 270.659C101.384 270.419 101.568 270.099 101.76 269.699V266.219C101.024 266.219 100.32 266.259 99.648 266.339C99.152 266.403 98.816 266.443 98.64 266.459C98.56 266.635 98.48 266.875 98.4 267.179C98.24 267.787 98.16 268.387 98.16 268.979C98.16 269.875 98.296 270.539 98.568 270.971C98.84 271.403 99.184 271.619 99.6 271.619ZM108.491 272.099V271.739L109.931 271.379V260.819L108.491 260.459V260.099H115.211V260.459L113.771 260.819V265.739H117.371V260.819L115.931 260.459V260.099H122.651V260.459L121.211 260.819V271.379L122.651 271.739V272.099H115.931V271.739L117.371 271.379V266.339H113.771V271.379L115.211 271.739V272.099H108.491ZM124.569 272.099V271.739L126.009 271.379V260.819L124.569 260.459V260.099H131.289V260.459L129.849 260.819V268.739L133.689 262.139V260.819L132.249 260.459V260.099H138.969V260.459L137.529 260.819V271.379L138.969 271.739V272.099H132.249V271.739L133.689 271.379V263.459L129.849 270.059V271.379L131.289 271.739V272.099H124.569ZM155.042 276.059C154.626 275.787 154.282 275.459 154.01 275.075C153.338 274.211 153.002 273.219 153.002 272.099H140.882V271.739L142.322 271.379V260.819L140.882 260.459V260.099H147.602V260.459L146.162 260.819V271.499H149.762V260.819L148.322 260.459V260.099H155.042V260.459L153.602 260.819V271.499H155.762V276.059H155.042ZM161.757 272.459C160.333 272.459 159.237 272.155 158.469 271.547C157.701 270.939 157.317 270.163 157.317 269.219C157.317 268.595 157.453 267.979 157.725 267.371C157.837 267.083 157.981 266.819 158.157 266.579C158.813 266.419 159.525 266.275 160.293 266.147C162.021 265.859 163.549 265.683 164.877 265.619V264.899C164.877 263.123 164.661 261.899 164.229 261.227C163.797 260.555 163.133 260.219 162.237 260.219C161.901 260.219 161.613 260.259 161.373 260.339L161.037 260.459V264.059L160.725 264.131C160.469 264.163 160.253 264.179 160.077 264.179C159.533 264.179 159.093 264.019 158.757 263.699C158.437 263.363 158.277 262.923 158.277 262.379C158.277 261.643 158.645 261.019 159.381 260.507C160.133 259.995 161.245 259.739 162.717 259.739C163.965 259.739 165.037 259.963 165.933 260.411C166.845 260.843 167.533 261.451 167.997 262.235C168.477 263.003 168.717 263.891 168.717 264.899V271.379L170.157 271.739V272.099H167.997C167.037 272.099 166.293 271.803 165.765 271.211C165.541 270.971 165.365 270.667 165.237 270.299C165.013 270.699 164.749 271.059 164.445 271.379C163.725 272.099 162.829 272.459 161.757 272.459ZM162.717 271.619C163.309 271.619 163.845 271.299 164.325 270.659C164.501 270.419 164.685 270.099 164.877 269.699V266.219C164.141 266.219 163.437 266.259 162.765 266.339C162.269 266.403 161.933 266.443 161.757 266.459C161.677 266.635 161.597 266.875 161.517 267.179C161.357 267.787 161.277 268.387 161.277 268.979C161.277 269.875 161.413 270.539 161.685 270.971C161.957 271.403 162.301 271.619 162.717 271.619ZM178.335 272.099V271.739L179.775 271.379V260.819L178.335 260.459V260.099H185.055V260.459L183.615 260.819V265.739H187.215V260.819L185.775 260.459V260.099H192.495V260.459L191.055 260.819V271.379L192.495 271.739V272.099H185.775V271.739L187.215 271.379V266.339H183.615V271.379L185.055 271.739V272.099H178.335ZM200.893 272.459C198.845 272.459 197.253 271.899 196.117 270.779C194.981 269.643 194.413 268.083 194.413 266.099C194.413 264.803 194.661 263.675 195.157 262.715C195.653 261.755 196.341 261.019 197.221 260.507C198.117 259.995 199.141 259.739 200.293 259.739C201.445 259.739 202.453 259.955 203.317 260.387C204.197 260.819 204.869 261.403 205.333 262.139C205.813 262.859 206.053 263.659 206.053 264.539C206.053 264.939 206.013 265.283 205.933 265.571L205.813 265.979C205.125 266.123 204.381 266.243 203.581 266.339C201.901 266.579 200.205 266.699 198.493 266.699C198.493 268.555 198.749 269.883 199.261 270.683C199.773 271.467 200.477 271.859 201.373 271.859C201.997 271.859 202.573 271.715 203.101 271.427C203.645 271.123 204.069 270.731 204.373 270.251C204.693 269.755 204.853 269.251 204.853 268.739H205.453C205.453 269.379 205.261 269.987 204.877 270.563C204.493 271.139 203.957 271.603 203.269 271.955C202.581 272.291 201.789 272.459 200.893 272.459ZM198.493 266.099C199.517 266.099 200.349 266.059 200.989 265.979C201.261 265.963 201.549 265.923 201.853 265.859C201.869 265.779 201.909 265.603 201.973 265.331C202.053 264.931 202.093 264.507 202.093 264.059C202.093 262.731 201.917 261.763 201.565 261.155C201.213 260.531 200.789 260.219 200.293 260.219C199.093 260.219 198.493 262.179 198.493 266.099ZM214.569 272.099V271.739L216.009 271.379V260.819L214.569 260.459V260.099H221.289V260.459L219.849 260.819V265.739H223.449V260.819L222.009 260.459V260.099H228.729V260.459L227.289 260.819V271.379L228.729 271.739V272.099H222.009V271.739L223.449 271.379V266.339H219.849V271.379L221.289 271.739V272.099H214.569ZM235.328 272.459C233.904 272.459 232.808 272.155 232.04 271.547C231.272 270.939 230.888 270.163 230.888 269.219C230.888 268.595 231.024 267.979 231.296 267.371C231.408 267.083 231.552 266.819 231.728 266.579C232.384 266.419 233.096 266.275 233.864 266.147C235.592 265.859 237.12 265.683 238.448 265.619V264.899C238.448 263.123 238.232 261.899 237.8 261.227C237.368 260.555 236.704 260.219 235.808 260.219C235.472 260.219 235.184 260.259 234.944 260.339L234.608 260.459V264.059L234.296 264.131C234.04 264.163 233.824 264.179 233.648 264.179C233.104 264.179 232.664 264.019 232.328 263.699C232.008 263.363 231.848 262.923 231.848 262.379C231.848 261.643 232.216 261.019 232.952 260.507C233.704 259.995 234.816 259.739 236.288 259.739C237.536 259.739 238.608 259.963 239.504 260.411C240.416 260.843 241.104 261.451 241.568 262.235C242.048 263.003 242.288 263.891 242.288 264.899V271.379L243.728 271.739V272.099H241.568C240.608 272.099 239.864 271.803 239.336 271.211C239.112 270.971 238.936 270.667 238.808 270.299C238.584 270.699 238.32 271.059 238.016 271.379C237.296 272.099 236.4 272.459 235.328 272.459ZM236.288 271.619C236.88 271.619 237.416 271.299 237.896 270.659C238.072 270.419 238.256 270.099 238.448 269.699V266.219C237.712 266.219 237.008 266.259 236.336 266.339C235.84 266.403 235.504 266.443 235.328 266.459C235.248 266.635 235.168 266.875 235.088 267.179C234.928 267.787 234.848 268.387 234.848 268.979C234.848 269.875 234.984 270.539 235.256 270.971C235.528 271.403 235.872 271.619 236.288 271.619ZM252.379 258.419C251.147 258.419 250.235 258.227 249.643 257.843C249.067 257.459 248.779 256.971 248.779 256.379C248.779 255.963 248.915 255.619 249.187 255.347C249.459 255.075 249.803 254.939 250.219 254.939C250.251 254.939 250.435 254.963 250.771 255.011L251.059 255.059V257.699C251.075 257.699 251.187 257.739 251.395 257.819C251.619 257.899 251.947 257.939 252.379 257.939C252.811 257.939 253.131 257.899 253.339 257.819C253.563 257.739 253.683 257.699 253.699 257.699V255.059L253.987 255.011C254.323 254.963 254.507 254.939 254.539 254.939C254.955 254.939 255.299 255.075 255.571 255.347C255.843 255.619 255.979 255.963 255.979 256.379C255.979 256.971 255.683 257.459 255.091 257.843C254.515 258.227 253.611 258.419 252.379 258.419ZM245.179 272.099V271.739L246.619 271.379V260.819L245.179 260.459V260.099H251.899V260.459L250.459 260.819V268.739L254.299 262.139V260.819L252.859 260.459V260.099H259.579V260.459L258.139 260.819V271.379L259.579 271.739V272.099H252.859V271.739L254.299 271.379V263.459L250.459 270.059V271.379L251.899 271.739V272.099H245.179ZM260.291 271.499H262.211C262.467 271.323 262.747 271.043 263.051 270.659C263.611 269.955 263.931 269.075 264.011 268.019L264.491 260.939L262.811 260.459V260.099H274.211V260.459L272.771 260.819V271.499H274.931V276.059H274.211C273.795 275.787 273.451 275.459 273.179 275.075C272.507 274.211 272.171 273.219 272.171 272.099H263.051C263.051 273.203 262.707 274.195 262.019 275.075C261.747 275.459 261.411 275.787 261.011 276.059H260.291V271.499ZM268.931 271.499V260.699H265.211L264.731 268.019C264.651 269.027 264.347 269.907 263.819 270.659C263.579 270.995 263.323 271.275 263.051 271.499H268.931ZM282.737 272.459C280.689 272.459 279.097 271.899 277.961 270.779C276.825 269.643 276.257 268.083 276.257 266.099C276.257 264.803 276.505 263.675 277.001 262.715C277.497 261.755 278.185 261.019 279.065 260.507C279.961 259.995 280.985 259.739 282.137 259.739C283.289 259.739 284.297 259.955 285.161 260.387C286.041 260.819 286.713 261.403 287.177 262.139C287.657 262.859 287.897 263.659 287.897 264.539C287.897 264.939 287.857 265.283 287.777 265.571L287.657 265.979C286.969 266.123 286.225 266.243 285.425 266.339C283.745 266.579 282.049 266.699 280.337 266.699C280.337 268.555 280.593 269.883 281.105 270.683C281.617 271.467 282.321 271.859 283.217 271.859C283.841 271.859 284.417 271.715 284.945 271.427C285.489 271.123 285.913 270.731 286.217 270.251C286.537 269.755 286.697 269.251 286.697 268.739H287.297C287.297 269.379 287.105 269.987 286.721 270.563C286.337 271.139 285.801 271.603 285.113 271.955C284.425 272.291 283.633 272.459 282.737 272.459ZM280.337 266.099C281.361 266.099 282.193 266.059 282.833 265.979C283.105 265.963 283.393 265.923 283.697 265.859C283.713 265.779 283.753 265.603 283.817 265.331C283.897 264.931 283.937 264.507 283.937 264.059C283.937 262.731 283.761 261.763 283.409 261.155C283.057 260.531 282.633 260.219 282.137 260.219C280.937 260.219 280.337 262.179 280.337 266.099ZM289.687 272.099V271.739L291.127 271.379V260.819L289.687 260.459V260.099H296.407V260.459L294.967 260.819V265.739H298.567V260.819L297.127 260.459V260.099H303.847V260.459L302.407 260.819V271.379L303.847 271.739V272.099H297.127V271.739L298.567 271.379V266.339H294.967V271.379L296.407 271.739V272.099H289.687ZM310.445 272.459C309.021 272.459 307.925 272.155 307.157 271.547C306.389 270.939 306.005 270.163 306.005 269.219C306.005 268.595 306.141 267.979 306.413 267.371C306.525 267.083 306.669 266.819 306.845 266.579C307.501 266.419 308.213 266.275 308.981 266.147C310.709 265.859 312.237 265.683 313.565 265.619V264.899C313.565 263.123 313.349 261.899 312.917 261.227C312.485 260.555 311.821 260.219 310.925 260.219C310.589 260.219 310.301 260.259 310.061 260.339L309.725 260.459V264.059L309.413 264.131C309.157 264.163 308.941 264.179 308.765 264.179C308.221 264.179 307.781 264.019 307.445 263.699C307.125 263.363 306.965 262.923 306.965 262.379C306.965 261.643 307.333 261.019 308.069 260.507C308.821 259.995 309.933 259.739 311.405 259.739C312.653 259.739 313.725 259.963 314.621 260.411C315.533 260.843 316.221 261.451 316.685 262.235C317.165 263.003 317.405 263.891 317.405 264.899V271.379L318.845 271.739V272.099H316.685C315.725 272.099 314.981 271.803 314.453 271.211C314.229 270.971 314.053 270.667 313.925 270.299C313.701 270.699 313.437 271.059 313.133 271.379C312.413 272.099 311.517 272.459 310.445 272.459ZM311.405 271.619C311.997 271.619 312.533 271.299 313.013 270.659C313.189 270.419 313.373 270.099 313.565 269.699V266.219C312.829 266.219 312.125 266.259 311.453 266.339C310.957 266.403 310.621 266.443 310.445 266.459C310.365 266.635 310.285 266.875 310.205 267.179C310.045 267.787 309.965 268.387 309.965 268.979C309.965 269.875 310.101 270.539 310.373 270.971C310.645 271.403 310.989 271.619 311.405 271.619Z" fill="#1E2633"/>
<path d="M27.6523 190.031V193.031H30.6523H79.3746V211.338V214.338H82.3746H98.0884H101.088V211.338V193.031H112.524H115.524V190.031V176.075V173.075H112.524H101.088V102.247V99.2471H98.0884H91.2873H88.2873H82.4812H79.4812H77.7937H76.1422L75.2589 100.642L28.1176 175.11L27.6523 175.845V176.714V190.031ZM79.4812 173.075H52.8162L79.4812 130.866V173.075Z" stroke="#1E2633" stroke-width="6"/>
<path d="M247.98 190.031V193.031H250.98H299.703V211.338V214.338H302.703H318.417H321.417V211.338V193.031H332.852H335.852V190.031V176.075V173.075H332.852H321.417V102.247V99.2471H318.417H311.615H308.615H302.809H299.809H298.122H296.47L295.587 100.642L248.446 175.11L247.98 175.845V176.714V190.031ZM299.809 173.075H273.144L299.809 130.866V173.075Z" stroke="#1E2633" stroke-width="6"/>
<rect x="36.9492" y="166.496" width="6.01953" height="28.6369" transform="rotate(-147.357 36.9492 166.496)" fill="#F0F0F0"/>
<rect x="35.7507" y="163.096" width="1.72479" height="1.48026" transform="rotate(122.643 35.7507 163.096)" stroke="#1E2633"/>
<rect x="49.7194" y="141.206" width="1.72479" height="1.48026" transform="rotate(122.643 49.7194 141.206)" stroke="#1E2633"/>
<path d="M47.3008 142.264L34.7622 161.907" stroke="#1E2633"/>
<path d="M48.7617 143.135L36.2205 162.843" stroke="#1E2633" stroke-width="0.5"/>
<rect x="257.277" y="166.496" width="6.01953" height="28.6369" transform="rotate(-147.357 257.277 166.496)" fill="#F0F0F0"/>
<rect x="256.079" y="163.096" width="1.72479" height="1.48026" transform="rotate(122.643 256.079 163.096)" stroke="#1E2633"/>
<rect x="270.048" y="141.206" width="1.72479" height="1.48026" transform="rotate(122.643 270.048 141.206)" stroke="#1E2633"/>
<path d="M267.629 142.264L255.09 161.907" stroke="#1E2633"/>
<path d="M269.09 143.135L256.549 162.843" stroke="#1E2633" stroke-width="0.5"/>
<rect x="57.4688" y="133.996" width="6.01953" height="28.6369" transform="rotate(-147.357 57.4688 133.996)" fill="#F0F0F0"/>
<rect x="56.2702" y="130.596" width="1.72479" height="1.48026" transform="rotate(122.643 56.2702 130.596)" stroke="#1E2633"/>
<rect x="70.239" y="108.706" width="1.72479" height="1.48026" transform="rotate(122.643 70.239 108.706)" stroke="#1E2633"/>
<path d="M67.8203 109.764L55.2817 129.407" stroke="#1E2633"/>
<path d="M69.2812 110.635L56.74 130.343" stroke="#1E2633" stroke-width="0.5"/>
<rect x="277.797" y="133.996" width="6.01953" height="28.6369" transform="rotate(-147.357 277.797 133.996)" fill="#F0F0F0"/>
<rect x="276.598" y="130.596" width="1.72479" height="1.48026" transform="rotate(122.643 276.598 130.596)" stroke="#1E2633"/>
<rect x="290.567" y="108.706" width="1.72479" height="1.48026" transform="rotate(122.643 290.567 108.706)" stroke="#1E2633"/>
<path d="M288.148 109.764L275.61 129.407" stroke="#1E2633"/>
<path d="M289.609 110.635L277.068 130.343" stroke="#1E2633" stroke-width="0.5"/>
<rect x="62.9414" y="189.999" width="6.01953" height="21.8437" transform="rotate(89.9942 62.9414 189.999)" fill="#F0F0F0"/>
<rect x="60.7071" y="192.815" width="1.72479" height="1.48026" stroke="#1E2633"/>
<rect x="41.5313" y="192.886" width="1.72479" height="1.48026" stroke="#1E2633"/>
<path d="M43.7109 194.354L60.4653 194.29" stroke="#1E2633"/>
<path d="M43.6758 192.653L60.4698 192.558" stroke="#1E2633" stroke-width="0.5"/>
<rect x="283.27" y="189.999" width="6.01953" height="21.8437" transform="rotate(89.9942 283.27 189.999)" fill="#F0F0F0"/>
<rect x="281.035" y="192.815" width="1.72479" height="1.48026" stroke="#1E2633"/>
<rect x="261.859" y="192.886" width="1.72479" height="1.48026" stroke="#1E2633"/>
<path d="M264.039 194.354L280.793 194.29" stroke="#1E2633"/>
<path d="M264.004 192.653L280.798 192.558" stroke="#1E2633" stroke-width="0.5"/>
<rect x="98.0703" y="122.14" width="6.01953" height="20.2538" fill="#F0F0F0"/>
<rect x="98.5703" y="141.894" width="2.57227" height="5.01953" transform="rotate(-90 98.5703 141.894)" stroke="#1E2633"/>
<rect x="104.59" y="141.894" width="2.57227" height="13.9297" transform="rotate(-90 104.59 141.894)" stroke="#1E2633"/>
<rect x="98.5703" y="125.205" width="2.56543" height="5.01953" transform="rotate(-90 98.5703 125.205)" stroke="#1E2633"/>
<path d="M101.082 139.284L101.082 125.279" stroke="#1E2633"/>
<path d="M118.006 139.239C118.006 131.554 111.775 125.323 104.09 125.323" stroke="#1E2633"/>
<rect x="318.398" y="122.14" width="6.01953" height="20.2538" fill="#F0F0F0"/>
<rect x="318.898" y="141.894" width="2.57227" height="5.01953" transform="rotate(-90 318.898 141.894)" stroke="#1E2633"/>
<rect x="324.918" y="141.894" width="2.57227" height="13.9297" transform="rotate(-90 324.918 141.894)" stroke="#1E2633"/>
<rect x="318.898" y="125.205" width="2.56543" height="5.01953" transform="rotate(-90 318.898 125.205)" stroke="#1E2633"/>
<path d="M321.41 139.284L321.41 125.279" stroke="#1E2633"/>
<path d="M338.334 139.239C338.334 131.554 332.104 125.323 324.418 125.323" stroke="#1E2633"/>
<rect x="131.98" y="96.6187" width="99.5" height="115.75" rx="28" stroke="#1E2633" stroke-width="6"/>
<rect x="162.73" y="132.106" width="37.9978" height="44.7747" rx="5" stroke="#1E2633" stroke-width="6"/>
<rect x="191.855" y="173.646" width="6.01953" height="20.2538" transform="rotate(90 191.855 173.646)" fill="#F0F0F0"/>
<rect x="172.102" y="174.146" width="2.57227" height="5.01953" stroke="#1E2633"/>
<rect x="172.102" y="180.166" width="2.57227" height="13.9297" stroke="#1E2633"/>
<rect x="188.789" y="174.146" width="2.56543" height="5.01953" stroke="#1E2633"/>
<path d="M174.711 176.658L188.716 176.658" stroke="#1E2633"/>
<path d="M174.756 193.581C182.441 193.581 188.672 187.351 188.672 179.666" stroke="#1E2633"/>
<rect x="228.504" y="128.694" width="6.01953" height="20.2538" fill="#F0F0F0"/>
<rect x="229.004" y="148.448" width="2.57227" height="5.01953" transform="rotate(-90 229.004 148.448)" stroke="#1E2633"/>
<rect x="235.023" y="148.448" width="2.57227" height="13.9297" transform="rotate(-90 235.023 148.448)" stroke="#1E2633"/>
<rect x="229.004" y="131.76" width="2.56543" height="5.01953" transform="rotate(-90 229.004 131.76)" stroke="#1E2633"/>
<path d="M231.516 145.838L231.516 131.833" stroke="#1E2633"/>
<path d="M248.439 145.794C248.439 138.108 242.209 131.878 234.523 131.878" stroke="#1E2633"/>
<rect x="170.758" y="99.6382" width="6.01953" height="21.8437" transform="rotate(-90 170.758 99.6382)" fill="#F0F0F0"/>
<rect x="172.992" y="96.8228" width="1.72479" height="1.48026" transform="rotate(-180 172.992 96.8228)" stroke="#1E2633"/>
<rect x="192.168" y="96.7532" width="1.72479" height="1.48026" transform="rotate(-180 192.168 96.7532)" stroke="#1E2633"/>
<path d="M189.988 95.2856L173.234 95.3472" stroke="#1E2633"/>
<path d="M190.023 96.9861L173.229 97.0798" stroke="#1E2633" stroke-width="0.5"/>
<rect x="228.504" y="155" width="6.01953" height="28.6369" fill="#F0F0F0"/>
<rect x="231.344" y="157.219" width="1.72479" height="1.48026" transform="rotate(-90 231.344 157.219)" stroke="#1E2633"/>
<rect x="231.387" y="183.186" width="1.72479" height="1.48026" transform="rotate(-90 231.387 183.186)" stroke="#1E2633"/>
<path d="M232.855 180.99L232.818 157.686" stroke="#1E2633"/>
<path d="M231.156 181.043L231.087 157.684" stroke="#1E2633" stroke-width="0.5"/>
</svg>
