<svg width="65" height="65" viewBox="0 0 65 65" fill="none" xmlns="http://www.w3.org/2000/svg">
<path d="M18.6211 53.8816V27.1944L59.3762 20.479V45.0304L18.6211 53.8816Z" stroke="black" stroke-linejoin="bevel"/>
<path d="M12.832 23.6628V48.8452L14.2218 50.0609V24.6471" stroke="black" stroke-linejoin="bevel"/>
<path d="M13.9024 49.9161L15.5817 49.6846L17.0581 50.9292" stroke="black" stroke-linejoin="bevel"/>
<path d="M9.30078 20.884V46.0664L10.6905 47.2821V21.8683" stroke="black" stroke-linejoin="bevel"/>
<path d="M10.3711 47.1373L12.0504 46.9058L12.8324 47.5716" stroke="black" stroke-linejoin="bevel"/>
<path d="M5.76758 18.887V42.9618L7.15734 44.1775V19.8712" stroke="black" stroke-linejoin="bevel"/>
<path d="M6.83984 44.0328L8.51916 43.8013L9.12843 44.3008" stroke="black" stroke-linejoin="bevel"/>
<path d="M18.7946 27.3092L16.653 25.9198L17.9843 25.6593L15.8134 24.4146L14.5691 24.6461L12.6585 23.3726L14.0764 23.112L12.2529 21.8383L10.7764 22.1279L9.00444 20.9777L10.481 20.6015L8.89589 19.6676L7.59336 19.8702L5.625 18.6545L43.0511 12.8375" stroke="black" stroke-linejoin="bevel"/>
<path d="M26.959 21.6079L21.7773 22.5342L24.3536 23.6629L29.39 22.7077L26.959 21.6079Z" stroke="black" stroke-linejoin="bevel"/>
<path d="M45.7441 18.5977L40.5625 19.5239L43.1387 20.6527L48.1752 19.6975L45.7441 18.5977Z" stroke="black" stroke-linejoin="bevel"/>
<path d="M21.082 18.4241L15.9004 19.3503L18.4766 20.4791L23.5131 19.5239L21.082 18.4241Z" stroke="black" stroke-linejoin="bevel"/>
<path d="M39.8672 15.4138L34.6855 16.3401L37.2618 17.4688L42.2982 16.5136L39.8672 15.4138Z" stroke="black" stroke-linejoin="bevel"/>
<path d="M42.7382 12.7745L45.2562 13.9676L43.8506 14.4386L46.3798 15.4715L47.6953 15.0441L49.9466 16.1453L48.4471 16.6287L50.6041 17.7424L52.1629 17.2193L53.8986 18.039L52.3521 18.6556L54.5502 19.6049L55.9328 19.2005L58.7246 20.479" stroke="black" stroke-linejoin="bevel"/>
<path d="M17 26.4417V52.666L18.4468 53.8816" stroke="black" stroke-linejoin="bevel"/>
<path d="M38.9233 46.8841C38.8816 46.6763 38.5073 39.9017 39.879 36.0365C40.9763 32.9443 42.9961 30.9521 43.8689 30.3425" stroke="#6EA9CE" stroke-linejoin="bevel"/>
<path d="M33.918 37.2612C35.331 38.1063 38.8458 39.9857 38.8458 43.6618" stroke="#6EA9CE" stroke-linejoin="bevel"/>
<path d="M39.0703 40.9604C39.0703 40.9604 40.999 39.5151 45.3428 39.1089" stroke="#6EA9CE" stroke-linejoin="bevel"/>
<path d="M34.5703 32.7824C36.9393 35.3177 36.6847 36.6973 37.1142 39.0524L36.6254 39.6714C35.8357 39.8515 32.9213 40.5547 29.9955 38.4267C27.0696 36.2988 27.1811 32.3056 27.7214 30.4907C28.8158 30.5184 33.1982 31.3141 34.5703 32.7824Z" stroke="#6EA9CE" stroke-linejoin="bevel"/>
<path d="M42.0227 27.5093C39.7803 29.3201 39.0696 32.8888 39.6752 35.1855L40.1756 35.7394C40.7569 35.8134 42.9385 36.1696 44.8438 34.9214C48.417 32.5804 47.7032 29.2128 47.7331 25.4769C46.7639 25.3999 44.265 25.6985 42.0227 27.5093Z" stroke="#6EA9CE" stroke-linejoin="bevel"/>
<path d="M49.1124 38.4228C48.963 38.0912 46.2486 37.4007 45.2072 37.4023C43.2559 37.4052 41.3251 38.0672 40.8415 40.0279C41.4215 40.9883 42.9349 41.9124 44.7694 41.6999C46.9734 41.4446 48.7224 39.0504 49.1124 38.4228Z" stroke="#6EA9CE" stroke-linejoin="bevel"/>
</svg>
