<svg width="31" height="31" viewBox="0 0 31 31" fill="none" xmlns="http://www.w3.org/2000/svg">
<path d="M14.1463 5.11165L2.7372 10.906C2.44412 11.0549 2.44185 11.4727 2.73329 11.6247L14.1308 17.5703C14.5945 17.8122 15.1466 17.8148 15.6126 17.5773L27.2897 11.6265C27.5857 11.4757 27.5834 11.052 27.2858 10.9043L15.5969 5.10486C15.1394 4.87788 14.6016 4.8804 14.1463 5.11165Z" fill="#8A8A8A"/>
<path d="M13.6513 19.261L6.28076 15.4043V20.8841C6.28076 21.181 6.4435 21.454 6.70465 21.5952L13.6612 25.3566C14.4809 25.7998 15.4663 25.811 16.2958 25.3864L23.1195 21.8943C23.3896 21.7561 23.5596 21.4782 23.5596 21.1747V15.4043L16.2868 19.2546C15.4629 19.6907 14.4772 19.6931 13.6513 19.261Z" fill="#8A8A8A"/>
<path d="M24.52 22.2908V12.0192L25.9347 11.5645L25.499 22.3107C25.4884 22.5732 25.2724 22.7805 25.0097 22.7805C24.7393 22.7805 24.52 22.5613 24.52 22.2908Z" fill="#8A8A8A"/>
</svg>
