<svg width="631" height="554" viewBox="0 0 631 554" fill="none" xmlns="http://www.w3.org/2000/svg">
<mask id="mask0_1524_137" style="mask-type:alpha" maskUnits="userSpaceOnUse" x="0" y="0" width="1228" height="554">
<rect x="0.755981" y="0.927734" width="1226.96" height="553.072" fill="#D9D9D9"/>
</mask>
<g mask="url(#mask0_1524_137)">
<path d="M0.756015 0.928163L0.756063 554L19.1306 554L19.1306 11.5374L0.756015 0.928163Z" fill="#899A4D" fill-opacity="0.74"/>
<path d="M50.7399 29.8022L50.74 582.874L69.1145 582.874L69.1145 40.4114L50.7399 29.8022Z" fill="#899A4D" fill-opacity="0.74"/>
<path d="M100.724 58.6762L100.724 611.748L119.099 611.748L119.098 69.2854L100.724 58.6762Z" fill="#899A4D" fill-opacity="0.74"/>
<path d="M150.708 87.5502L150.708 640.622L169.083 640.622L169.082 98.1594L150.708 87.5502Z" fill="#899A4D" fill-opacity="0.74"/>
<path d="M200.692 116.424L200.692 669.496L219.066 669.496L219.066 127.033L200.692 116.424Z" fill="#899A4D" fill-opacity="0.74"/>
<path d="M250.676 145.298L250.676 698.37L269.05 698.37L269.05 155.907L250.676 145.298Z" fill="#899A4D" fill-opacity="0.74"/>
<path d="M300.66 174.172L300.66 727.244L319.034 727.244L319.034 184.781L300.66 174.172Z" fill="#899A4D" fill-opacity="0.74"/>
<path d="M350.644 203.046L350.644 756.118L369.018 756.118L369.018 213.656L350.644 203.046Z" fill="#899A4D" fill-opacity="0.74"/>
<path d="M400.628 231.92L400.628 784.992L419.002 784.992L419.002 242.53L400.628 231.92Z" fill="#899A4D" fill-opacity="0.74"/>
<path d="M450.612 260.794L450.612 813.866L468.986 813.866L468.986 271.404L450.612 260.794Z" fill="#899A4D" fill-opacity="0.74"/>
<path d="M500.596 289.668L500.596 842.74L518.97 842.74L518.97 300.278L500.596 289.668Z" fill="#899A4D" fill-opacity="0.74"/>
<path d="M550.58 318.542L550.58 871.614L568.954 871.614L568.954 329.152L550.58 318.542Z" fill="#899A4D" fill-opacity="0.74"/>
<path d="M600.563 347.416L600.563 900.488L618.938 900.488L618.938 358.026L600.563 347.416Z" fill="#899A4D" fill-opacity="0.74"/>
</g>
</svg>
