<svg width="31" height="31" viewBox="0 0 31 31" fill="none" xmlns="http://www.w3.org/2000/svg">
<path fill-rule="evenodd" clip-rule="evenodd" d="M23.987 15.9801C23.4758 14.4578 22.2766 12.6164 20.5778 10.9177C18.8795 9.2193 17.0386 8.02025 15.5165 7.50888C14.2261 7.17794 13.3995 7.39349 12.9923 7.80065C12.5424 8.25061 12.3264 9.21287 12.8235 10.7473C13.3019 12.2241 14.3722 13.9535 15.9571 15.5385C17.5421 17.1234 19.2715 18.1937 20.7483 18.6721C22.2827 19.1692 23.245 18.9532 23.695 18.5033C24.102 18.0962 24.3176 17.27 23.987 15.9801ZM20.262 20.6158C20.2185 20.6025 20.1752 20.5888 20.1319 20.5748C18.2963 19.9801 16.304 18.7137 14.5429 16.9527C12.7819 15.1916 11.5155 13.1993 10.9208 11.3637C10.9068 11.3204 10.8931 11.2769 10.8797 11.2334C10.2072 12.7308 9.43061 14.5552 8.65263 16.4276C11.368 18.5207 14.2166 19.8971 16.728 20.4671C17.9387 20.742 19.0467 20.8257 20.0174 20.7253C20.0999 20.6885 20.1814 20.652 20.262 20.6158ZM6.91431 20.6749C7.34197 19.6164 7.79672 18.4997 8.2571 17.3833C11.0035 19.4576 13.8973 20.848 16.5044 21.4397C16.9558 21.5422 17.4018 21.6212 17.8392 21.6754C16.9714 22.047 16.0572 22.4316 15.1304 22.8168C12.6806 23.3368 9.82695 22.6561 6.91431 20.6749ZM6.53304 21.6209C6.35178 22.0718 6.17711 22.5077 6.01089 22.9237C5.36461 24.5411 6.95435 26.1309 8.5718 25.4846C9.7405 25.0176 11.0667 24.4839 12.438 23.9248C10.5246 23.7113 8.5186 22.935 6.53304 21.6209Z" fill="#8A8A8A"/>
<circle cx="19.6946" cy="5.85284" r="1.77472" fill="#8A8A8A"/>
<circle cx="25.929" cy="11.9603" r="1.77472" fill="#8A8A8A"/>
<circle cx="25.929" cy="5.85284" r="1.77472" fill="#8A8A8A"/>
</svg>
