<svg width="313" height="200" viewBox="0 0 313 200" fill="none" xmlns="http://www.w3.org/2000/svg">
<mask id="mask0_1329_15923" style="mask-type:alpha" maskUnits="userSpaceOnUse" x="0" y="0" width="313" height="200">
<rect y="0.0493164" width="312.05" height="199.31" fill="#D9D9D9"/>
</mask>
<g mask="url(#mask0_1329_15923)">
<path d="M1.01687 1.09702L1.0169 314.991L11.4453 314.991L11.4453 7.11823L1.01687 1.09702Z" fill="black" fill-opacity="0.06"/>
<path d="M29.3841 17.4842L29.3841 331.378L39.8125 331.378L39.8125 23.5054L29.3841 17.4842Z" fill="black" fill-opacity="0.06"/>
<path d="M57.7512 33.8717L57.7513 347.766L68.1797 347.766L68.1797 39.8929L57.7512 33.8717Z" fill="black" fill-opacity="0.06"/>
<path d="M86.1223 50.2589L86.1224 364.153L96.5508 364.153L96.5508 56.2801L86.1223 50.2589Z" fill="black" fill-opacity="0.06"/>
<path d="M114.486 66.6463L114.486 380.54L124.914 380.54L124.914 72.6675L114.486 66.6463Z" fill="black" fill-opacity="0.06"/>
<path d="M142.857 83.0338L142.857 396.928L153.285 396.928L153.285 89.055L142.857 83.0338Z" fill="black" fill-opacity="0.06"/>
<path d="M171.224 99.421L171.224 413.315L181.652 413.315L181.652 105.442L171.224 99.421Z" fill="black" fill-opacity="0.06"/>
<path d="M199.591 115.808L199.591 429.702L210.02 429.702L210.02 121.83L199.591 115.808Z" fill="black" fill-opacity="0.06"/>
<path d="M227.962 132.196L227.962 446.09L238.391 446.09L238.391 138.217L227.962 132.196Z" fill="black" fill-opacity="0.06"/>
<path d="M256.329 148.583L256.329 462.477L266.758 462.477L266.758 154.604L256.329 148.583Z" fill="black" fill-opacity="0.06"/>
<path d="M284.697 164.97L284.697 478.864L295.125 478.864L295.125 170.992L284.697 164.97Z" fill="black" fill-opacity="0.06"/>
</g>
</svg>
