<svg width="139" height="50" viewBox="0 0 139 50" fill="none" xmlns="http://www.w3.org/2000/svg">
<g clip-path="url(#clip0_1186_61428)">
<path d="M48.7429 36.0051V31.6911H49.6228V36.0051H48.7429ZM51.373 36.0051L49.6228 33.7535L51.2689 31.6816H52.3096L50.5877 33.7062L52.4326 35.9957H51.373V36.0051Z" fill="#1E2633"/>
<path d="M55.848 35.542C55.5642 35.8353 55.1385 36.0529 54.5519 36.0529C53.9653 36.0529 53.5491 35.8353 53.2653 35.542C52.8585 35.1163 52.7544 34.5676 52.7544 33.8391C52.7544 33.1106 52.8585 32.5714 53.2653 32.1456C53.5491 31.8524 53.9653 31.6348 54.5519 31.6348C55.1385 31.6348 55.5642 31.8524 55.848 32.1456C56.2548 32.5714 56.3589 33.1201 56.3589 33.8391C56.3589 34.5581 56.2548 35.1163 55.848 35.542ZM55.1952 32.6565C55.0344 32.4957 54.8073 32.4105 54.5614 32.4105C54.3154 32.4105 54.0883 32.4957 53.9275 32.6565C53.6626 32.9214 53.6342 33.3755 53.6342 33.8391C53.6342 34.3027 53.6721 34.7568 53.9275 35.0217C54.0883 35.1825 54.3059 35.2771 54.5614 35.2771C54.8168 35.2771 55.0344 35.1825 55.1952 35.0217C55.4601 34.7568 55.498 34.3027 55.498 33.8391C55.498 33.3755 55.4601 32.9214 55.1952 32.6565Z" fill="#1E2633"/>
<path d="M59.1401 32.4385V35.9957H58.2697V32.4385H56.8979V31.6816H60.4551V32.4385H59.1307H59.1401Z" fill="#1E2633"/>
<path d="M62.8865 32.4385V35.9957H62.0161V32.4385H60.6443V31.6816H64.2015V32.4385H62.877H62.8865Z" fill="#1E2633"/>
<path d="M65.6207 34.0945C65.6207 34.8419 66.0086 35.3055 66.7181 35.3055C67.2006 35.3055 67.456 35.173 67.7682 34.8608L68.317 35.3812C67.8723 35.8258 67.456 36.0529 66.6992 36.0529C65.6207 36.0529 64.7598 35.4852 64.7598 33.8391C64.7598 32.4295 65.4882 31.6348 66.5951 31.6348C67.702 31.6348 68.4305 32.4673 68.4305 33.7256V34.0945H65.6301H65.6207ZM67.4466 32.9025C67.3047 32.5808 67.0019 32.3538 66.5951 32.3538C66.1883 32.3538 65.8761 32.5714 65.7342 32.9025C65.6491 33.0917 65.6301 33.2241 65.6207 33.489H67.5601C67.5412 33.2241 67.5223 33.0917 67.4371 32.9025H67.4466Z" fill="#1E2633"/>
<path d="M72.7066 31.6816V35.2388H73.3026V37.1026H72.4701V35.9957H69.6698V37.1026H68.8467V35.2388H69.3103C69.5846 34.6901 69.8022 34.1036 69.8022 32.7791V31.6816H72.7161H72.7066ZM70.6158 33.1291C70.6158 34.1225 70.455 34.709 70.209 35.2388H71.8362V32.4385H70.6158V33.1291Z" fill="#1E2633"/>
<path d="M73.5488 36.0051L75.299 33.7157L73.6812 31.6911H74.6935L76.2545 33.763L74.5894 36.0146H73.5393L73.5488 36.0051ZM76.264 36.0051V31.6911H77.1438V36.0051H76.264ZM78.8089 36.0051L77.1533 33.7535L78.7237 31.6816H79.736L78.1183 33.7062L79.8685 35.9957H78.8183L78.8089 36.0051Z" fill="#1E2633"/>
<path d="M83.1418 36.0054V34.1701H81.4199V36.0054H80.5496V31.6914H81.4199V33.4132H83.1418V31.6914H84.0121V36.0054H83.1418Z" fill="#1E2633"/>
<path d="M87.3897 36.0054H85.384V31.6914H86.2544V33.3186H87.3897C88.2222 33.3186 88.7993 33.8673 88.7993 34.662C88.7993 35.4567 88.2317 36.0054 87.3897 36.0054ZM87.2478 34.0282H86.2639V35.2959H87.2478C87.683 35.2959 87.9384 35.0594 87.9384 34.6526C87.9384 34.2458 87.683 34.0187 87.2478 34.0187V34.0282ZM89.3953 36.0054V31.6914H90.2657V36.0054H89.3953Z" fill="#1E2633"/>
<path d="M94.4093 36.0054V33.0347L92.5645 36.0054H91.6941V31.6913H92.5645V34.6241L94.4093 31.6913H95.2797V36.0054H94.4093ZM93.4916 31.0858C92.801 31.0858 92.2239 30.7831 92.1766 29.9316H92.8672C92.905 30.329 93.1321 30.5087 93.4916 30.5087C93.8511 30.5087 94.0782 30.329 94.116 29.9316H94.8066C94.7688 30.7736 94.1822 31.0858 93.4916 31.0858Z" fill="#1E2633"/>
<path d="M101.287 36.0054V32.4483H99.5654V36.0054H98.6951V31.6914H102.158V36.0054H101.287Z" fill="#1E2633"/>
<path d="M106.387 35.542C106.103 35.8353 105.677 36.0529 105.09 36.0529C104.504 36.0529 104.088 35.8353 103.804 35.542C103.397 35.1163 103.293 34.5676 103.293 33.8391C103.293 33.1106 103.397 32.5714 103.804 32.1456C104.088 31.8524 104.504 31.6348 105.09 31.6348C105.677 31.6348 106.103 31.8524 106.387 32.1456C106.793 32.5714 106.897 33.1201 106.897 33.8391C106.897 34.5581 106.793 35.1163 106.387 35.542ZM105.734 32.6565C105.573 32.4957 105.346 32.4105 105.1 32.4105C104.854 32.4105 104.627 32.4957 104.466 32.6565C104.201 32.9214 104.173 33.3755 104.173 33.8391C104.173 34.3027 104.211 34.7568 104.466 35.0217C104.627 35.1825 104.845 35.2771 105.1 35.2771C105.355 35.2771 105.573 35.1825 105.734 35.0217C105.999 34.7568 106.037 34.3027 106.037 33.8391C106.037 33.3755 105.999 32.9214 105.734 32.6565Z" fill="#1E2633"/>
<path d="M109.773 36.0529C108.799 36.0529 107.853 35.4569 107.853 33.8391C107.853 32.2213 108.808 31.6348 109.773 31.6348C110.369 31.6348 110.786 31.8051 111.192 32.2402L110.596 32.8173C110.322 32.5241 110.114 32.4105 109.773 32.4105C109.433 32.4105 109.158 32.543 108.969 32.7984C108.78 33.0349 108.714 33.3471 108.714 33.8486C108.714 34.35 108.78 34.6622 108.969 34.9081C109.158 35.1541 109.442 35.2866 109.773 35.2866C110.104 35.2866 110.331 35.173 110.596 34.8798L111.192 35.4474C110.786 35.8826 110.369 36.0623 109.773 36.0623V36.0529Z" fill="#1E2633"/>
<path d="M112.706 34.0945C112.706 34.8419 113.094 35.3055 113.804 35.3055C114.286 35.3055 114.541 35.173 114.854 34.8608L115.402 35.3812C114.958 35.8258 114.541 36.0529 113.785 36.0529C112.706 36.0529 111.845 35.4852 111.845 33.8391C111.845 32.4295 112.574 31.6348 113.681 31.6348C114.787 31.6348 115.516 32.4673 115.516 33.7256V34.0945H112.716H112.706ZM114.532 32.9025C114.39 32.5808 114.087 32.3538 113.681 32.3538C113.274 32.3538 112.962 32.5714 112.82 32.9025C112.735 33.0917 112.716 33.2241 112.706 33.489H114.646C114.627 33.2241 114.608 33.0917 114.523 32.9025H114.532Z" fill="#1E2633"/>
<path d="M118.969 36.0054V32.4483H117.72V33.6971C117.72 35.5324 117.181 36.0054 116.339 36.0054H115.932V35.2391H116.065C116.443 35.2391 116.878 35.154 116.878 33.4889V31.6914H119.83V36.0054H118.96H118.969Z" fill="#1E2633"/>
<path d="M124.106 35.542C123.823 35.8353 123.397 36.0529 122.81 36.0529C122.224 36.0529 121.807 35.8353 121.524 35.542C121.117 35.1163 121.013 34.5676 121.013 33.8391C121.013 33.1106 121.117 32.5714 121.524 32.1456C121.807 31.8524 122.224 31.6348 122.81 31.6348C123.397 31.6348 123.823 31.8524 124.106 32.1456C124.513 32.5714 124.617 33.1201 124.617 33.8391C124.617 34.5581 124.513 35.1163 124.106 35.542ZM123.454 32.6565C123.293 32.4957 123.066 32.4105 122.82 32.4105C122.574 32.4105 122.347 32.4957 122.186 32.6565C121.921 32.9214 121.893 33.3755 121.893 33.8391C121.893 34.3027 121.93 34.7568 122.186 35.0217C122.347 35.1825 122.564 35.2771 122.82 35.2771C123.075 35.2771 123.293 35.1825 123.454 35.0217C123.718 34.7568 123.756 34.3027 123.756 33.8391C123.756 33.3755 123.718 32.9214 123.454 32.6565Z" fill="#1E2633"/>
<path d="M125.809 36.0051V31.6911H126.689V36.0051H125.809ZM128.439 36.0051L126.689 33.7535L128.335 31.6816H129.376L127.654 33.7062L129.499 35.9957H128.439V36.0051Z" fill="#1E2633"/>
<path d="M20.4258 0.0351562L0.899902 11.3064V24.0046H20.4258V0.0351562Z" fill="#91A256"/>
<path d="M22.8955 1.46094V24.0034H24.3311V2.28983L22.8955 1.46094Z" fill="#79716A"/>
<path d="M26.8008 3.7168V24.0033H28.2364V4.54569L26.8008 3.7168Z" fill="#79716A"/>
<path d="M30.7058 5.97266V24.0032H32.1414V6.793L30.7058 5.97266Z" fill="#79716A"/>
<path d="M34.6111 8.2207V24.0038H36.0381V9.04959L34.6111 8.2207Z" fill="#79716A"/>
<path d="M38.5164 24.0037H39.9434V11.3055L38.5164 10.4766V24.0037Z" fill="#79716A"/>
<path d="M20.4258 49.5945L39.9432 38.3233V25.625H20.4258V49.5945Z" fill="#91A256"/>
<path d="M17.9564 48.176V25.625H16.5208V47.3471L17.9564 48.176Z" fill="#79716A"/>
<path d="M14.0511 45.92V25.625H12.6155V45.0911L14.0511 45.92Z" fill="#79716A"/>
<path d="M10.1458 43.6641V25.625H8.71021V42.8352L10.1458 43.6641Z" fill="#79716A"/>
<path d="M6.24078 41.4081V25.625H4.80518V40.5792L6.24078 41.4081Z" fill="#79716A"/>
<path d="M2.33551 25.625H0.899902V38.3233L2.33551 39.1522V25.625Z" fill="#79716A"/>
<path d="M12.8291 13.2281H11.8891V12.5103H9.83821V14.151H11.1542C11.4875 14.151 11.7951 14.1937 12.0771 14.2706C12.3591 14.3475 12.6069 14.4672 12.812 14.621C13.0171 14.7833 13.1709 14.9799 13.2905 15.2106C13.4016 15.4499 13.4614 15.7233 13.4614 16.048C13.4614 16.3728 13.4101 16.6633 13.3076 16.9111C13.2051 17.1589 13.0598 17.364 12.8803 17.5349C12.7009 17.7058 12.4787 17.8254 12.2223 17.9109C11.966 17.9964 11.6754 18.0391 11.3593 18.0391H7.88135V17.1504H8.5137V12.5017H7.88135V11.6387H12.8376V13.2195L12.8291 13.2281ZM9.83821 15.0141V17.1589H11.0602C11.3507 17.1589 11.5985 17.0564 11.7865 16.8598C11.9745 16.6633 12.0771 16.3898 12.0771 16.0566C12.0771 15.6977 11.9745 15.4328 11.7694 15.2704C11.5644 15.1081 11.2995 15.0226 10.9833 15.0226H9.83821V15.0141Z" fill="white"/>
<path d="M32.7907 33.3866C32.7907 33.6173 32.7566 33.848 32.6797 34.0873C32.6027 34.3265 32.4831 34.5402 32.3122 34.7282C32.1413 34.9162 31.9277 35.07 31.6713 35.1896C31.4064 35.3092 31.0902 35.3691 30.7228 35.3691H29.5094V36.9585H30.3382V37.8472H27.5525V36.9585H28.1763V32.3184H27.5525V31.4297H30.5946C31.321 31.4297 31.8678 31.6091 32.2353 31.9595C32.6027 32.3098 32.7822 32.7884 32.7822 33.378L32.7907 33.3866ZM29.5094 32.3269V34.506H30.381C30.5177 34.506 30.6459 34.4889 30.7741 34.4462C30.9022 34.4034 31.0048 34.3436 31.0988 34.2582C31.1928 34.1727 31.2611 34.0616 31.3124 33.9249C31.3637 33.7882 31.3893 33.6258 31.3893 33.4293C31.3893 33.0533 31.2953 32.7713 31.1159 32.5918C30.9364 32.4124 30.6801 32.3269 30.3468 32.3269H29.5094Z" fill="white"/>
<path d="M62.037 23.3709C61.5198 23.995 60.762 24.4498 59.5939 24.4498C58.4259 24.4498 57.659 23.9861 57.1508 23.3709C56.3216 22.3633 56.2324 20.9991 56.2324 18.0032C56.2324 15.0073 56.3216 13.6431 57.1508 12.6355C57.668 12.0114 58.4259 11.5566 59.5939 11.5566C60.762 11.5566 61.5288 12.0203 62.037 12.6355C62.8841 13.6252 62.9554 15.0073 62.9554 18.0032C62.9554 20.9991 62.8841 22.3811 62.037 23.3709ZM60.548 13.8214C60.3696 13.5361 60.0665 13.3399 59.5939 13.3399C59.1213 13.3399 58.836 13.5361 58.6577 13.8214C58.2832 14.4277 58.2119 15.7028 58.2119 18.0032C58.2119 20.3036 58.2832 21.5787 58.6577 22.185C58.836 22.4703 59.1213 22.6665 59.5939 22.6665C60.0665 22.6665 60.3696 22.4703 60.548 22.185C60.9225 21.5787 60.9759 20.3036 60.9759 18.0032C60.9759 15.7028 60.9225 14.4277 60.548 13.8214Z" fill="#1E2633"/>
<path d="M86.5036 23.3709C85.9864 23.995 85.2285 24.4498 84.0605 24.4498C82.8924 24.4498 82.1256 23.9861 81.6174 23.3709C80.7881 22.3633 80.699 20.9991 80.699 18.0032C80.699 15.0073 80.7881 13.6431 81.6174 12.6355C82.1345 12.0114 82.8924 11.5566 84.0605 11.5566C85.2285 11.5566 85.9953 12.0203 86.5036 12.6355C87.3506 13.6252 87.4219 15.0073 87.4219 18.0032C87.4219 20.9991 87.3506 22.3811 86.5036 23.3709ZM85.0145 13.8214C84.8362 13.5361 84.533 13.3399 84.0605 13.3399C83.5879 13.3399 83.3026 13.5361 83.1242 13.8214C82.7497 14.4277 82.6784 15.7028 82.6784 18.0032C82.6784 20.3036 82.7497 21.5787 83.1242 22.185C83.3026 22.4703 83.5879 22.6665 84.0605 22.6665C84.533 22.6665 84.8362 22.4703 85.0145 22.185C85.389 21.5787 85.4425 20.3036 85.4425 18.0032C85.4425 15.7028 85.389 14.4277 85.0145 13.8214Z" fill="#1E2633"/>
<path d="M52.4964 24.3069H49.7679V22.4612H52.4964C52.6658 22.4612 52.7728 22.3721 52.8263 22.3186C52.8798 22.2651 52.96 22.1581 52.9511 21.9887L52.8352 18.8412C52.8263 18.6004 52.6301 18.4043 52.3805 18.4043H49.759V16.5586H52.3805C53.6198 16.5586 54.6274 17.5305 54.672 18.7699L54.7879 21.9173C54.8146 22.5504 54.5828 23.1389 54.1459 23.5936C53.709 24.0484 53.1205 24.298 52.4964 24.298V24.3069Z" fill="#1E2633"/>
<path d="M50.4633 16.7726V13.4647H53.8605V11.6992H48.4839V24.307H50.4633V16.7726Z" fill="#1E2633"/>
<path d="M53.9763 14.6773H51.9968L52.193 11.6992H54.1724L53.9763 14.6773Z" fill="#1E2633"/>
<path d="M68.8135 24.3069H66.0851V22.4612H68.8135C68.9829 22.4612 69.0899 22.3721 69.1434 22.3186C69.1969 22.2651 69.2772 22.1581 69.2682 21.9887L69.1523 18.8412C69.1434 18.6004 68.9473 18.4043 68.6976 18.4043H66.0762V16.5586H68.6976C69.937 16.5586 70.9445 17.5305 70.9891 18.7699L71.105 21.9173C71.1318 22.5504 70.8999 23.1389 70.463 23.5936C70.0261 24.0484 69.4377 24.298 68.8135 24.298V24.3069Z" fill="#1E2633"/>
<path d="M66.7805 16.7726V13.4647H70.1776V11.6992H64.801V24.307H66.7805V16.7726Z" fill="#1E2633"/>
<path d="M70.2934 14.6773H68.314L68.5101 11.6992H70.4896L70.2934 14.6773Z" fill="#1E2633"/>
<path d="M74.9034 11.6992H72.915V24.3159H74.9034V11.6992Z" fill="#1E2633"/>
<path d="M76.1875 20.5354H74.1189V18.6897H76.1875C76.4282 18.6897 76.6244 18.5024 76.6422 18.2706L76.9721 13.5449H74.1278V11.6992H77.9619C78.2204 11.6992 78.4612 11.8062 78.6395 11.9935C78.8178 12.1807 78.8981 12.4304 78.8892 12.6889L78.4969 18.4043C78.4166 19.6081 77.4091 20.5443 76.2053 20.5443L76.1875 20.5354Z" fill="#1E2633"/>
<path d="M95.081 18.3163C95.0453 17.8616 94.8402 17.4603 94.5371 17.1304C94.6619 16.9253 94.7422 16.7024 94.7689 16.4617L95.1612 12.7079C95.188 12.4493 95.1077 12.1907 94.9294 11.9946C94.7511 11.7984 94.5014 11.6914 94.2428 11.6914H89.2051V24.3081H90.4088H94.5906C94.8492 24.3081 95.0988 24.2011 95.2682 24.005C95.4466 23.8177 95.5268 23.5591 95.509 23.3006L95.081 18.3074V18.3163ZM93.2264 13.5371L92.95 16.1674C92.8786 16.212 92.7181 16.2744 92.4863 16.2744H91.2023V13.5282H93.2353L93.2264 13.5371ZM91.1934 22.4624V18.2004H92.6646C93.0302 18.2004 93.2353 18.3965 93.2442 18.4768L93.5919 22.4624H91.1934Z" fill="#1E2633"/>
<path d="M124.202 24.4487V11.832H129.498V13.6242H126.182V17.1997H129.035V18.9919H126.182V22.6565H129.498V24.4487H124.202Z" fill="#1E2633"/>
<path d="M102.241 11.8418H100.253V24.4585H102.241V11.8418Z" fill="#1E2633"/>
<path d="M103.516 20.6779H101.447V18.8323H103.516C103.757 18.8323 103.953 18.645 103.971 18.4132L104.301 13.6875H100.484V11.8418H105.29C105.549 11.8418 105.79 11.9488 105.968 12.136C106.146 12.3233 106.227 12.5729 106.218 12.8315L105.825 18.5469C105.745 19.7506 104.738 20.6869 103.534 20.6869L103.516 20.6779Z" fill="#1E2633"/>
<path d="M119.994 24.4473H121.982V11.8306H119.994V24.4473Z" fill="#1E2633"/>
<path d="M110.257 18.3945L109.731 11.832H107.787L108.322 18.5372C108.402 19.7587 109.437 20.7217 110.658 20.7217H112.727V18.7779H110.658C110.444 18.7779 110.266 18.6085 110.257 18.3945Z" fill="#1E2633"/>
<path d="M131.264 24.4468V11.8301H133.252V19.5517L136.07 11.8301H137.844V24.4468H135.856V16.7252L133.02 24.4468H131.264Z" fill="#1E2633"/>
<path d="M136.872 9.33398H132.574V11.0459H136.872V9.33398Z" fill="#1E2633"/>
<path d="M112.513 11.8398L111.594 22.1294C111.576 22.3434 111.398 22.4949 111.193 22.4949H108.598V24.4387H111.193C112.415 24.4387 113.422 23.5203 113.529 22.2988L114.456 11.8398H112.504H112.513Z" fill="#1E2633"/>
<path d="M118.308 19.8657L117.773 11.832H115.83L116.373 19.9905C116.454 21.2121 117.488 22.1751 118.71 22.1751H120.778V20.2313H118.71C118.496 20.2313 118.317 20.0619 118.308 19.8568V19.8657Z" fill="#1E2633"/>
</g>
<defs>
<clipPath id="clip0_1186_61428">
<rect width="137.222" height="50" fill="white" transform="translate(0.899902)"/>
</clipPath>
</defs>
</svg>
