<svg width="247" height="91" viewBox="0 0 247 91" fill="none" xmlns="http://www.w3.org/2000/svg">
<g clip-path="url(#clip0_1503_12957)">
<path d="M86.1172 65.6717V57.9064H87.7009V65.6717H86.1172ZM90.8513 65.6717L87.7009 61.6188L90.664 57.8894H92.5372L89.4379 61.5336L92.7585 65.6547H90.8513V65.6717Z" fill="#1E2633"/>
<path d="M98.9059 64.8367C98.395 65.3646 97.6287 65.7563 96.5729 65.7563C95.5171 65.7563 94.7678 65.3646 94.257 64.8367C93.5247 64.0704 93.3374 63.0827 93.3374 61.7715C93.3374 60.4603 93.5247 59.4896 94.257 58.7233C94.7678 58.1954 95.5171 57.8037 96.5729 57.8037C97.6287 57.8037 98.395 58.1954 98.9059 58.7233C99.6382 59.4896 99.8255 60.4773 99.8255 61.7715C99.8255 63.0657 99.6382 64.0704 98.9059 64.8367ZM97.7309 59.6429C97.4414 59.3534 97.0327 59.2001 96.59 59.2001C96.1472 59.2001 95.7385 59.3534 95.449 59.6429C94.9722 60.1197 94.9211 60.9371 94.9211 61.7715C94.9211 62.6059 94.9892 63.4233 95.449 63.9001C95.7385 64.1896 96.1302 64.3599 96.59 64.3599C97.0497 64.3599 97.4414 64.1896 97.7309 63.9001C98.2077 63.4233 98.2758 62.6059 98.2758 61.7715C98.2758 60.9371 98.2077 60.1197 97.7309 59.6429Z" fill="#1E2633"/>
<path d="M104.832 59.2517V65.6547H103.266V59.2517H100.796V57.8894H107.199V59.2517H104.815H104.832Z" fill="#1E2633"/>
<path d="M111.576 59.2517V65.6547H110.009V59.2517H107.54V57.8894H113.943V59.2517H111.559H111.576Z" fill="#1E2633"/>
<path d="M116.497 62.2313C116.497 63.5766 117.196 64.411 118.473 64.411C119.341 64.411 119.801 64.1726 120.363 63.6106L121.351 64.5472C120.55 65.3476 119.801 65.7563 118.439 65.7563C116.497 65.7563 114.948 64.7346 114.948 61.7715C114.948 59.2342 116.259 57.8037 118.251 57.8037C120.244 57.8037 121.555 59.3023 121.555 61.5671V62.2313H116.514H116.497ZM119.784 60.0856C119.529 59.5066 118.984 59.0979 118.251 59.0979C117.519 59.0979 116.957 59.4896 116.702 60.0856C116.548 60.4262 116.514 60.6646 116.497 61.1414H119.988C119.954 60.6646 119.92 60.4262 119.767 60.0856H119.784Z" fill="#1E2633"/>
<path d="M129.252 57.8894V64.2924H130.325V67.6471H128.826V65.6547H123.786V67.6471H122.304V64.2924H123.139C123.632 63.3047 124.024 62.2489 124.024 59.8648V57.8894H129.269H129.252ZM125.489 60.4949C125.489 62.2829 125.199 63.3387 124.756 64.2924H127.685V59.2517H125.489V60.4949Z" fill="#1E2633"/>
<path d="M130.768 65.6717L133.918 61.5507L131.006 57.9064H132.828L135.638 61.6358L132.641 65.6887H130.75L130.768 65.6717ZM135.655 65.6717V57.9064H137.239V65.6717H135.655ZM140.236 65.6717L137.256 61.6188L140.082 57.8894H141.905L138.993 61.5336L142.143 65.6547H140.253L140.236 65.6717Z" fill="#1E2633"/>
<path d="M148.035 65.672V62.3684H144.936V65.672H143.369V57.9067H144.936V61.006H148.035V57.9067H149.602V65.672H148.035Z" fill="#1E2633"/>
<path d="M155.681 65.672H152.071V57.9067H153.637V60.8357H155.681C157.18 60.8357 158.218 61.8234 158.218 63.2539C158.218 64.6843 157.197 65.672 155.681 65.672ZM155.426 62.1129H153.655V64.3948H155.426C156.209 64.3948 156.669 63.9691 156.669 63.2369C156.669 62.5046 156.209 62.0959 155.426 62.0959V62.1129ZM159.291 65.672V57.9067H160.858V65.672H159.291Z" fill="#1E2633"/>
<path d="M168.317 65.6715V60.3243L164.996 65.6715H163.429V57.9062H164.996V63.1852L168.317 57.9062H169.883V65.6715H168.317ZM166.665 56.8163C165.422 56.8163 164.383 56.2714 164.298 54.7388H165.541C165.609 55.454 166.018 55.7775 166.665 55.7775C167.312 55.7775 167.721 55.454 167.789 54.7388H169.032C168.964 56.2544 167.908 56.8163 166.665 56.8163Z" fill="#1E2633"/>
<path d="M180.697 65.672V59.2691H177.597V65.672H176.031V57.9067H182.263V65.672H180.697Z" fill="#1E2633"/>
<path d="M189.876 64.8367C189.365 65.3646 188.598 65.7563 187.543 65.7563C186.487 65.7563 185.738 65.3646 185.227 64.8367C184.494 64.0704 184.307 63.0827 184.307 61.7715C184.307 60.4603 184.494 59.4896 185.227 58.7233C185.738 58.1954 186.487 57.8037 187.543 57.8037C188.598 57.8037 189.365 58.1954 189.876 58.7233C190.608 59.4896 190.795 60.4773 190.795 61.7715C190.795 63.0657 190.608 64.0704 189.876 64.8367ZM188.701 59.6429C188.411 59.3534 188.002 59.2001 187.56 59.2001C187.117 59.2001 186.708 59.3534 186.419 59.6429C185.942 60.1197 185.891 60.9371 185.891 61.7715C185.891 62.6059 185.959 63.4233 186.419 63.9001C186.708 64.1896 187.1 64.3599 187.56 64.3599C188.019 64.3599 188.411 64.1896 188.701 63.9001C189.177 63.4233 189.246 62.6059 189.246 61.7715C189.246 60.9371 189.177 60.1197 188.701 59.6429Z" fill="#1E2633"/>
<path d="M195.972 65.7563C194.218 65.7563 192.515 64.6835 192.515 61.7715C192.515 58.8595 194.235 57.8037 195.972 57.8037C197.045 57.8037 197.794 58.1102 198.526 58.8936L197.454 59.9324C196.96 59.4044 196.585 59.2001 195.972 59.2001C195.359 59.2001 194.865 59.4385 194.525 59.8983C194.184 60.324 194.065 60.886 194.065 61.7885C194.065 62.6911 194.184 63.253 194.525 63.6958C194.865 64.1385 195.376 64.377 195.972 64.377C196.568 64.377 196.977 64.1726 197.454 63.6447L198.526 64.6664C197.794 65.4498 197.045 65.7733 195.972 65.7733V65.7563Z" fill="#1E2633"/>
<path d="M201.251 62.2313C201.251 63.5766 201.949 64.411 203.226 64.411C204.095 64.411 204.554 64.1726 205.116 63.6106L206.104 64.5472C205.304 65.3476 204.554 65.7563 203.192 65.7563C201.251 65.7563 199.701 64.7346 199.701 61.7715C199.701 59.2342 201.012 57.8037 203.005 57.8037C204.997 57.8037 206.308 59.3023 206.308 61.5671V62.2313H201.268H201.251ZM204.537 60.0856C204.282 59.5066 203.737 59.0979 203.005 59.0979C202.273 59.0979 201.711 59.4896 201.455 60.0856C201.302 60.4262 201.268 60.6646 201.251 61.1414H204.742C204.708 60.6646 204.674 60.4262 204.52 60.0856H204.537Z" fill="#1E2633"/>
<path d="M212.524 65.672V59.2691H210.277V61.5169C210.277 64.8206 209.306 65.672 207.79 65.672H207.058V64.2927H207.297C207.978 64.2927 208.761 64.1394 208.761 61.1423V57.9067H214.074V65.672H212.507H212.524Z" fill="#1E2633"/>
<path d="M221.771 64.8367C221.26 65.3646 220.494 65.7563 219.438 65.7563C218.382 65.7563 217.633 65.3646 217.122 64.8367C216.39 64.0704 216.203 63.0827 216.203 61.7715C216.203 60.4603 216.39 59.4896 217.122 58.7233C217.633 58.1954 218.382 57.8037 219.438 57.8037C220.494 57.8037 221.26 58.1954 221.771 58.7233C222.503 59.4896 222.691 60.4773 222.691 61.7715C222.691 63.0657 222.503 64.0704 221.771 64.8367ZM220.596 59.6429C220.307 59.3534 219.898 59.2001 219.455 59.2001C219.012 59.2001 218.604 59.3534 218.314 59.6429C217.837 60.1197 217.786 60.9371 217.786 61.7715C217.786 62.6059 217.854 63.4233 218.314 63.9001C218.604 64.1896 218.995 64.3599 219.455 64.3599C219.915 64.3599 220.307 64.1896 220.596 63.9001C221.073 63.4233 221.141 62.6059 221.141 61.7715C221.141 60.9371 221.073 60.1197 220.596 59.6429Z" fill="#1E2633"/>
<path d="M224.836 65.6717V57.9064H226.42V65.6717H224.836ZM229.571 65.6717L226.42 61.6188L229.383 57.8894H231.256L228.157 61.5336L231.478 65.6547H229.571V65.6717Z" fill="#1E2633"/>
<path d="M35.1467 0.918701L0 21.2069V44.0638H35.1467V0.918701Z" fill="#91A256"/>
<path d="M39.5918 3.48779V44.0642H42.1759V4.9798L39.5918 3.48779Z" fill="#79716A"/>
<path d="M46.6211 7.54858V44.0642H49.2052V9.04059L46.6211 7.54858Z" fill="#79716A"/>
<path d="M53.6504 11.6094V44.0643H56.2345V13.086L53.6504 11.6094Z" fill="#79716A"/>
<path d="M60.6797 15.6553V44.0649H63.2484V17.1473L60.6797 15.6553Z" fill="#79716A"/>
<path d="M67.709 44.0647H70.2777V21.2078L67.709 19.7158V44.0647Z" fill="#79716A"/>
<path d="M35.1465 90.1309L70.2778 69.8427V46.9858H35.1465V90.1309Z" fill="#91A256"/>
<path d="M30.7013 87.5776V46.9858H28.1172V86.0856L30.7013 87.5776Z" fill="#79716A"/>
<path d="M23.672 83.5169V46.9858H21.0879V82.0249L23.672 83.5169Z" fill="#79716A"/>
<path d="M16.6427 79.4562V46.9858H14.0586V77.9641L16.6427 79.4562Z" fill="#79716A"/>
<path d="M9.61339 75.3954V46.9858H7.0293V73.9034L9.61339 75.3954Z" fill="#79716A"/>
<path d="M2.58409 46.9856H0V69.8425L2.58409 71.3345V46.9856Z" fill="#79716A"/>
<path d="M21.4728 24.6676H19.7808V23.3756H16.0893V26.3288H18.458C19.0579 26.3288 19.6116 26.4057 20.1192 26.5441C20.6268 26.6826 21.0729 26.8979 21.442 27.1748C21.8112 27.467 22.088 27.8208 22.3034 28.2361C22.5033 28.6668 22.611 29.159 22.611 29.7435C22.611 30.328 22.5187 30.851 22.3341 31.297C22.1496 31.7431 21.8881 32.1122 21.5651 32.4199C21.2421 32.7275 20.8421 32.9428 20.3807 33.0967C19.9192 33.2505 19.3963 33.3274 18.8272 33.3274H12.5669V31.7277H13.7051V23.3602H12.5669V21.8066H21.4882V24.6522L21.4728 24.6676ZM16.0893 27.8823V31.7431H18.2888C18.8118 31.7431 19.2578 31.5585 19.5962 31.2047C19.9346 30.851 20.1192 30.3587 20.1192 29.7589C20.1192 29.1128 19.9346 28.636 19.5655 28.3438C19.1963 28.0515 18.7195 27.8977 18.1504 27.8977H16.0893V27.8823Z" fill="white"/>
<path d="M57.4039 60.9525C57.4039 61.3678 57.3424 61.7831 57.204 62.2138C57.0656 62.6445 56.8502 63.029 56.5426 63.3674C56.235 63.7058 55.8504 63.9827 55.389 64.198C54.9121 64.4134 54.343 64.521 53.6816 64.521H51.4975V67.382H52.9895V68.9817H47.9751V67.382H49.0979V59.0298H47.9751V57.4302H53.4509C54.7583 57.4302 55.7427 57.7532 56.4041 58.3838C57.0656 59.0145 57.3886 59.8758 57.3886 60.9372L57.4039 60.9525ZM51.4975 59.0452V62.9675H53.0664C53.3125 62.9675 53.5432 62.9367 53.7739 62.8598C54.0046 62.7829 54.1892 62.6753 54.3584 62.5214C54.5276 62.3676 54.6507 62.1677 54.743 61.9216C54.8352 61.6755 54.8814 61.3832 54.8814 61.0294C54.8814 60.3527 54.7122 59.8451 54.3892 59.5221C54.0662 59.199 53.6047 59.0452 53.0048 59.0452H51.4975Z" fill="white"/>
<path d="M110.047 42.9284C109.116 44.0519 107.752 44.8704 105.65 44.8704C103.547 44.8704 102.167 44.0359 101.252 42.9284C99.7596 41.1149 99.5991 38.6593 99.5991 33.2666C99.5991 27.874 99.7596 25.4184 101.252 23.6048C102.183 22.4814 103.547 21.6628 105.65 21.6628C107.752 21.6628 109.133 22.4974 110.047 23.6048C111.572 25.3863 111.7 27.874 111.7 33.2666C111.7 38.6593 111.572 41.147 110.047 42.9284ZM107.367 25.7394C107.046 25.2258 106.5 24.8727 105.65 24.8727C104.799 24.8727 104.286 25.2258 103.965 25.7394C103.291 26.8308 103.162 29.1259 103.162 33.2666C103.162 37.4074 103.291 39.7025 103.965 40.7939C104.286 41.3074 104.799 41.6605 105.65 41.6605C106.5 41.6605 107.046 41.3074 107.367 40.7939C108.041 39.7025 108.137 37.4074 108.137 33.2666C108.137 29.1259 108.041 26.8308 107.367 25.7394Z" fill="#1E2633"/>
<path d="M154.087 42.9284C153.156 44.0519 151.792 44.8704 149.689 44.8704C147.587 44.8704 146.207 44.0359 145.292 42.9284C143.799 41.1149 143.639 38.6593 143.639 33.2666C143.639 27.874 143.799 25.4184 145.292 23.6048C146.223 22.4814 147.587 21.6628 149.689 21.6628C151.792 21.6628 153.172 22.4974 154.087 23.6048C155.612 25.3863 155.74 27.874 155.74 33.2666C155.74 38.6593 155.612 41.147 154.087 42.9284ZM151.407 25.7394C151.086 25.2258 150.54 24.8727 149.689 24.8727C148.839 24.8727 148.325 25.2258 148.004 25.7394C147.33 26.8308 147.202 29.1259 147.202 33.2666C147.202 37.4074 147.33 39.7025 148.004 40.7939C148.325 41.3074 148.839 41.6605 149.689 41.6605C150.54 41.6605 151.086 41.3074 151.407 40.7939C152.081 39.7025 152.177 37.4074 152.177 33.2666C152.177 29.1259 152.081 26.8308 151.407 25.7394Z" fill="#1E2633"/>
<path d="M92.874 44.6138H87.9628V41.2915H92.874C93.1789 41.2915 93.3715 41.131 93.4678 41.0347C93.5641 40.9384 93.7086 40.7458 93.6925 40.4409L93.4839 34.7754C93.4678 34.3421 93.1147 33.989 92.6653 33.989H87.9468V30.6667H92.6653C94.8962 30.6667 96.7098 32.4161 96.7901 34.647L96.9987 40.3125C97.0468 41.452 96.6296 42.5113 95.8431 43.3298C95.0567 44.1483 93.9974 44.5977 92.874 44.5977V44.6138Z" fill="#1E2633"/>
<path d="M89.2148 31.0519V25.0975H95.3297V21.9197H85.6519V44.6137H89.2148V31.0519Z" fill="#1E2633"/>
<path d="M95.5386 27.2805H91.9756L92.3287 21.9199H95.8917L95.5386 27.2805Z" fill="#1E2633"/>
<path d="M122.245 44.6138H117.333V41.2915H122.245C122.55 41.2915 122.742 41.131 122.838 41.0347C122.935 40.9384 123.079 40.7458 123.063 40.4409L122.854 34.7754C122.838 34.3421 122.485 33.989 122.036 33.989H117.317V30.6667H122.036C124.267 30.6667 126.08 32.4161 126.161 34.647L126.369 40.3125C126.417 41.452 126 42.5113 125.214 43.3298C124.427 44.1483 123.368 44.5977 122.245 44.5977V44.6138Z" fill="#1E2633"/>
<path d="M118.585 31.0519V25.0975H124.7V21.9197H115.022V44.6137H118.585V31.0519Z" fill="#1E2633"/>
<path d="M124.909 27.2805H121.346L121.699 21.9199H125.262L124.909 27.2805Z" fill="#1E2633"/>
<path d="M133.206 21.9197H129.627V44.6297H133.206V21.9197Z" fill="#1E2633"/>
<path d="M135.517 37.825H131.794V34.5027H135.517C135.951 34.5027 136.304 34.1657 136.336 33.7484L136.93 25.2422H131.81V21.9199H138.711C139.177 21.9199 139.61 22.1125 139.931 22.4496C140.252 22.7866 140.396 23.236 140.38 23.7014L139.674 33.9892C139.53 36.1558 137.716 37.841 135.55 37.841L135.517 37.825Z" fill="#1E2633"/>
<path d="M169.526 33.8291C169.462 33.0106 169.093 32.2883 168.547 31.6945C168.772 31.3254 168.916 30.9241 168.965 30.4908L169.671 23.7339C169.719 23.2685 169.574 22.8031 169.253 22.45C168.933 22.0969 168.483 21.9043 168.018 21.9043H158.95V44.6144H161.116H168.644C169.109 44.6144 169.558 44.4218 169.863 44.0687C170.184 43.7316 170.329 43.2662 170.297 42.8008L169.526 33.813V33.8291ZM166.188 25.2265L165.69 29.9612C165.562 30.0414 165.273 30.1537 164.856 30.1537H162.545V25.2105H166.204L166.188 25.2265ZM162.529 41.2921V33.6204H165.177C165.835 33.6204 166.204 33.9735 166.22 34.118L166.846 41.2921H162.529Z" fill="#1E2633"/>
<path d="M221.944 44.8697V22.1597H231.478V25.3856H225.507V31.8215H230.643V35.0474H225.507V41.6438H231.478V44.8697H221.944Z" fill="#1E2633"/>
<path d="M182.414 22.1758H178.835V44.8858H182.414V22.1758Z" fill="#1E2633"/>
<path d="M184.71 38.0808H180.986V34.7586H184.71C185.143 34.7586 185.496 34.4216 185.528 34.0043L186.122 25.498H179.253V22.1758H187.904C188.369 22.1758 188.802 22.3684 189.123 22.7054C189.444 23.0425 189.589 23.4918 189.573 23.9573L188.867 34.245C188.722 36.4117 186.909 38.0969 184.742 38.0969L184.71 38.0808Z" fill="#1E2633"/>
<path d="M214.369 44.8694H217.948V22.1593H214.369V44.8694Z" fill="#1E2633"/>
<path d="M196.843 33.9721L195.896 22.1597H192.397L193.36 34.2289C193.505 36.4277 195.367 38.161 197.565 38.161H201.289V34.6622H197.565C197.18 34.6622 196.859 34.3573 196.843 33.9721Z" fill="#1E2633"/>
<path d="M234.656 44.8695V22.1594H238.235V36.0583L243.306 22.1594H246.5V44.8695H242.921V30.9706L237.818 44.8695H234.656Z" fill="#1E2633"/>
<path d="M244.751 17.6655H237.015V20.747H244.751V17.6655Z" fill="#1E2633"/>
<path d="M200.904 22.1758L199.251 40.6969C199.218 41.0821 198.897 41.355 198.528 41.355H193.858V44.8537H198.528C200.727 44.8537 202.541 43.2006 202.733 41.0019L204.402 22.1758H200.888H200.904Z" fill="#1E2633"/>
<path d="M211.336 36.6203L210.373 22.1597H206.874L207.853 36.845C207.997 39.0438 209.859 40.7771 212.058 40.7771H215.782V37.2783H212.058C211.673 37.2783 211.352 36.9734 211.336 36.6042V36.6203Z" fill="#1E2633"/>
</g>
<defs>
<clipPath id="clip0_1503_12957">
<rect width="247" height="90" fill="white" transform="translate(0 0.858887)"/>
</clipPath>
</defs>
</svg>
