<svg width="138" height="50" viewBox="0 0 138 50" fill="none" xmlns="http://www.w3.org/2000/svg">
<g clip-path="url(#clip0_1524_1494)">
<path d="M48.2861 36.0071V31.6931H49.166V36.0071H48.2861ZM50.9162 36.0071L49.166 33.7555L50.8121 31.6836H51.8528L50.1309 33.7082L51.9758 35.9976H50.9162V36.0071Z" fill="white"/>
<path d="M55.3915 35.544C55.1077 35.8372 54.6819 36.0548 54.0954 36.0548C53.5088 36.0548 53.0925 35.8372 52.8087 35.544C52.4019 35.1182 52.2979 34.5695 52.2979 33.841C52.2979 33.1126 52.4019 32.5733 52.8087 32.1476C53.0925 31.8543 53.5088 31.6367 54.0954 31.6367C54.6819 31.6367 55.1077 31.8543 55.3915 32.1476C55.7983 32.5733 55.9023 33.122 55.9023 33.841C55.9023 34.5601 55.7983 35.1182 55.3915 35.544ZM54.7387 32.6585C54.5779 32.4976 54.3508 32.4125 54.1048 32.4125C53.8588 32.4125 53.6318 32.4976 53.471 32.6585C53.2061 32.9234 53.1777 33.3775 53.1777 33.841C53.1777 34.3046 53.2155 34.7587 53.471 35.0236C53.6318 35.1845 53.8494 35.2791 54.1048 35.2791C54.3603 35.2791 54.5779 35.1845 54.7387 35.0236C55.0036 34.7587 55.0414 34.3046 55.0414 33.841C55.0414 33.3775 55.0036 32.9234 54.7387 32.6585Z" fill="white"/>
<path d="M58.6836 32.4404V35.9976H57.8132V32.4404H56.4414V31.6836H59.9986V32.4404H58.6741H58.6836Z" fill="white"/>
<path d="M62.4297 32.4404V35.9976H61.5593V32.4404H60.1875V31.6836H63.7447V32.4404H62.4202H62.4297Z" fill="white"/>
<path d="M65.1637 34.0965C65.1637 34.8439 65.5515 35.3074 66.2611 35.3074C66.7436 35.3074 66.999 35.175 67.3112 34.8628L67.8599 35.3831C67.4153 35.8278 66.999 36.0548 66.2422 36.0548C65.1637 36.0548 64.3027 35.4872 64.3027 33.841C64.3027 32.4314 65.0312 31.6367 66.1381 31.6367C67.245 31.6367 67.9735 32.4693 67.9735 33.7275V34.0965H65.1731H65.1637ZM66.9896 32.9044C66.8476 32.5828 66.5449 32.3557 66.1381 32.3557C65.7313 32.3557 65.4191 32.5733 65.2772 32.9044C65.192 33.0937 65.1731 33.2261 65.1637 33.491H67.1031C67.0842 33.2261 67.0652 33.0937 66.9801 32.9044H66.9896Z" fill="white"/>
<path d="M72.2496 31.6836V35.2408H72.8456V37.1045H72.0131V35.9976H69.2127V37.1045H68.3896V35.2408H68.8532C69.1276 34.6921 69.3452 34.1055 69.3452 32.781V31.6836H72.259H72.2496ZM70.1588 33.1311C70.1588 34.1244 69.998 34.711 69.752 35.2408H71.3792V32.4404H70.1588V33.1311Z" fill="white"/>
<path d="M73.0915 36.0071L74.8417 33.7176L73.2239 31.6931H74.2362L75.7972 33.7649L74.1322 36.0166H73.082L73.0915 36.0071ZM75.8067 36.0071V31.6931H76.6865V36.0071H75.8067ZM78.3516 36.0071L76.696 33.7555L78.2665 31.6836H79.2787L77.661 33.7082L79.4112 35.9976H78.3611L78.3516 36.0071Z" fill="white"/>
<path d="M82.685 36.0074V34.172H80.9631V36.0074H80.0928V31.6934H80.9631V33.4152H82.685V31.6934H83.5554V36.0074H82.685Z" fill="white"/>
<path d="M86.9324 36.0074H84.9268V31.6934H85.7971V33.3206H86.9324C87.7649 33.3206 88.342 33.8693 88.342 34.664C88.342 35.4587 87.7744 36.0074 86.9324 36.0074ZM86.7905 34.0301H85.8066V35.2979H86.7905C87.2257 35.2979 87.4811 35.0613 87.4811 34.6545C87.4811 34.2477 87.2257 34.0207 86.7905 34.0207V34.0301ZM88.9381 36.0074V31.6934H89.8084V36.0074H88.9381Z" fill="white"/>
<path d="M93.9525 36.0073V33.0367L92.1077 36.0073H91.2373V31.6933H92.1077V34.6261L93.9525 31.6933H94.8229V36.0073H93.9525ZM93.0348 31.0878C92.3442 31.0878 91.7671 30.785 91.7198 29.9336H92.4104C92.4483 30.3309 92.6753 30.5107 93.0348 30.5107C93.3943 30.5107 93.6214 30.3309 93.6592 29.9336H94.3499C94.312 30.7756 93.7255 31.0878 93.0348 31.0878Z" fill="white"/>
<path d="M100.83 36.0074V32.4502H99.1087V36.0074H98.2383V31.6934H101.701V36.0074H100.83Z" fill="white"/>
<path d="M105.93 35.544C105.646 35.8372 105.22 36.0548 104.633 36.0548C104.047 36.0548 103.631 35.8372 103.347 35.544C102.94 35.1182 102.836 34.5695 102.836 33.841C102.836 33.1126 102.94 32.5733 103.347 32.1476C103.631 31.8543 104.047 31.6367 104.633 31.6367C105.22 31.6367 105.646 31.8543 105.93 32.1476C106.336 32.5733 106.44 33.122 106.44 33.841C106.44 34.5601 106.336 35.1182 105.93 35.544ZM105.277 32.6585C105.116 32.4976 104.889 32.4125 104.643 32.4125C104.397 32.4125 104.17 32.4976 104.009 32.6585C103.744 32.9234 103.716 33.3775 103.716 33.841C103.716 34.3046 103.754 34.7587 104.009 35.0236C104.17 35.1845 104.387 35.2791 104.643 35.2791C104.898 35.2791 105.116 35.1845 105.277 35.0236C105.542 34.7587 105.58 34.3046 105.58 33.841C105.58 33.3775 105.542 32.9234 105.277 32.6585Z" fill="white"/>
<path d="M109.317 36.0548C108.343 36.0548 107.396 35.4588 107.396 33.841C107.396 32.2233 108.352 31.6367 109.317 31.6367C109.913 31.6367 110.329 31.807 110.736 32.2422L110.14 32.8193C109.866 32.526 109.658 32.4125 109.317 32.4125C108.976 32.4125 108.702 32.5449 108.513 32.8004C108.324 33.0369 108.257 33.3491 108.257 33.8505C108.257 34.3519 108.324 34.6641 108.513 34.9101C108.702 35.1561 108.986 35.2885 109.317 35.2885C109.648 35.2885 109.875 35.175 110.14 34.8817L110.736 35.4493C110.329 35.8845 109.913 36.0643 109.317 36.0643V36.0548Z" fill="white"/>
<path d="M112.25 34.0965C112.25 34.8439 112.637 35.3074 113.347 35.3074C113.83 35.3074 114.085 35.175 114.397 34.8628L114.946 35.3831C114.501 35.8278 114.085 36.0548 113.328 36.0548C112.25 36.0548 111.389 35.4872 111.389 33.841C111.389 32.4314 112.117 31.6367 113.224 31.6367C114.331 31.6367 115.059 32.4693 115.059 33.7275V34.0965H112.259H112.25ZM114.075 32.9044C113.934 32.5828 113.631 32.3557 113.224 32.3557C112.817 32.3557 112.505 32.5733 112.363 32.9044C112.278 33.0937 112.259 33.2261 112.25 33.491H114.189C114.17 33.2261 114.151 33.0937 114.066 32.9044H114.075Z" fill="white"/>
<path d="M118.512 36.0074V32.4502H117.264V33.699C117.264 35.5344 116.724 36.0074 115.882 36.0074H115.476V35.2411H115.608C115.986 35.2411 116.422 35.1559 116.422 33.4909V31.6934H119.373V36.0074H118.503H118.512Z" fill="white"/>
<path d="M123.649 35.544C123.365 35.8372 122.94 36.0548 122.353 36.0548C121.767 36.0548 121.35 35.8372 121.067 35.544C120.66 35.1182 120.556 34.5695 120.556 33.841C120.556 33.1126 120.66 32.5733 121.067 32.1476C121.35 31.8543 121.767 31.6367 122.353 31.6367C122.94 31.6367 123.365 31.8543 123.649 32.1476C124.056 32.5733 124.16 33.122 124.16 33.841C124.16 34.5601 124.056 35.1182 123.649 35.544ZM122.997 32.6585C122.836 32.4976 122.609 32.4125 122.363 32.4125C122.117 32.4125 121.89 32.4976 121.729 32.6585C121.464 32.9234 121.436 33.3775 121.436 33.841C121.436 34.3046 121.473 34.7587 121.729 35.0236C121.89 35.1845 122.107 35.2791 122.363 35.2791C122.618 35.2791 122.836 35.1845 122.997 35.0236C123.261 34.7587 123.299 34.3046 123.299 33.841C123.299 33.3775 123.261 32.9234 122.997 32.6585Z" fill="white"/>
<path d="M125.353 36.0071V31.6931H126.232V36.0071H125.353ZM127.983 36.0071L126.232 33.7555L127.879 31.6836H128.919L127.197 33.7082L129.042 35.9976H127.983V36.0071Z" fill="white"/>
<path d="M22.4385 1.46094V24.0034H23.8741V2.28983L22.4385 1.46094Z" fill="white"/>
<path d="M26.3438 3.7168V24.0033H27.7794V4.54569L26.3438 3.7168Z" fill="white"/>
<path d="M30.249 5.97266V24.0032H31.6846V6.793L30.249 5.97266Z" fill="white"/>
<path d="M34.1543 8.2207V24.0038H35.5814V9.04959L34.1543 8.2207Z" fill="white"/>
<path d="M38.0596 24.0037H39.4866V11.3055L38.0596 10.4766V24.0037Z" fill="white"/>
<path d="M17.5001 48.176V25.625H16.0645V47.3471L17.5001 48.176Z" fill="white"/>
<path d="M13.5948 45.92V25.625H12.1592V45.0911L13.5948 45.92Z" fill="white"/>
<path d="M9.68951 43.6641V25.625H8.25391V42.8352L9.68951 43.6641Z" fill="white"/>
<path d="M5.78424 41.4081V25.625H4.34863V40.5792L5.78424 41.4081Z" fill="white"/>
<path d="M1.87896 25.625H0.443359V38.3233L1.87896 39.1522V25.625Z" fill="white"/>
<path fill-rule="evenodd" clip-rule="evenodd" d="M0.443359 11.3044L19.9693 0.0332031V24.0027H0.443359V11.3044ZM11.4324 13.2274H12.3724L12.381 13.2189V11.638H7.4247V12.5011H8.05705V17.1497H7.4247V18.0384H10.9026C11.2188 18.0384 11.5093 17.9957 11.7657 17.9102C12.022 17.8248 12.2442 17.7052 12.4237 17.5343C12.6031 17.3633 12.7484 17.1583 12.8509 16.9104C12.9535 16.6626 13.0048 16.3721 13.0048 16.0474C13.0048 15.7227 12.9449 15.4492 12.8339 15.2099C12.7142 14.9792 12.5604 14.7827 12.3553 14.6203C12.1502 14.4665 11.9024 14.3469 11.6204 14.27C11.3384 14.1931 11.0308 14.1503 10.6975 14.1503H9.38156V12.5096H11.4324V13.2274ZM9.38156 17.1583V15.0219H10.5266C10.8428 15.0219 11.1077 15.1074 11.3128 15.2698C11.5179 15.4321 11.6204 15.697 11.6204 16.0559C11.6204 16.3892 11.5179 16.6626 11.3299 16.8592C11.1419 17.0557 10.8941 17.1583 10.6035 17.1583H9.38156Z" fill="white"/>
<path fill-rule="evenodd" clip-rule="evenodd" d="M39.4861 38.3233L19.9688 49.5945V25.625H39.4861V38.3233ZM32.2226 34.0855C32.2996 33.8463 32.3337 33.6155 32.3337 33.3848L32.3252 33.3763C32.3252 32.7866 32.1457 32.3081 31.7783 31.9578C31.4108 31.6074 30.8639 31.428 30.1376 31.428H27.0955V32.3167H27.7193V36.9567H27.0955V37.8454H29.8812V36.9567H29.0524V35.3673H30.2658C30.6332 35.3673 30.9494 35.3075 31.2143 35.1879C31.4707 35.0682 31.6843 34.9144 31.8552 34.7264C32.0261 34.5384 32.1457 34.3248 32.2226 34.0855ZM29.0524 34.5042V32.3252H29.8898C30.2231 32.3252 30.4794 32.4107 30.6589 32.5901C30.8383 32.7696 30.9323 33.0516 30.9323 33.4275C30.9323 33.6241 30.9067 33.7864 30.8554 33.9232C30.8041 34.0599 30.7358 34.171 30.6418 34.2564C30.5478 34.3419 30.4452 34.4017 30.3171 34.4444C30.1889 34.4872 30.0607 34.5042 29.924 34.5042H29.0524Z" fill="white"/>
<path d="M61.58 23.3728C61.0628 23.997 60.3049 24.4517 59.1369 24.4517C57.9688 24.4517 57.202 23.988 56.6938 23.3728C55.8646 22.3653 55.7754 21.0011 55.7754 18.0051C55.7754 15.0092 55.8646 13.645 56.6938 12.6375C57.2109 12.0133 57.9688 11.5586 59.1369 11.5586C60.3049 11.5586 61.0717 12.0222 61.58 12.6375C62.427 13.6272 62.4984 15.0092 62.4984 18.0051C62.4984 21.0011 62.427 22.3831 61.58 23.3728ZM60.0909 13.8234C59.9126 13.538 59.6094 13.3419 59.1369 13.3419C58.6643 13.3419 58.379 13.538 58.2007 13.8234C57.8262 14.4297 57.7548 15.7047 57.7548 18.0051C57.7548 20.3056 57.8262 21.5806 58.2007 22.1869C58.379 22.4723 58.6643 22.6684 59.1369 22.6684C59.6094 22.6684 59.9126 22.4723 60.0909 22.1869C60.4654 21.5806 60.5189 20.3056 60.5189 18.0051C60.5189 15.7047 60.4654 14.4297 60.0909 13.8234Z" fill="white"/>
<path d="M86.0468 23.3728C85.5296 23.997 84.7717 24.4517 83.6037 24.4517C82.4356 24.4517 81.6688 23.988 81.1606 23.3728C80.3314 22.3653 80.2422 21.0011 80.2422 18.0051C80.2422 15.0092 80.3314 13.645 81.1606 12.6375C81.6777 12.0133 82.4356 11.5586 83.6037 11.5586C84.7717 11.5586 85.5385 12.0222 86.0468 12.6375C86.8938 13.6272 86.9652 15.0092 86.9652 18.0051C86.9652 21.0011 86.8938 22.3831 86.0468 23.3728ZM84.5577 13.8234C84.3794 13.538 84.0762 13.3419 83.6037 13.3419C83.1311 13.3419 82.8458 13.538 82.6675 13.8234C82.293 14.4297 82.2216 15.7047 82.2216 18.0051C82.2216 20.3056 82.293 21.5806 82.6675 22.1869C82.8458 22.4723 83.1311 22.6684 83.6037 22.6684C84.0762 22.6684 84.3794 22.4723 84.5577 22.1869C84.9322 21.5806 84.9857 20.3056 84.9857 18.0051C84.9857 15.7047 84.9322 14.4297 84.5577 13.8234Z" fill="white"/>
<path d="M52.0401 24.3089H49.3116V22.4632H52.0401C52.2095 22.4632 52.3165 22.374 52.37 22.3205C52.4235 22.267 52.5037 22.16 52.4948 21.9906L52.3789 18.8431C52.37 18.6024 52.1738 18.4062 51.9242 18.4062H49.3027V16.5605H51.9242C53.1635 16.5605 54.1711 17.5324 54.2157 18.7718L54.3316 21.9193C54.3583 22.5524 54.1265 23.1408 53.6896 23.5956C53.2527 24.0503 52.6642 24.3 52.0401 24.3V24.3089Z" fill="white"/>
<path d="M50.0068 16.7746V13.4666H53.4039V11.7012H48.0273V24.309H50.0068V16.7746Z" fill="white"/>
<path d="M53.5195 14.6792H51.54L51.7362 11.7012H53.7156L53.5195 14.6792Z" fill="white"/>
<path d="M68.3575 24.3089H65.629V22.4632H68.3575C68.5269 22.4632 68.6339 22.374 68.6874 22.3205C68.7409 22.267 68.8211 22.16 68.8122 21.9906L68.6963 18.8431C68.6874 18.6024 68.4912 18.4062 68.2415 18.4062H65.6201V16.5605H68.2415C69.4809 16.5605 70.4885 17.5324 70.5331 18.7718L70.649 21.9193C70.6757 22.5524 70.4439 23.1408 70.007 23.5956C69.5701 24.0503 68.9816 24.3 68.3575 24.3V24.3089Z" fill="white"/>
<path d="M66.3242 16.7746V13.4666H69.7213V11.7012H64.3447V24.309H66.3242V16.7746Z" fill="white"/>
<path d="M69.8369 14.6792H67.8574L68.0536 11.7012H70.033L69.8369 14.6792Z" fill="white"/>
<path d="M74.4464 11.7012H72.458V24.3179H74.4464V11.7012Z" fill="white"/>
<path d="M75.7307 20.5373H73.6621V18.6916H75.7307C75.9715 18.6916 76.1676 18.5044 76.1854 18.2726L76.5154 13.5469H73.671V11.7012H77.5051C77.7637 11.7012 78.0044 11.8082 78.1827 11.9954C78.361 12.1827 78.4413 12.4323 78.4324 12.6909L78.0401 18.4063C77.9598 19.61 76.9523 20.5462 75.7485 20.5462L75.7307 20.5373Z" fill="white"/>
<path d="M94.624 18.3182C94.5883 17.8635 94.3832 17.4623 94.0801 17.1324C94.2049 16.9273 94.2851 16.7044 94.3119 16.4636L94.7042 12.7098C94.731 12.4513 94.6507 12.1927 94.4724 11.9965C94.294 11.8004 94.0444 11.6934 93.7858 11.6934H88.748V24.3101H89.9518H94.1336C94.3921 24.3101 94.6418 24.2031 94.8112 24.0069C94.9895 23.8197 95.0698 23.5611 95.0519 23.3025L94.624 18.3093V18.3182ZM92.7693 13.5391L92.4929 16.1694C92.4216 16.214 92.2611 16.2764 92.0293 16.2764H90.7453V13.5301H92.7783L92.7693 13.5391ZM90.7364 22.4644V18.2023H92.2076C92.5732 18.2023 92.7783 18.3985 92.7872 18.4787L93.1349 22.4644H90.7364Z" fill="white"/>
<path d="M123.745 24.4507V11.834H129.041V13.6262H125.725V17.2017H128.578V18.9939H125.725V22.6585H129.041V24.4507H123.745Z" fill="white"/>
<path d="M101.784 11.8438H99.7959V24.4605H101.784V11.8438Z" fill="white"/>
<path d="M103.059 20.6799H100.99V18.8342H103.059C103.3 18.8342 103.496 18.647 103.514 18.4151L103.844 13.6894H100.027V11.8438H104.833C105.092 11.8438 105.333 11.9507 105.511 12.138C105.689 12.3252 105.77 12.5749 105.761 12.8335L105.368 18.5489C105.288 19.7526 104.28 20.6888 103.077 20.6888L103.059 20.6799Z" fill="white"/>
<path d="M119.537 24.4512H121.525V11.8345H119.537V24.4512Z" fill="white"/>
<path d="M109.8 18.3965L109.274 11.834H107.33L107.865 18.5391C107.945 19.7607 108.98 20.7236 110.201 20.7236H112.27V18.7799H110.201C109.987 18.7799 109.809 18.6104 109.8 18.3965Z" fill="white"/>
<path d="M130.808 24.4507V11.834H132.796V19.5556L135.614 11.834H137.388V24.4507H135.4V16.7291L132.564 24.4507H130.808Z" fill="white"/>
<path d="M136.416 9.33789H132.118V11.0498H136.416V9.33789Z" fill="white"/>
<path d="M112.056 11.8438L111.138 22.1333C111.12 22.3473 110.941 22.4988 110.736 22.4988H108.142V24.4426H110.736C111.958 24.4426 112.965 23.5242 113.072 22.3027L114 11.8438H112.047H112.056Z" fill="white"/>
<path d="M117.852 19.8677L117.317 11.834H115.373L115.917 19.9925C115.997 21.214 117.031 22.177 118.253 22.177H120.322V20.2332H118.253C118.039 20.2332 117.861 20.0638 117.852 19.8587V19.8677Z" fill="white"/>
</g>
<defs>
<clipPath id="clip0_1524_1494">
<rect width="137.222" height="50" fill="white" transform="translate(0.443359)"/>
</clipPath>
</defs>
</svg>
