<svg width="248" height="90" viewBox="0 0 248 90" fill="none" xmlns="http://www.w3.org/2000/svg">
<g clip-path="url(#clip0_1501_789)">
<path d="M86.8731 64.8116V57.0463H88.4568V64.8116H86.8731ZM91.6072 64.8116L88.4568 60.7587L91.4199 57.0293H93.2931L90.1938 60.6735L93.5145 64.7946H91.6072V64.8116Z" fill="white"/>
<path d="M99.662 63.9764C99.1511 64.5043 98.3848 64.896 97.329 64.896C96.2732 64.896 95.5239 64.5043 95.013 63.9764C94.2808 63.2101 94.0934 62.2224 94.0934 60.9111C94.0934 59.5999 94.2808 58.6292 95.013 57.8629C95.5239 57.335 96.2732 56.9434 97.329 56.9434C98.3848 56.9434 99.1511 57.335 99.662 57.8629C100.394 58.6292 100.582 59.6169 100.582 60.9111C100.582 62.2054 100.394 63.2101 99.662 63.9764ZM98.4869 58.7825C98.1975 58.493 97.7888 58.3397 97.346 58.3397C96.9032 58.3397 96.4945 58.493 96.2051 58.7825C95.7282 59.2593 95.6772 60.0767 95.6772 60.9111C95.6772 61.7456 95.7453 62.563 96.2051 63.0398C96.4945 63.3293 96.8862 63.4996 97.346 63.4996C97.8058 63.4996 98.1975 63.3293 98.4869 63.0398C98.9638 62.563 99.0319 61.7456 99.0319 60.9111C99.0319 60.0767 98.9638 59.2593 98.4869 58.7825Z" fill="white"/>
<path d="M105.588 58.3916V64.7946H104.021V58.3916H101.552V57.0293H107.955V58.3916H105.571H105.588Z" fill="white"/>
<path d="M112.332 58.3916V64.7946H110.765V58.3916H108.296V57.0293H114.699V58.3916H112.315H112.332Z" fill="white"/>
<path d="M117.253 61.3709C117.253 62.7162 117.951 63.5507 119.228 63.5507C120.097 63.5507 120.557 63.3122 121.119 62.7503L122.106 63.6869C121.306 64.4873 120.557 64.896 119.194 64.896C117.253 64.896 115.703 63.8742 115.703 60.9111C115.703 58.3738 117.015 56.9434 119.007 56.9434C120.999 56.9434 122.311 58.4419 122.311 60.7068V61.3709H117.27H117.253ZM120.54 59.2253C120.284 58.6463 119.739 58.2376 119.007 58.2376C118.275 58.2376 117.713 58.6292 117.457 59.2253C117.304 59.5658 117.27 59.8042 117.253 60.2811H120.744C120.71 59.8042 120.676 59.5658 120.523 59.2253H120.54Z" fill="white"/>
<path d="M130.008 57.0293V63.4322H131.081V66.787H129.582V64.7946H124.541V66.787H123.06V63.4322H123.894C124.388 62.4446 124.78 61.3888 124.78 59.0047V57.0293H130.025H130.008ZM126.244 59.6348C126.244 61.4228 125.955 62.4786 125.512 63.4322H128.441V58.3916H126.244V59.6348Z" fill="white"/>
<path d="M131.524 64.8116L134.674 60.6906L131.762 57.0463H133.584L136.394 60.7757L133.397 64.8286H131.506L131.524 64.8116ZM136.411 64.8116V57.0463H137.995V64.8116H136.411ZM140.992 64.8116L138.012 60.7587L140.838 57.0293H142.661L139.749 60.6735L142.899 64.7946H141.009L140.992 64.8116Z" fill="white"/>
<path d="M148.791 64.8121V61.5085H145.692V64.8121H144.125V57.0469H145.692V60.1462H148.791V57.0469H150.358V64.8121H148.791Z" fill="white"/>
<path d="M156.437 64.8121H152.827V57.0469H154.394V59.9759H156.437C157.936 59.9759 158.974 60.9636 158.974 62.394C158.974 63.8245 157.953 64.8121 156.437 64.8121ZM156.182 61.2531H154.411V63.535H156.182C156.965 63.535 157.425 63.1092 157.425 62.377C157.425 61.6447 156.965 61.236 156.182 61.236V61.2531ZM160.047 64.8121V57.0469H161.614V64.8121H160.047Z" fill="white"/>
<path d="M169.073 64.8116V59.4645L165.752 64.8116H164.185V57.0463H165.752V62.3253L169.073 57.0463H170.639V64.8116H169.073ZM167.421 55.9565C166.178 55.9565 165.139 55.4115 165.054 53.8789H166.297C166.365 54.5941 166.774 54.9177 167.421 54.9177C168.068 54.9177 168.477 54.5941 168.545 53.8789H169.788C169.72 55.3945 168.664 55.9565 167.421 55.9565Z" fill="white"/>
<path d="M181.453 64.8121V58.4092H178.354V64.8121H176.787V57.0469H183.02V64.8121H181.453Z" fill="white"/>
<path d="M190.632 63.9764C190.121 64.5043 189.354 64.896 188.299 64.896C187.243 64.896 186.493 64.5043 185.983 63.9764C185.25 63.2101 185.063 62.2224 185.063 60.9111C185.063 59.5999 185.25 58.6292 185.983 57.8629C186.493 57.335 187.243 56.9434 188.299 56.9434C189.354 56.9434 190.121 57.335 190.632 57.8629C191.364 58.6292 191.551 59.6169 191.551 60.9111C191.551 62.2054 191.364 63.2101 190.632 63.9764ZM189.457 58.7825C189.167 58.493 188.758 58.3397 188.316 58.3397C187.873 58.3397 187.464 58.493 187.175 58.7825C186.698 59.2593 186.647 60.0767 186.647 60.9111C186.647 61.7456 186.715 62.563 187.175 63.0398C187.464 63.3293 187.856 63.4996 188.316 63.4996C188.775 63.4996 189.167 63.3293 189.457 63.0398C189.933 62.563 190.001 61.7456 190.001 60.9111C190.001 60.0767 189.933 59.2593 189.457 58.7825Z" fill="white"/>
<path d="M196.728 64.896C194.974 64.896 193.271 63.8231 193.271 60.9111C193.271 57.9992 194.991 56.9434 196.728 56.9434C197.801 56.9434 198.55 57.2499 199.282 58.0332L198.209 59.072C197.716 58.5441 197.341 58.3397 196.728 58.3397C196.115 58.3397 195.621 58.5782 195.28 59.0379C194.94 59.4637 194.821 60.0256 194.821 60.9282C194.821 61.8307 194.94 62.3927 195.28 62.8354C195.621 63.2782 196.132 63.5166 196.728 63.5166C197.324 63.5166 197.733 63.3122 198.209 62.7843L199.282 63.8061C198.55 64.5894 197.801 64.913 196.728 64.913V64.896Z" fill="white"/>
<path d="M202.007 61.3709C202.007 62.7162 202.705 63.5507 203.982 63.5507C204.851 63.5507 205.311 63.3122 205.873 62.7503L206.86 63.6869C206.06 64.4873 205.311 64.896 203.948 64.896C202.007 64.896 200.457 63.8742 200.457 60.9111C200.457 58.3738 201.769 56.9434 203.761 56.9434C205.753 56.9434 207.065 58.4419 207.065 60.7068V61.3709H202.024H202.007ZM205.294 59.2253C205.038 58.6463 204.493 58.2376 203.761 58.2376C203.029 58.2376 202.467 58.6292 202.211 59.2253C202.058 59.5658 202.024 59.8042 202.007 60.2811H205.498C205.464 59.8042 205.43 59.5658 205.277 59.2253H205.294Z" fill="white"/>
<path d="M213.28 64.8121V58.4092H211.032V60.657C211.032 63.9607 210.062 64.8121 208.546 64.8121H207.814V63.4328H208.052C208.734 63.4328 209.517 63.2795 209.517 60.2824V57.0469H214.83V64.8121H213.263H213.28Z" fill="white"/>
<path d="M222.527 63.9764C222.016 64.5043 221.25 64.896 220.194 64.896C219.138 64.896 218.389 64.5043 217.878 63.9764C217.146 63.2101 216.959 62.2224 216.959 60.9111C216.959 59.5999 217.146 58.6292 217.878 57.8629C218.389 57.335 219.138 56.9434 220.194 56.9434C221.25 56.9434 222.016 57.335 222.527 57.8629C223.259 58.6292 223.447 59.6169 223.447 60.9111C223.447 62.2054 223.259 63.2101 222.527 63.9764ZM221.352 58.7825C221.063 58.493 220.654 58.3397 220.211 58.3397C219.768 58.3397 219.36 58.493 219.07 58.7825C218.593 59.2593 218.542 60.0767 218.542 60.9111C218.542 61.7456 218.61 62.563 219.07 63.0398C219.36 63.3293 219.751 63.4996 220.211 63.4996C220.671 63.4996 221.063 63.3293 221.352 63.0398C221.829 62.563 221.897 61.7456 221.897 60.9111C221.897 60.0767 221.829 59.2593 221.352 58.7825Z" fill="white"/>
<path d="M225.592 64.8116V57.0463H227.176V64.8116H225.592ZM230.326 64.8116L227.176 60.7587L230.139 57.0293H232.012L228.913 60.6735L232.234 64.7946H230.326V64.8116Z" fill="white"/>
<path d="M35.9027 0.0605469L0.755981 20.3487V43.2056H35.9027V0.0605469Z" fill="#91A256"/>
<path d="M40.3479 2.62891V43.2053H42.932V4.12091L40.3479 2.62891Z" fill="white"/>
<path d="M47.3772 6.68945V43.2051H49.9613V8.18146L47.3772 6.68945Z" fill="white"/>
<path d="M54.4066 10.75V43.2049H56.9907V12.2266L54.4066 10.75Z" fill="white"/>
<path d="M61.4359 14.7969V43.2065H64.0046V16.2889L61.4359 14.7969Z" fill="white"/>
<path d="M68.4652 43.2063H71.0339V20.3494L68.4652 18.8574V43.2063Z" fill="white"/>
<path d="M35.9027 89.272L71.034 68.9838V46.127H35.9027V89.272Z" fill="#91A256"/>
<path d="M31.4574 86.7187V46.127H28.8733V85.2267L31.4574 86.7187Z" fill="white"/>
<path d="M24.4281 82.658V46.127H21.844V81.166L24.4281 82.658Z" fill="white"/>
<path d="M17.3988 78.5973V46.127H14.8147V77.1053L17.3988 78.5973Z" fill="white"/>
<path d="M10.3694 74.5366V46.127H7.78528V73.0446L10.3694 74.5366Z" fill="white"/>
<path d="M3.34007 46.127H0.755981V68.9838L3.34007 70.4758V46.127Z" fill="white"/>
<path d="M22.2286 23.8102H20.5366V22.5181H16.8451V25.4714H19.2138C19.8137 25.4714 20.3674 25.5483 20.875 25.6867C21.3826 25.8251 21.8287 26.0405 22.1978 26.3174C22.567 26.6096 22.8438 26.9634 23.0592 27.3787C23.2591 27.8094 23.3668 28.3016 23.3668 28.8861C23.3668 29.4706 23.2745 29.9935 23.0899 30.4396C22.9054 30.8857 22.6439 31.2548 22.3209 31.5624C21.9979 31.8701 21.5979 32.0854 21.1365 32.2392C20.675 32.393 20.1521 32.47 19.583 32.47H13.3227V30.8703H14.4609V22.5027H13.3227V20.9492H22.244V23.7948L22.2286 23.8102ZM16.8451 27.0249V30.8857H19.0446C19.5676 30.8857 20.0136 30.7011 20.352 30.3473C20.6904 29.9935 20.875 29.5013 20.875 28.9014C20.875 28.2554 20.6904 27.7786 20.3213 27.4864C19.9521 27.1941 19.4753 27.0403 18.9062 27.0403H16.8451V27.0249Z" fill="white"/>
<path d="M58.1597 60.0946C58.1597 60.5099 58.0982 60.9252 57.9597 61.3559C57.8213 61.7866 57.6059 62.1711 57.2983 62.5095C56.9907 62.8479 56.6062 63.1248 56.1447 63.3401C55.6679 63.5555 55.0988 63.6631 54.4374 63.6631H52.2532V66.5241H53.7452V68.1238H48.7308V66.5241H49.8537V58.1719H48.7308V56.5723H54.2066C55.5141 56.5723 56.4985 56.8953 57.1599 57.5259C57.8213 58.1566 58.1443 59.0179 58.1443 60.0792L58.1597 60.0946ZM52.2532 58.1873V62.1096H53.8221C54.0682 62.1096 54.2989 62.0788 54.5297 62.0019C54.7604 61.925 54.945 61.8173 55.1142 61.6635C55.2833 61.5097 55.4064 61.3098 55.4987 61.0637C55.591 60.8176 55.6371 60.5253 55.6371 60.1715C55.6371 59.4947 55.4679 58.9872 55.1449 58.6641C54.8219 58.3411 54.3605 58.1873 53.7606 58.1873H52.2532Z" fill="white"/>
<path d="M110.803 42.0683C109.872 43.1918 108.508 44.0103 106.405 44.0103C104.303 44.0103 102.923 43.1758 102.008 42.0683C100.515 40.2547 100.355 37.7992 100.355 32.4065C100.355 27.0139 100.515 24.5583 102.008 22.7447C102.939 21.6213 104.303 20.8027 106.405 20.8027C108.508 20.8027 109.888 21.6373 110.803 22.7447C112.328 24.5262 112.456 27.0139 112.456 32.4065C112.456 37.7992 112.328 40.2868 110.803 42.0683ZM108.123 24.8793C107.802 24.3657 107.256 24.0126 106.405 24.0126C105.555 24.0126 105.041 24.3657 104.72 24.8793C104.046 25.9707 103.918 28.2658 103.918 32.4065C103.918 36.5473 104.046 38.8424 104.72 39.9338C105.041 40.4473 105.555 40.8004 106.405 40.8004C107.256 40.8004 107.802 40.4473 108.123 39.9338C108.797 38.8424 108.893 36.5473 108.893 32.4065C108.893 28.2658 108.797 25.9707 108.123 24.8793Z" fill="white"/>
<path d="M154.843 42.0683C153.912 43.1918 152.548 44.0103 150.445 44.0103C148.343 44.0103 146.963 43.1758 146.048 42.0683C144.555 40.2547 144.395 37.7992 144.395 32.4065C144.395 27.0139 144.555 24.5583 146.048 22.7447C146.979 21.6213 148.343 20.8027 150.445 20.8027C152.548 20.8027 153.928 21.6373 154.843 22.7447C156.368 24.5262 156.496 27.0139 156.496 32.4065C156.496 37.7992 156.368 40.2868 154.843 42.0683ZM152.163 24.8793C151.842 24.3657 151.296 24.0126 150.445 24.0126C149.595 24.0126 149.081 24.3657 148.76 24.8793C148.086 25.9707 147.958 28.2658 147.958 32.4065C147.958 36.5473 148.086 38.8424 148.76 39.9338C149.081 40.4473 149.595 40.8004 150.445 40.8004C151.296 40.8004 151.842 40.4473 152.163 39.9338C152.837 38.8424 152.933 36.5473 152.933 32.4065C152.933 28.2658 152.837 25.9707 152.163 24.8793Z" fill="white"/>
<path d="M93.63 43.7537H88.7189V40.4314H93.63C93.935 40.4314 94.1276 40.2709 94.2239 40.1746C94.3201 40.0783 94.4646 39.8857 94.4485 39.5808L94.2399 33.9153C94.2239 33.482 93.8708 33.1289 93.4214 33.1289H88.7028V29.8066H93.4214C95.6523 29.8066 97.4659 31.556 97.5461 33.7869L97.7547 39.4524C97.8029 40.5919 97.3856 41.6512 96.5992 42.4697C95.8128 43.2882 94.7535 43.7376 93.63 43.7376V43.7537Z" fill="white"/>
<path d="M89.9707 30.1927V24.2384H96.0856V21.0605H86.4077V43.7546H89.9707V30.1927Z" fill="white"/>
<path d="M96.2942 26.4211H92.7312L93.0843 21.0605H96.6473L96.2942 26.4211Z" fill="white"/>
<path d="M123.001 43.7537H118.09V40.4314H123.001C123.306 40.4314 123.498 40.2709 123.595 40.1746C123.691 40.0783 123.835 39.8857 123.819 39.5808L123.611 33.9153C123.595 33.482 123.241 33.1289 122.792 33.1289H118.073V29.8066H122.792C125.023 29.8066 126.837 31.556 126.917 33.7869L127.125 39.4524C127.174 40.5919 126.756 41.6512 125.97 42.4697C125.183 43.2882 124.124 43.7376 123.001 43.7376V43.7537Z" fill="white"/>
<path d="M119.341 30.1927V24.2384H125.456V21.0605H115.778V43.7546H119.341V30.1927Z" fill="white"/>
<path d="M125.665 26.4211H122.102L122.455 21.0605H126.018L125.665 26.4211Z" fill="white"/>
<path d="M133.962 21.0605H130.383V43.7706H133.962V21.0605Z" fill="white"/>
<path d="M136.274 36.9656H132.55V33.6434H136.274C136.707 33.6434 137.06 33.3063 137.092 32.889L137.686 24.3828H132.566V21.0605H139.467C139.933 21.0605 140.366 21.2531 140.687 21.5902C141.008 21.9272 141.153 22.3766 141.137 22.842L140.43 33.1298C140.286 35.2965 138.472 36.9817 136.306 36.9817L136.274 36.9656Z" fill="white"/>
<path d="M170.282 32.9697C170.218 32.1512 169.849 31.429 169.303 30.8351C169.528 30.466 169.673 30.0647 169.721 29.6314L170.427 22.8746C170.475 22.4091 170.331 21.9437 170.01 21.5906C169.689 21.2375 169.239 21.0449 168.774 21.0449H159.706V43.755H161.872H169.4C169.865 43.755 170.315 43.5624 170.619 43.2093C170.94 42.8723 171.085 42.4068 171.053 41.9414L170.282 32.9537V32.9697ZM166.944 24.3672L166.447 29.1018C166.318 29.182 166.029 29.2944 165.612 29.2944H163.301V24.3511H166.96L166.944 24.3672ZM163.285 40.4327V32.7611H165.933C166.591 32.7611 166.96 33.1142 166.976 33.2586L167.602 40.4327H163.285Z" fill="white"/>
<path d="M222.7 44.0108V21.3008H232.234V24.5267H226.263V30.9626H231.399V34.1885H226.263V40.7849H232.234V44.0108H222.7Z" fill="white"/>
<path d="M183.17 21.3164H179.591V44.0265H183.17V21.3164Z" fill="white"/>
<path d="M185.465 37.2215H181.742V33.8992H185.465C185.899 33.8992 186.252 33.5622 186.284 33.1449L186.878 24.6387H180.008V21.3164H188.659C189.125 21.3164 189.558 21.509 189.879 21.846C190.2 22.1831 190.344 22.6325 190.328 23.0979L189.622 33.3856C189.478 35.5523 187.664 37.2375 185.497 37.2375L185.465 37.2215Z" fill="white"/>
<path d="M215.125 44.0098H218.704V21.2997H215.125V44.0098Z" fill="white"/>
<path d="M197.599 33.1132L196.652 21.3008H193.153L194.116 33.37C194.26 35.5688 196.122 37.3021 198.321 37.3021H202.044V33.8034H198.321C197.936 33.8034 197.615 33.4984 197.599 33.1132Z" fill="white"/>
<path d="M235.411 44.0108V21.3008H238.99V35.1997L244.062 21.3008H247.256V44.0108H243.677V30.112L238.573 44.0108H235.411Z" fill="white"/>
<path d="M245.506 16.8066H237.771V19.8881H245.506V16.8066Z" fill="white"/>
<path d="M201.659 21.3164L200.006 39.8375C199.974 40.2227 199.653 40.4956 199.284 40.4956H194.614V43.9944H199.284C201.483 43.9944 203.296 42.3413 203.489 40.1425L205.158 21.3164H201.643H201.659Z" fill="white"/>
<path d="M212.091 35.7614L211.128 21.3008H207.63L208.609 35.9861C208.753 38.1849 210.615 39.9182 212.814 39.9182H216.537V36.4194H212.814C212.428 36.4194 212.107 36.1145 212.091 35.7453V35.7614Z" fill="white"/>
</g>
<defs>
<clipPath id="clip0_1501_789">
<rect width="247" height="90" fill="white" transform="translate(0.755981)"/>
</clipPath>
</defs>
</svg>
