<svg width="31" height="31" viewBox="0 0 31 31" fill="none" xmlns="http://www.w3.org/2000/svg">
<path d="M10.4419 9.5248V10.4097H18.7449C20.2371 10.4097 21.4468 9.20004 21.4468 7.7078C21.4468 6.21556 20.2371 5.00586 18.7449 5.00586H18.1386C18.1386 5.71581 17.5631 6.29134 16.8531 6.29134H13.6754C11.8896 6.29134 10.4419 7.73901 10.4419 9.5248Z" fill="#8A8A8A"/>
<path d="M7.67383 12.7048V11.1404C7.67383 10.6939 8.03574 10.332 8.48219 10.332H22.1238C22.5703 10.332 22.9322 10.6939 22.9322 11.1404V12.7048H7.67383Z" fill="#8A8A8A"/>
<path fill-rule="evenodd" clip-rule="evenodd" d="M5.7832 14.1892V23.3785C5.7832 24.7178 6.86895 25.8036 8.2083 25.8036H22.3973C23.7366 25.8036 24.8224 24.7178 24.8224 23.3785V14.1892C24.8224 13.7428 24.4605 13.3809 24.014 13.3809H6.59157C6.14512 13.3809 5.7832 13.7428 5.7832 14.1892ZM13.6075 15.9111C13.6075 15.4646 13.9694 15.1027 14.4159 15.1027H16.1898C16.6363 15.1027 16.9982 15.4646 16.9982 15.9111V17.4566H18.5437C18.9901 17.4566 19.352 17.8185 19.352 18.2649V20.0389C19.352 20.4853 18.9901 20.8473 18.5437 20.8473H16.9982V22.3927C16.9982 22.8391 16.6363 23.201 16.1898 23.201H14.4159C13.9694 23.201 13.6075 22.8391 13.6075 22.3927V20.8473H12.0621C11.6156 20.8473 11.2537 20.4853 11.2537 20.0389V18.2649C11.2537 17.8185 11.6156 17.4566 12.0621 17.4566H13.6075V15.9111Z" fill="#8A8A8A"/>
</svg>
