<svg width="56" height="56" viewBox="0 0 56 56" fill="none" xmlns="http://www.w3.org/2000/svg">
<rect x="0.206543" y="0.435547" width="55" height="55" rx="27.5" fill="#91A256"/>
<rect x="17.1978" y="20.8125" width="5.55751" height="14.2474" rx="1.21255" fill="white"/>
<rect x="38.2153" y="35.0605" width="5.55751" height="14.2474" rx="1.21255" transform="rotate(-180 38.2153 35.0605)" fill="white"/>
<path d="M14.2676 24.9546C14.2676 24.0617 14.9914 23.3379 15.8843 23.3379H16.3895V32.533H15.8843C14.9914 32.533 14.2676 31.8092 14.2676 30.9163V24.9546Z" fill="white"/>
<path d="M41.1455 30.9165C41.1455 31.8094 40.4217 32.5332 39.5288 32.5332L39.0236 32.5332L39.0236 23.3381L39.5288 23.3381C40.4217 23.3381 41.1455 24.0619 41.1455 24.9548L41.1455 30.9165Z" fill="white"/>
<rect x="18.0063" y="26.3691" width="19.1987" height="3.13241" fill="white"/>
</svg>
