<svg width="56" height="56" viewBox="0 0 56 56" fill="none" xmlns="http://www.w3.org/2000/svg">
<rect x="0.206543" y="0.435547" width="55" height="55" rx="27.5" fill="#91A256"/>
<path d="M18.0544 19.0496L16.1219 18.8611C15.7148 18.8214 15.4043 18.4791 15.4043 18.0701C15.4043 17.6312 15.7601 17.2754 16.199 17.2754H19.2531C20.5262 17.2754 21.6681 18.0589 22.1261 19.2468L22.9827 21.4688H37.3857C38.7112 21.4688 39.6779 22.7235 39.3397 24.0052L37.5914 30.632C37.17 32.2289 35.7257 33.3416 34.0741 33.3416H27.0792C25.5334 33.3416 24.1565 32.3647 23.6458 30.9057L20.0426 20.6109C19.7405 19.7477 18.9646 19.1384 18.0544 19.0496Z" fill="white"/>
<circle cx="27.429" cy="36.929" r="1.66725" fill="white"/>
<circle cx="33.0369" cy="36.929" r="1.66725" fill="white"/>
</svg>
