<svg width="56" height="56" viewBox="0 0 56 56" fill="none" xmlns="http://www.w3.org/2000/svg">
<rect x="0.206543" y="0.435547" width="55" height="55" rx="27.5" fill="#91A256"/>
<path d="M26.8313 17.6429L15.4223 23.4373C15.1292 23.5861 15.1269 24.004 15.4183 24.156L26.8159 30.1015C27.2796 30.3435 27.8317 30.3461 28.2977 30.1086L39.9748 24.1578C40.2708 24.0069 40.2685 23.5833 39.9709 23.4356L28.282 17.6361C27.8245 17.4091 27.2867 17.4116 26.8313 17.6429Z" fill="white"/>
<path d="M26.3363 31.7922L18.9658 27.9355V33.4154C18.9658 33.7122 19.1286 33.9852 19.3897 34.1264L26.3463 37.8878C27.166 38.331 28.1514 38.3422 28.9809 37.9177L35.8045 34.4256C36.0747 34.2874 36.2446 34.0095 36.2446 33.706V27.9355L28.9718 31.7859C28.148 32.222 27.1622 32.2244 26.3363 31.7922Z" fill="white"/>
<path d="M37.2051 34.8221V24.5504L38.6197 24.0957L38.1841 34.8419C38.1734 35.1044 37.9575 35.3118 37.6948 35.3118C37.4243 35.3118 37.2051 35.0925 37.2051 34.8221Z" fill="white"/>
</svg>
