<svg width="56" height="56" viewBox="0 0 56 56" fill="none" xmlns="http://www.w3.org/2000/svg">
<rect x="0.206543" y="0.435547" width="55" height="55" rx="27.5" fill="#91A256"/>
<g clip-path="url(#clip0_1448_20992)">
<path d="M18.9598 24.8118L19.3675 25.2873C20.1657 26.2182 20.5728 27.4218 20.5033 28.6461L19.8451 40.2571C19.7858 41.304 20.6187 42.1855 21.6673 42.1855C22.7011 42.1855 23.5285 41.3277 23.4912 40.2946L23.0659 28.5063C23.0247 27.3655 23.3944 26.2479 24.1076 25.3566L24.5841 24.7611C25.0024 24.2385 25.2302 23.589 25.2302 22.9196C25.2302 21.5066 24.8916 20.1141 24.2426 18.8588L23.8553 18.1096C22.9188 16.2983 20.3124 16.3454 19.4419 18.1893L19.1011 18.9114C18.5236 20.1347 18.2241 21.4707 18.2241 22.8234C18.2241 23.5528 18.4851 24.2581 18.9598 24.8118Z" fill="white"/>
<path fill-rule="evenodd" clip-rule="evenodd" d="M34.5054 16.8281V22.5207H35.62V16.8281H37.1882V22.2814C37.1882 23.3638 36.8198 24.4141 36.1434 25.2593L36.0656 25.3565C35.3524 26.2478 34.9828 27.3654 35.0239 28.5062L35.4492 40.2945C35.4865 41.3277 34.6591 42.1855 33.6253 42.1855C32.5767 42.1855 31.7438 41.3039 31.8031 40.257L32.4614 28.646C32.5308 27.4217 32.1237 26.2181 31.3255 25.2872C30.5877 24.4266 30.1821 23.3305 30.1821 22.197V16.8281H31.7587V22.5207H32.8733V16.8281H34.5054Z" fill="white"/>
</g>
<defs>
<clipPath id="clip0_1448_20992">
<rect width="30" height="30" fill="white" transform="translate(12.7065 12.9355)"/>
</clipPath>
</defs>
</svg>
