<svg width="248" height="90" viewBox="0 0 248 90" fill="none" xmlns="http://www.w3.org/2000/svg">
<g clip-path="url(#clip0_1186_30700)">
<path d="M86.6616 64.8116V57.0463H88.2453V64.8116H86.6616ZM91.3957 64.8116L88.2453 60.7587L91.2084 57.0293H93.0816L89.9823 60.6735L93.303 64.7946H91.3957V64.8116Z" fill="#BEBEBE"/>
<path d="M99.4504 63.9764C98.9395 64.5043 98.1732 64.896 97.1174 64.896C96.0616 64.896 95.3123 64.5043 94.8014 63.9764C94.0691 63.2101 93.8818 62.2224 93.8818 60.9111C93.8818 59.5999 94.0691 58.6292 94.8014 57.8629C95.3123 57.335 96.0616 56.9434 97.1174 56.9434C98.1732 56.9434 98.9395 57.335 99.4504 57.8629C100.183 58.6292 100.37 59.6169 100.37 60.9111C100.37 62.2054 100.183 63.2101 99.4504 63.9764ZM98.2753 58.7825C97.9858 58.493 97.5771 58.3397 97.1344 58.3397C96.6916 58.3397 96.2829 58.493 95.9934 58.7825C95.5166 59.2593 95.4655 60.0767 95.4655 60.9111C95.4655 61.7456 95.5337 62.563 95.9934 63.0398C96.2829 63.3293 96.6746 63.4996 97.1344 63.4996C97.5942 63.4996 97.9858 63.3293 98.2753 63.0398C98.7522 62.563 98.8203 61.7456 98.8203 60.9111C98.8203 60.0767 98.7522 59.2593 98.2753 58.7825Z" fill="#BEBEBE"/>
<path d="M105.377 58.3916V64.7946H103.81V58.3916H101.341V57.0293H107.744V58.3916H105.36H105.377Z" fill="#BEBEBE"/>
<path d="M112.12 58.3916V64.7946H110.554V58.3916H108.084V57.0293H114.487V58.3916H112.103H112.12Z" fill="#BEBEBE"/>
<path d="M117.042 61.3709C117.042 62.7162 117.74 63.5507 119.017 63.5507C119.886 63.5507 120.345 63.3122 120.907 62.7503L121.895 63.6869C121.095 64.4873 120.345 64.896 118.983 64.896C117.042 64.896 115.492 63.8742 115.492 60.9111C115.492 58.3738 116.803 56.9434 118.796 56.9434C120.788 56.9434 122.099 58.4419 122.099 60.7068V61.3709H117.059H117.042ZM120.328 59.2253C120.073 58.6463 119.528 58.2376 118.796 58.2376C118.064 58.2376 117.502 58.6292 117.246 59.2253C117.093 59.5658 117.059 59.8042 117.042 60.2811H120.533C120.499 59.8042 120.465 59.5658 120.311 59.2253H120.328Z" fill="#BEBEBE"/>
<path d="M129.797 57.0293V63.4322H130.869V66.787H129.371V64.7946H124.33V66.787H122.849V63.4322H123.683C124.177 62.4446 124.569 61.3888 124.569 59.0047V57.0293H129.814H129.797ZM126.033 59.6348C126.033 61.4228 125.744 62.4786 125.301 63.4322H128.23V58.3916H126.033V59.6348Z" fill="#BEBEBE"/>
<path d="M131.312 64.8116L134.462 60.6906L131.55 57.0463H133.372L136.182 60.7757L133.185 64.8286H131.295L131.312 64.8116ZM136.199 64.8116V57.0463H137.783V64.8116H136.199ZM140.78 64.8116L137.8 60.7587L140.627 57.0293H142.449L139.537 60.6735L142.687 64.7946H140.797L140.78 64.8116Z" fill="#BEBEBE"/>
<path d="M148.58 64.8121V61.5085H145.48V64.8121H143.914V57.0469H145.48V60.1462H148.58V57.0469H150.146V64.8121H148.58Z" fill="#BEBEBE"/>
<path d="M156.225 64.8121H152.615V57.0469H154.182V59.9759H156.225C157.724 59.9759 158.763 60.9636 158.763 62.394C158.763 63.8245 157.741 64.8121 156.225 64.8121ZM155.97 61.2531H154.199V63.535H155.97C156.753 63.535 157.213 63.1092 157.213 62.377C157.213 61.6447 156.753 61.236 155.97 61.236V61.2531ZM159.836 64.8121V57.0469H161.402V64.8121H159.836Z" fill="#BEBEBE"/>
<path d="M168.861 64.8116V59.4645L165.54 64.8116H163.974V57.0463H165.54V62.3253L168.861 57.0463H170.428V64.8116H168.861ZM167.209 55.9565C165.966 55.9565 164.927 55.4115 164.842 53.8789H166.085C166.153 54.5941 166.562 54.9177 167.209 54.9177C167.856 54.9177 168.265 54.5941 168.333 53.8789H169.576C169.508 55.3945 168.452 55.9565 167.209 55.9565Z" fill="#BEBEBE"/>
<path d="M181.241 64.8121V58.4092H178.142V64.8121H176.575V57.0469H182.808V64.8121H181.241Z" fill="#BEBEBE"/>
<path d="M190.42 63.9764C189.909 64.5043 189.143 64.896 188.087 64.896C187.031 64.896 186.282 64.5043 185.771 63.9764C185.039 63.2101 184.852 62.2224 184.852 60.9111C184.852 59.5999 185.039 58.6292 185.771 57.8629C186.282 57.335 187.031 56.9434 188.087 56.9434C189.143 56.9434 189.909 57.335 190.42 57.8629C191.152 58.6292 191.34 59.6169 191.34 60.9111C191.34 62.2054 191.152 63.2101 190.42 63.9764ZM189.245 58.7825C188.956 58.493 188.547 58.3397 188.104 58.3397C187.661 58.3397 187.253 58.493 186.963 58.7825C186.486 59.2593 186.435 60.0767 186.435 60.9111C186.435 61.7456 186.503 62.563 186.963 63.0398C187.253 63.3293 187.644 63.4996 188.104 63.4996C188.564 63.4996 188.956 63.3293 189.245 63.0398C189.722 62.563 189.79 61.7456 189.79 60.9111C189.79 60.0767 189.722 59.2593 189.245 58.7825Z" fill="#BEBEBE"/>
<path d="M196.516 64.896C194.762 64.896 193.06 63.8231 193.06 60.9111C193.06 57.9992 194.78 56.9434 196.516 56.9434C197.589 56.9434 198.339 57.2499 199.071 58.0332L197.998 59.072C197.504 58.5441 197.13 58.3397 196.516 58.3397C195.903 58.3397 195.41 58.5782 195.069 59.0379C194.728 59.4637 194.609 60.0256 194.609 60.9282C194.609 61.8307 194.728 62.3927 195.069 62.8354C195.41 63.2782 195.92 63.5166 196.516 63.5166C197.112 63.5166 197.521 63.3122 197.998 62.7843L199.071 63.8061C198.339 64.5894 197.589 64.913 196.516 64.913V64.896Z" fill="#BEBEBE"/>
<path d="M201.795 61.3709C201.795 62.7162 202.493 63.5507 203.771 63.5507C204.639 63.5507 205.099 63.3122 205.661 62.7503L206.649 63.6869C205.848 64.4873 205.099 64.896 203.737 64.896C201.795 64.896 200.246 63.8742 200.246 60.9111C200.246 58.3738 201.557 56.9434 203.549 56.9434C205.542 56.9434 206.853 58.4419 206.853 60.7068V61.3709H201.812H201.795ZM205.082 59.2253C204.826 58.6463 204.281 58.2376 203.549 58.2376C202.817 58.2376 202.255 58.6292 202 59.2253C201.846 59.5658 201.812 59.8042 201.795 60.2811H205.286C205.252 59.8042 205.218 59.5658 205.065 59.2253H205.082Z" fill="#BEBEBE"/>
<path d="M213.069 64.8121V58.4092H210.821V60.657C210.821 63.9607 209.85 64.8121 208.335 64.8121H207.603V63.4328H207.841C208.522 63.4328 209.305 63.2795 209.305 60.2824V57.0469H214.619V64.8121H213.052H213.069Z" fill="#BEBEBE"/>
<path d="M222.316 63.9764C221.805 64.5043 221.038 64.896 219.983 64.896C218.927 64.896 218.178 64.5043 217.667 63.9764C216.934 63.2101 216.747 62.2224 216.747 60.9111C216.747 59.5999 216.934 58.6292 217.667 57.8629C218.178 57.335 218.927 56.9434 219.983 56.9434C221.038 56.9434 221.805 57.335 222.316 57.8629C223.048 58.6292 223.235 59.6169 223.235 60.9111C223.235 62.2054 223.048 63.2101 222.316 63.9764ZM221.141 58.7825C220.851 58.493 220.442 58.3397 220 58.3397C219.557 58.3397 219.148 58.493 218.859 58.7825C218.382 59.2593 218.331 60.0767 218.331 60.9111C218.331 61.7456 218.399 62.563 218.859 63.0398C219.148 63.3293 219.54 63.4996 220 63.4996C220.459 63.4996 220.851 63.3293 221.141 63.0398C221.617 62.563 221.686 61.7456 221.686 60.9111C221.686 60.0767 221.617 59.2593 221.141 58.7825Z" fill="#BEBEBE"/>
<path d="M225.381 64.8116V57.0463H226.965V64.8116H225.381ZM230.115 64.8116L226.965 60.7587L229.928 57.0293H231.801L228.702 60.6735L232.022 64.7946H230.115V64.8116Z" fill="#BEBEBE"/>
<path d="M35.6911 0.0605469L0.544434 20.3487V43.2056H35.6911V0.0605469Z" fill="white"/>
<path d="M40.1362 2.62891V43.2053H42.7203V4.12091L40.1362 2.62891Z" fill="#BEBEBE"/>
<path d="M47.1655 6.68945V43.2051H49.7496V8.18146L47.1655 6.68945Z" fill="#BEBEBE"/>
<path d="M54.1948 10.75V43.2049H56.7789V12.2266L54.1948 10.75Z" fill="#BEBEBE"/>
<path d="M61.2241 14.7969V43.2065H63.7928V16.2889L61.2241 14.7969Z" fill="#BEBEBE"/>
<path d="M68.2534 43.2063H70.8221V20.3494L68.2534 18.8574V43.2063Z" fill="#BEBEBE"/>
<path d="M35.6909 89.272L70.8222 68.9838V46.127H35.6909V89.272Z" fill="white"/>
<path d="M31.2457 86.7187V46.127H28.6616V85.2267L31.2457 86.7187Z" fill="#BEBEBE"/>
<path d="M24.2164 82.658V46.127H21.6323V81.166L24.2164 82.658Z" fill="#BEBEBE"/>
<path d="M17.1871 78.5973V46.127H14.603V77.1053L17.1871 78.5973Z" fill="#BEBEBE"/>
<path d="M10.1578 74.5366V46.127H7.57373V73.0446L10.1578 74.5366Z" fill="#BEBEBE"/>
<path d="M3.12852 46.127H0.544434V68.9838L3.12852 70.4758V46.127Z" fill="#BEBEBE"/>
<path d="M22.0172 23.8102H20.3252V22.5181H16.6337V25.4714H19.0024C19.6023 25.4714 20.156 25.5483 20.6636 25.6867C21.1712 25.8251 21.6173 26.0405 21.9864 26.3174C22.3556 26.6096 22.6325 26.9634 22.8478 27.3787C23.0478 27.8094 23.1554 28.3016 23.1554 28.8861C23.1554 29.4706 23.0631 29.9935 22.8786 30.4396C22.694 30.8857 22.4325 31.2548 22.1095 31.5624C21.7865 31.8701 21.3866 32.0854 20.9251 32.2392C20.4637 32.393 19.9407 32.47 19.3716 32.47H13.1113V30.8703H14.2496V22.5027H13.1113V20.9492H22.0326V23.7948L22.0172 23.8102ZM16.6337 27.0249V30.8857H18.8332C19.3562 30.8857 19.8023 30.7011 20.1407 30.3473C20.4791 29.9935 20.6636 29.5013 20.6636 28.9014C20.6636 28.2554 20.4791 27.7786 20.1099 27.4864C19.7407 27.1941 19.2639 27.0403 18.6948 27.0403H16.6337V27.0249Z" fill="#BEBEBE"/>
<path d="M57.9484 60.0946C57.9484 60.5099 57.8869 60.9252 57.7484 61.3559C57.61 61.7866 57.3946 62.1711 57.087 62.5095C56.7794 62.8479 56.3948 63.1248 55.9334 63.3401C55.4566 63.5555 54.8875 63.6631 54.2261 63.6631H52.0419V66.5241H53.5339V68.1238H48.5195V66.5241H49.6424V58.1719H48.5195V56.5723H53.9953C55.3028 56.5723 56.2872 56.8953 56.9486 57.5259C57.61 58.1566 57.933 59.0179 57.933 60.0792L57.9484 60.0946ZM52.0419 58.1873V62.1096H53.6108C53.8569 62.1096 54.0876 62.0788 54.3183 62.0019C54.5491 61.925 54.7337 61.8173 54.9028 61.6635C55.072 61.5097 55.1951 61.3098 55.2874 61.0637C55.3797 60.8176 55.4258 60.5253 55.4258 60.1715C55.4258 59.4947 55.2566 58.9872 54.9336 58.6641C54.6106 58.3411 54.1492 58.1873 53.5493 58.1873H52.0419Z" fill="#BEBEBE"/>
<path d="M110.592 42.0683C109.661 43.1918 108.297 44.0103 106.194 44.0103C104.092 44.0103 102.711 43.1758 101.797 42.0683C100.304 40.2547 100.144 37.7992 100.144 32.4065C100.144 27.0139 100.304 24.5583 101.797 22.7447C102.728 21.6213 104.092 20.8027 106.194 20.8027C108.297 20.8027 109.677 21.6373 110.592 22.7447C112.116 24.5262 112.245 27.0139 112.245 32.4065C112.245 37.7992 112.116 40.2868 110.592 42.0683ZM107.912 24.8793C107.591 24.3657 107.045 24.0126 106.194 24.0126C105.344 24.0126 104.83 24.3657 104.509 24.8793C103.835 25.9707 103.707 28.2658 103.707 32.4065C103.707 36.5473 103.835 38.8424 104.509 39.9338C104.83 40.4473 105.344 40.8004 106.194 40.8004C107.045 40.8004 107.591 40.4473 107.912 39.9338C108.586 38.8424 108.682 36.5473 108.682 32.4065C108.682 28.2658 108.586 25.9707 107.912 24.8793Z" fill="#BEBEBE"/>
<path d="M154.631 42.0683C153.7 43.1918 152.336 44.0103 150.234 44.0103C148.131 44.0103 146.751 43.1758 145.836 42.0683C144.344 40.2547 144.183 37.7992 144.183 32.4065C144.183 27.0139 144.344 24.5583 145.836 22.7447C146.767 21.6213 148.131 20.8027 150.234 20.8027C152.336 20.8027 153.717 21.6373 154.631 22.7447C156.156 24.5262 156.284 27.0139 156.284 32.4065C156.284 37.7992 156.156 40.2868 154.631 42.0683ZM151.951 24.8793C151.63 24.3657 151.084 24.0126 150.234 24.0126C149.383 24.0126 148.87 24.3657 148.549 24.8793C147.874 25.9707 147.746 28.2658 147.746 32.4065C147.746 36.5473 147.874 38.8424 148.549 39.9338C148.87 40.4473 149.383 40.8004 150.234 40.8004C151.084 40.8004 151.63 40.4473 151.951 39.9338C152.625 38.8424 152.721 36.5473 152.721 32.4065C152.721 28.2658 152.625 25.9707 151.951 24.8793Z" fill="#BEBEBE"/>
<path d="M93.4184 43.7537H88.5073V40.4314H93.4184C93.7233 40.4314 93.9159 40.2709 94.0122 40.1746C94.1085 40.0783 94.253 39.8857 94.2369 39.5808L94.0283 33.9153C94.0122 33.482 93.6592 33.1289 93.2098 33.1289H88.4912V29.8066H93.2098C95.4406 29.8066 97.2542 31.556 97.3345 33.7869L97.5431 39.4524C97.5913 40.5919 97.174 41.6512 96.3876 42.4697C95.6012 43.2882 94.5419 43.7376 93.4184 43.7376V43.7537Z" fill="#BEBEBE"/>
<path d="M89.7593 30.1927V24.2384H95.8742V21.0605H86.1963V43.7546H89.7593V30.1927Z" fill="#BEBEBE"/>
<path d="M96.083 26.4211H92.52L92.8731 21.0605H96.4361L96.083 26.4211Z" fill="#BEBEBE"/>
<path d="M122.789 43.7537H117.878V40.4314H122.789C123.094 40.4314 123.287 40.2709 123.383 40.1746C123.479 40.0783 123.624 39.8857 123.608 39.5808L123.399 33.9153C123.383 33.482 123.03 33.1289 122.58 33.1289H117.862V29.8066H122.58C124.811 29.8066 126.625 31.556 126.705 33.7869L126.914 39.4524C126.962 40.5919 126.545 41.6512 125.758 42.4697C124.972 43.2882 123.912 43.7376 122.789 43.7376V43.7537Z" fill="#BEBEBE"/>
<path d="M119.13 30.1927V24.2384H125.245V21.0605H115.567V43.7546H119.13V30.1927Z" fill="#BEBEBE"/>
<path d="M125.454 26.4211H121.891L122.244 21.0605H125.807L125.454 26.4211Z" fill="#BEBEBE"/>
<path d="M133.751 21.0605H130.172V43.7706H133.751V21.0605Z" fill="#BEBEBE"/>
<path d="M136.062 36.9656H132.338V33.6434H136.062C136.495 33.6434 136.848 33.3063 136.88 32.889L137.474 24.3828H132.354V21.0605H139.256C139.721 21.0605 140.154 21.2531 140.475 21.5902C140.796 21.9272 140.941 22.3766 140.925 22.842L140.219 33.1298C140.074 35.2965 138.261 36.9817 136.094 36.9817L136.062 36.9656Z" fill="#BEBEBE"/>
<path d="M170.071 32.9697C170.007 32.1512 169.637 31.429 169.092 30.8351C169.316 30.466 169.461 30.0647 169.509 29.6314L170.215 22.8746C170.263 22.4091 170.119 21.9437 169.798 21.5906C169.477 21.2375 169.028 21.0449 168.562 21.0449H159.494V43.755H161.661H169.188C169.653 43.755 170.103 43.5624 170.408 43.2093C170.729 42.8723 170.873 42.4068 170.841 41.9414L170.071 32.9537V32.9697ZM166.732 24.3672L166.235 29.1018C166.107 29.182 165.818 29.2944 165.4 29.2944H163.089V24.3511H166.749L166.732 24.3672ZM163.073 40.4327V32.7611H165.721C166.379 32.7611 166.749 33.1142 166.765 33.2586L167.39 40.4327H163.073Z" fill="#BEBEBE"/>
<path d="M222.489 44.0108V21.3008H232.022V24.5267H226.052V30.9626H231.188V34.1885H226.052V40.7849H232.022V44.0108H222.489Z" fill="#BEBEBE"/>
<path d="M182.959 21.3164H179.38V44.0265H182.959V21.3164Z" fill="#BEBEBE"/>
<path d="M185.254 37.2215H181.531V33.8992H185.254C185.688 33.8992 186.041 33.5622 186.073 33.1449L186.667 24.6387H179.797V21.3164H188.448C188.913 21.3164 189.347 21.509 189.668 21.846C189.989 22.1831 190.133 22.6325 190.117 23.0979L189.411 33.3856C189.267 35.5523 187.453 37.2375 185.286 37.2375L185.254 37.2215Z" fill="#BEBEBE"/>
<path d="M214.914 44.0098H218.493V21.2997H214.914V44.0098Z" fill="#BEBEBE"/>
<path d="M197.388 33.1132L196.441 21.3008H192.942L193.905 33.37C194.049 35.5688 195.911 37.3021 198.11 37.3021H201.833V33.8034H198.11C197.725 33.8034 197.404 33.4984 197.388 33.1132Z" fill="#BEBEBE"/>
<path d="M235.2 44.0108V21.3008H238.779V35.1997L243.851 21.3008H247.045V44.0108H243.466V30.112L238.362 44.0108H235.2Z" fill="#BEBEBE"/>
<path d="M245.295 16.8066H237.56V19.8881H245.295V16.8066Z" fill="#BEBEBE"/>
<path d="M201.448 21.3164L199.795 39.8375C199.763 40.2227 199.442 40.4956 199.073 40.4956H194.402V43.9944H199.073C201.272 43.9944 203.085 42.3413 203.278 40.1425L204.947 21.3164H201.432H201.448Z" fill="#BEBEBE"/>
<path d="M211.88 35.7614L210.917 21.3008H207.418L208.397 35.9861C208.542 38.1849 210.404 39.9182 212.602 39.9182H216.326V36.4194H212.602C212.217 36.4194 211.896 36.1145 211.88 35.7453V35.7614Z" fill="#BEBEBE"/>
</g>
<defs>
<clipPath id="clip0_1186_30700">
<rect width="247" height="90" fill="white" transform="translate(0.544434)"/>
</clipPath>
</defs>
</svg>
