<svg width="65" height="64" viewBox="0 0 65 64" fill="none" xmlns="http://www.w3.org/2000/svg">
<g clip-path="url(#clip0_1186_43365)">
<path d="M16.5869 48.0067C17.1248 48.9041 17.6125 49.9309 18.0135 51.0496C19.5904 55.4494 19.2272 59.6046 17.2022 60.3303C15.1773 61.0561 12.2574 58.0777 10.6804 53.6778C9.59639 50.6532 9.4292 47.7443 10.0884 45.9855" stroke="#1E2633"/>
<path d="M11.9199 49.6165C10.5542 45.8059 8.02531 43.2263 6.27154 43.8549C4.51777 44.4835 4.20321 48.0821 5.56895 51.8927L9.91689 50.3344" stroke="#1E2633"/>
<path d="M6.18528 43.886L33.8111 33.9847C36.1079 33.1615 39.4198 36.5398 41.2085 41.5303C42.9971 46.5208 42.5851 51.2337 40.2883 52.0569L39.5781 52.3115L16.9214 60.4318M11.4938 49.7985L20.6855 46.5042L27.8816 51.7578L42.2963 46.5915" stroke="#1E2633"/>
<path d="M11.0673 47.2849L20.9969 43.726L28.0552 48.9224L41.8684 43.9716" stroke="#1E2633"/>
<path d="M13.8506 49.015C14.4964 49.5662 15.1661 50.6179 15.6302 51.9126C16.3885 54.0284 16.3103 55.992 15.4555 56.2984C14.6007 56.6047 13.293 55.1379 12.5347 53.022C12.0586 51.6937 11.9122 50.4254 12.0807 49.5895" stroke="#1E2633"/>
<path d="M39.9818 38.0382L45.8824 31.4318M41.4766 42.2088L50.0818 32.8057" stroke="#1E2633"/>
<path d="M29.5306 29.753C29.7802 29.1719 31.7724 25.3746 32.7373 23.5485" stroke="#619EC3"/>
<path d="M32.632 29.3795C32.9053 28.7433 35.0863 24.5859 36.1427 22.5867" stroke="#619EC3"/>
<path d="M35.7291 29.003C35.9787 28.4219 37.9709 24.6246 38.9358 22.7985" stroke="#619EC3"/>
<path d="M38.8283 28.628C39.0779 28.0469 41.0701 24.2496 42.035 22.4235" stroke="#619EC3"/>
<path d="M42.52 27.1024C42.7421 26.5854 44.5145 23.207 45.3729 21.5824" stroke="#619EC3"/>
<path d="M46.0687 25.8643C46.2556 25.4291 47.7476 22.5851 48.4703 21.2175" stroke="#619EC3"/>
<path d="M49.8313 23.4479C49.6361 22.8153 51.351 20.0865 52.2329 18.8012" stroke="#619EC3"/>
<path d="M53.5717 21.4224C53.1381 21.0676 53.553 18.8832 53.8146 17.8354" stroke="#619EC3"/>
<path d="M37.1507 32.61C37.5255 32.1006 40.3263 28.8534 41.6798 27.2935" stroke="#619EC3"/>
<path d="M40.2561 32.9496C40.6664 32.3919 43.7327 28.8368 45.2146 27.129" stroke="#619EC3"/>
<path d="M43.3578 33.2858C43.7325 32.7764 46.5333 29.5292 47.8869 27.9693" stroke="#619EC3"/>
<path d="M46.4612 33.6237C46.8359 33.1143 49.6367 29.8671 50.9903 28.3071" stroke="#619EC3"/>
<path d="M50.4027 32.9729C50.7361 32.5197 53.2279 29.6307 54.4321 28.2429" stroke="#619EC3"/>
<path d="M54.1396 32.572C54.4203 32.1904 56.5179 29.7585 57.5316 28.5902" stroke="#619EC3"/>
<path d="M57.8006 32.2556C58.0813 31.874 60.1789 29.4421 61.1927 28.2738" stroke="#619EC3"/>
<path d="M11.8648 15.0233C12.4941 14.96 16.7812 14.8626 18.8461 14.8217" stroke="#619EC3"/>
<path d="M13.6942 17.5545C14.3831 17.4853 19.0767 17.3786 21.3373 17.3339" stroke="#619EC3"/>
<path d="M15.5236 20.0819C16.1529 20.0186 20.44 19.9212 22.5049 19.8803" stroke="#619EC3"/>
<path d="M17.3528 22.6112C17.9821 22.5479 22.2692 22.4505 24.3341 22.4096" stroke="#619EC3"/>
<path d="M20.4771 25.1018C21.0369 25.0456 24.851 24.9588 26.6881 24.9225" stroke="#619EC3"/>
<path d="M27.5701 29.3708C31.2654 29.9493 37.84 29.1148 44.3312 26.4178C50.8225 23.7209 55.2866 20.2084 55.8129 19.6457" stroke="#619EC3"/>
<path d="M12.395 15.2018C15.6275 17.0251 22.0809 18.2427 29.1581 17.408C36.2353 16.5733 39.4114 15.4811 40.1148 15.0393" stroke="#619EC3"/>
<path d="M17.3944 20.4996C18.4933 24.4446 19.2253 27.6789 20.3124 34.566C21.0335 39.1345 20.9666 45.7255 20.9666 45.7255" stroke="#619EC3"/>
<path d="M41.7332 33.5117C42.9321 36.1038 46.5233 42.0327 51.2966 45.0115" stroke="#619EC3"/>
<path d="M31.1465 31.1799C21.9587 27.0252 10.929 13.7431 8.00483 9.15913L9.62107 8.14421C13.6992 14.2672 24.3948 26.0991 31.9997 29.6006C40.5454 33.5353 52.0421 31.8139 62.4321 29.6006L63.1396 30.0858C56.3035 32.1816 40.3344 35.3346 31.1465 31.1799Z" fill="#619EC3"/>
<path d="M23.2796 27.6051C23.7509 27.5578 26.9616 27.4848 28.5081 27.4542" stroke="#619EC3"/>
<path d="M25.9683 30.111C26.4396 30.0636 29.6504 29.9906 31.1968 29.96" stroke="#619EC3"/>
<path d="M29.9241 29.9247C30.4441 30.2852 34.162 32.422 35.956 33.4453" stroke="#619EC3"/>
<path d="M32.8779 28.3465C33.4472 28.7412 37.5176 31.0805 39.4817 32.2009" stroke="#619EC3"/>
<path d="M35.8291 26.7723C36.3491 27.1329 40.067 29.2696 41.861 30.2929" stroke="#619EC3"/>
<path d="M38.7815 25.1981C39.3015 25.5586 43.0194 27.6954 44.8134 28.7187" stroke="#619EC3"/>
<path d="M42.8514 24.2766C43.314 24.5973 46.6218 26.4984 48.2179 27.4088" stroke="#619EC3"/>
<path d="M46.6462 23.1895C47.0356 23.4595 49.8201 25.0598 51.1637 25.8262" stroke="#619EC3"/>
<path d="M50.3413 22.0469C50.7307 22.3169 53.5152 23.9172 54.8588 24.6836" stroke="#619EC3"/>
<path d="M54.2271 20.8219C53.9926 21.8919 56.2771 22.5212 57.4487 22.7022" stroke="#619EC3"/>
<path d="M19.569 22.9311C20.068 23.3196 23.2382 26.2072 24.7609 27.6025" stroke="#619EC3"/>
<path d="M19.1459 26.0251C19.6923 26.4504 23.1631 29.6118 24.8302 31.1394" stroke="#619EC3"/>
<path d="M19.206 28.9487C19.7051 29.3371 22.8753 32.2248 24.398 33.6201" stroke="#619EC3"/>
<path d="M19.6714 32.396C20.1705 32.7844 23.3407 35.672 24.8634 37.0673" stroke="#619EC3"/>
<path d="M20.2147 36.3526C20.6588 36.6982 23.4792 39.2673 24.834 40.5086" stroke="#619EC3"/>
<path d="M20.5949 40.0465C20.9687 40.3375 23.343 42.5001 24.4834 43.5451" stroke="#619EC3"/>
<path d="M19.3659 43.5837C19.7397 43.8746 22.114 46.0372 23.2544 47.0822" stroke="#619EC3"/>
<path d="M19.3021 23.2669C18.8218 23.6788 15.8144 26.7356 14.3707 28.2126" stroke="#619EC3"/>
<path d="M20.0819 26.5244C19.5561 26.9754 16.2635 30.322 14.6829 31.939" stroke="#619EC3"/>
<path d="M20.8581 29.7767C20.3778 30.1886 17.3704 33.2454 15.9267 34.7223" stroke="#619EC3"/>
<path d="M21.6361 33.0325C21.1558 33.4445 18.1484 36.5013 16.7047 37.9782" stroke="#619EC3"/>
<path d="M21.4973 37.203C21.07 37.5695 18.3943 40.289 17.1099 41.603" stroke="#619EC3"/>
<path d="M21.5902 41.1483C21.2305 41.4568 18.9781 43.7462 17.8969 44.8523" stroke="#619EC3"/>
<path d="M21.7613 45.0135C21.4016 45.322 19.1492 47.6114 18.068 48.7175" stroke="#619EC3"/>
<path d="M15.7783 18.7132C16.1051 18.1718 18.5988 14.6832 19.8048 13.0065" stroke="#619EC3"/>
<path d="M18.9015 18.7673C19.2593 18.1746 21.9894 14.3552 23.3097 12.5196" stroke="#619EC3"/>
<path d="M22.0209 18.8206C22.3478 18.2792 24.8415 14.7906 26.0474 13.114" stroke="#619EC3"/>
<path d="M25.1422 18.8733C25.469 18.3319 27.9627 14.8433 29.1686 13.1667" stroke="#619EC3"/>
<path d="M29.0082 17.8672C29.299 17.3855 31.5175 14.2818 32.5905 12.7901" stroke="#619EC3"/>
<path d="M32.693 17.1284C32.9378 16.7229 34.8054 14.1102 35.7086 12.8545" stroke="#619EC3"/>
<path d="M36.3102 16.48C36.555 16.0745 38.4226 13.4617 39.3258 12.2061" stroke="#619EC3"/>
<path d="M16.1445 18.9383C16.6102 19.3666 20.0003 21.9926 21.6372 23.2521" stroke="#619EC3"/>
<path d="M19.2866 17.7792C19.7965 18.2482 23.5081 21.1231 25.3001 22.502" stroke="#619EC3"/>
<path d="M22.4255 16.6258C22.8912 17.0541 26.2813 19.6801 27.9182 20.9396" stroke="#619EC3"/>
<path d="M25.566 15.4695C26.0317 15.8979 29.4218 18.5239 31.0587 19.7833" stroke="#619EC3"/>
<path d="M29.7235 15.1158C30.1379 15.4969 33.154 17.8331 34.6103 18.9536" stroke="#619EC3"/>
<path d="M33.6316 14.5579C33.9803 14.8787 36.5193 16.8454 37.7452 17.7887" stroke="#619EC3"/>
<path d="M37.4483 13.931C37.7971 14.2518 40.3361 16.2185 41.562 17.1617" stroke="#619EC3"/>
<path d="M16.3791 13.8938C16.6607 14.4601 18.2672 18.436 19.0352 20.3532" stroke="#619EC3"/>
<path d="M14.6572 16.4991C14.9655 17.1191 16.7243 21.472 17.5651 23.5709" stroke="#619EC3"/>
<path d="M12.9398 19.1048C13.2213 19.6711 14.8278 23.647 15.5959 25.5641" stroke="#619EC3"/>
<path d="M11.22 21.7103C11.5016 22.2765 13.1081 26.2525 13.8762 28.1696" stroke="#619EC3"/>
<path d="M9.99545 25.5117C10.246 26.0155 11.6752 29.5528 12.3586 31.2584" stroke="#619EC3"/>
<path d="M8.64328 29.019C8.85416 29.4432 10.0573 32.4209 10.6325 33.8567" stroke="#619EC3"/>
<path d="M7.25033 32.4194C7.46122 32.8435 8.66438 35.8212 9.2396 37.2571" stroke="#619EC3"/>
<path d="M15.9928 14.0811C15.3815 14.2444 11.3467 15.6968 9.40577 16.4026" stroke="#619EC3"/>
<path d="M15.2848 17.3556C14.6155 17.5344 10.1982 19.1245 8.07325 19.8972" stroke="#619EC3"/>
<path d="M14.5753 20.6241C13.964 20.7873 9.92925 22.2398 7.98829 22.9456" stroke="#619EC3"/>
<path d="M13.8665 23.8936C13.2551 24.0569 9.22039 25.5093 7.27942 26.2151" stroke="#619EC3"/>
<path d="M11.9349 27.5922C11.391 27.7374 7.8014 29.0296 6.07457 29.6576" stroke="#619EC3"/>
<path d="M10.3093 31.1907C9.85147 31.313 6.82969 32.4008 5.37603 32.9294" stroke="#619EC3"/>
<path d="M8.78978 34.7474C8.33194 34.8696 5.31016 35.9574 3.8565 36.486" stroke="#619EC3"/>
<path d="M37.495 32.8681C37.9198 33.3371 41.0569 36.2607 42.5724 37.6638" stroke="#619EC3"/>
<path d="M40.7294 32.0014C41.1944 32.5148 44.629 35.7156 46.2881 37.2518" stroke="#619EC3"/>
<path d="M43.9604 31.1376C44.3851 31.6066 47.5223 34.5302 49.0377 35.9334" stroke="#619EC3"/>
<path d="M47.193 30.2705C47.6178 30.7394 50.7549 33.663 52.2704 35.0662" stroke="#619EC3"/>
<path d="M51.3655 30.2978C51.7434 30.715 54.5344 33.3161 55.8827 34.5644" stroke="#619EC3"/>
<path d="M55.308 30.0966C55.6262 30.4479 57.9757 32.6374 59.1107 33.6883" stroke="#619EC3"/>
<path d="M59.166 29.8212C59.4841 30.1725 61.8336 32.362 62.9686 33.4129" stroke="#619EC3"/>
<path d="M32.3884 27.6795C33.0176 27.6163 37.3047 27.5188 39.3696 27.478" stroke="#619EC3"/>
<path d="M34.2179 30.2108C34.9068 30.1415 39.6003 30.0348 41.861 29.9901" stroke="#619EC3"/>
<path d="M36.0472 32.7381C36.6764 32.6749 40.9635 32.5774 43.0284 32.5366" stroke="#619EC3"/>
<path d="M37.8765 35.2674C38.5058 35.2042 42.7929 35.1067 44.8578 35.0659" stroke="#619EC3"/>
<path d="M41.0007 37.7581C41.5606 37.7018 45.3747 37.6151 47.2118 37.5788" stroke="#619EC3"/>
<path d="M43.8032 40.2614C44.2744 40.214 47.4852 40.141 49.0317 40.1104" stroke="#619EC3"/>
<path d="M46.4919 42.7672C46.9632 42.7199 50.1739 42.6469 51.7204 42.6163" stroke="#619EC3"/>
<path d="M32.428 28.1061C32.3646 28.7357 32.2971 33.0234 32.2713 35.0885" stroke="#619EC3"/>
<path d="M35.2396 29.9266C35.1702 30.6158 35.0963 35.31 35.0681 37.571" stroke="#619EC3"/>
<path d="M38.0461 31.7448C37.9828 32.3743 37.9153 36.662 37.8895 38.7272" stroke="#619EC3"/>
<path d="M40.8552 33.5631C40.7918 34.1927 40.7244 38.4804 40.6986 40.5455" stroke="#619EC3"/>
<path d="M43.6323 36.6771C43.5759 37.2372 43.5159 41.0519 43.4929 42.8892" stroke="#619EC3"/>
<path d="M46.4228 39.4703C46.3754 39.9418 46.3248 43.153 46.3055 44.6997" stroke="#619EC3"/>
<path d="M49.2129 42.148C49.1654 42.6195 49.1149 45.8307 49.0956 47.3774" stroke="#619EC3"/>
<path d="M33.589 32.2713C33.9694 32.5243 36.4076 34.4345 37.5792 35.358" stroke="#619EC3"/>
<path d="M33.4503 34.5229C33.8667 34.8 36.5361 36.8913 37.8188 37.9023" stroke="#619EC3"/>
<path d="M33.3134 36.7732C33.6937 37.0263 36.132 38.9365 37.3036 39.8599" stroke="#619EC3"/>
<path d="M33.1756 39.0232C33.5559 39.2763 35.9942 41.1865 37.1658 42.1099" stroke="#619EC3"/>
<path d="M33.7791 41.8446C34.1175 42.0697 36.2867 43.7692 37.3291 44.5908" stroke="#619EC3"/>
<path d="M34.196 44.527C34.4808 44.7166 36.3069 46.1472 37.1844 46.8388" stroke="#619EC3"/>
<path d="M34.5493 47.1579C34.8341 47.3474 36.6602 48.778 37.5377 49.4696" stroke="#619EC3"/>
<path d="M33.4151 32.5279C33.0913 32.8504 31.0887 35.2134 30.1279 36.3546" stroke="#619EC3"/>
<path d="M34.1513 34.8323C33.7967 35.1854 31.6043 37.7724 30.5524 39.0218" stroke="#619EC3"/>
<path d="M34.8847 37.1334C34.5609 37.4559 32.5583 39.8189 31.5975 40.9601" stroke="#619EC3"/>
<path d="M35.6195 39.4381C35.2956 39.7605 33.2931 42.1236 32.3323 43.2648" stroke="#619EC3"/>
<path d="M35.743 42.4487C35.4548 42.7356 33.6732 44.8379 32.8184 45.8532" stroke="#619EC3"/>
<path d="M36.0213 45.2862C35.7787 45.5277 34.2789 47.2975 33.5594 48.1522" stroke="#619EC3"/>
<path d="M36.3516 48.0597C36.109 48.3012 34.6093 50.0709 33.8897 50.9256" stroke="#619EC3"/>
<path d="M11.9043 15.4499C11.8409 16.0794 11.7734 20.3671 11.7476 22.4323" stroke="#619EC3"/>
<path d="M14.7159 17.2703C14.6465 17.9596 14.5727 22.6538 14.5444 24.9147" stroke="#619EC3"/>
<path d="M17.5225 19.0885C17.4591 19.7181 17.3916 24.0058 17.3658 26.0709" stroke="#619EC3"/>
<path d="M20.3315 20.9069C20.2682 21.5364 20.2007 25.8241 20.1749 27.8893" stroke="#619EC3"/>
<path d="M23.1086 24.0209C23.0522 24.581 22.9922 28.3956 22.9693 30.233" stroke="#619EC3"/>
<path d="M25.8992 26.8141C25.8517 27.2856 25.8012 30.4968 25.7818 32.0434" stroke="#619EC3"/>
<path d="M28.6892 29.4918C28.6417 29.9633 28.5912 33.1745 28.5719 34.7212" stroke="#619EC3"/>
</g>
<defs>
<clipPath id="clip0_1186_43365">
<rect width="64" height="64" fill="white" transform="translate(0.755981)"/>
</clipPath>
</defs>
</svg>
