<svg width="31" height="31" viewBox="0 0 31 31" fill="none" xmlns="http://www.w3.org/2000/svg">
<rect x="1.14648" y="15.1738" width="28.708" height="2.15527" rx="1.07764" fill="#1E2633"/>
<path d="M25.0038 15.5186V5.04437C25.0038 3.73488 23.9422 2.67334 22.6327 2.67334V2.67334C21.3233 2.67334 20.2617 3.73488 20.2617 5.04437V5.25959" stroke="#1E2633" stroke-width="2"/>
<path d="M20.2648 8.66495L16.2476 6.34561C15.8352 6.10754 15.694 5.58028 15.932 5.16794L16.0655 4.93673C16.9441 3.41506 18.8898 2.8937 20.4115 3.77223C21.9331 4.65077 22.4545 6.59652 21.576 8.11818L21.4425 8.3494C21.2044 8.76174 20.6771 8.90302 20.2648 8.66495Z" fill="#1E2633"/>
<path d="M1.83594 18.3203H29.165C29.165 23.0579 25.3245 26.8984 20.5869 26.8984H10.4141C5.67649 26.8984 1.83594 23.0579 1.83594 18.3203Z" fill="#1E2633"/>
<rect x="9.39941" y="26.812" width="2.15527" height="1.72437" fill="#1E2633"/>
<rect x="19.5723" y="26.812" width="2.15527" height="1.72437" fill="#1E2633"/>
</svg>
