<svg width="26" height="23" viewBox="0 0 26 23" fill="none" xmlns="http://www.w3.org/2000/svg">
<path d="M3.50996 2.51837L1.57742 2.32983C1.17033 2.29011 0.859863 1.94789 0.859863 1.53886C0.859863 1.09995 1.21567 0.744141 1.65459 0.744141H4.70869C5.98181 0.744141 7.12364 1.52767 7.58162 2.71556L8.43828 4.93753H22.8412C24.1668 4.93753 25.1334 6.19226 24.7953 7.47398L23.0469 14.1007C22.6256 15.6977 21.1813 16.8104 19.5297 16.8104H12.5348C10.989 16.8104 9.61204 15.8335 9.10139 14.3744L5.49821 4.07966C5.19608 3.21643 4.42021 2.60718 3.50996 2.51837Z" fill="#8A8A8A"/>
<circle cx="12.8845" cy="20.3977" r="1.66725" fill="#8A8A8A"/>
<circle cx="18.4924" cy="20.3977" r="1.66725" fill="#8A8A8A"/>
</svg>
