<svg width="31" height="31" viewBox="0 0 31 31" fill="none" xmlns="http://www.w3.org/2000/svg">
<path fill-rule="evenodd" clip-rule="evenodd" d="M1.51465 16.5186C1.51465 15.414 2.41008 14.5186 3.51465 14.5186H27.4854C28.5899 14.5186 29.4854 15.414 29.4854 16.5186V23.8289V24.6912V25.6743C29.4854 26.2266 29.0376 26.6743 28.4854 26.6743H26.8177C26.2701 26.6743 25.8262 26.2304 25.8262 25.6827C25.8262 25.1351 25.3822 24.6912 24.8346 24.6912H6.16541C5.61777 24.6912 5.17383 25.1351 5.17383 25.6827C5.17383 26.2304 4.72988 26.6743 4.18225 26.6743H2.51465C1.96236 26.6743 1.51465 26.2266 1.51465 25.6743V24.6912V23.8289V16.5186Z" fill="#1E2633"/>
<path fill-rule="evenodd" clip-rule="evenodd" d="M3.4502 7.2356C3.4502 7.04502 3.46842 6.85219 3.57056 6.6913C4.02192 5.98033 6.10726 4.04395 15.4331 4.04395C24.759 4.04395 26.8443 5.98033 27.2956 6.6913C27.3978 6.85219 27.416 7.04502 27.416 7.2356V13.6631H25.6061V11.2206C25.6061 11.0623 25.5129 10.9187 25.3683 10.8543C22.5977 9.61987 19.4333 9.61987 16.6627 10.8543C16.518 10.9187 16.4248 11.0623 16.4248 11.2206V13.6631H14.571V11.2206C14.571 11.0623 14.4778 10.9187 14.3331 10.8543C11.5625 9.61987 8.39811 9.61987 5.62751 10.8543C5.48284 10.9187 5.38965 11.0623 5.38965 11.2206V13.6631H3.4502V7.2356Z" fill="#1E2633"/>
</svg>
